<?xml version="1.0" encoding="UTF-8"?>
<svg xmlns="http://www.w3.org/2000/svg" xmlns:xlink="http://www.w3.org/1999/xlink" width="150px" height="32px" viewBox="0 0 150 32" version="1.1">
<g id="surface1">
<path style=" stroke:none;fill-rule:nonzero;fill:rgb(0%,0%,0%);fill-opacity:1;" d="M 134.894531 21.328125 L 134.867188 20.765625 L 134.351562 20.808594 C 133.039062 20.953125 132.234375 20.8125 131.84375 20.308594 C 131.609375 20.003906 131.503906 19.507812 131.503906 18.742188 C 131.503906 18.027344 131.640625 17.535156 131.929688 17.242188 C 132.21875 16.949219 132.703125 16.804688 133.410156 16.804688 C 133.585938 16.804688 133.84375 16.816406 134.183594 16.839844 C 134.484375 16.859375 134.714844 16.871094 134.878906 16.875 L 134.878906 16.367188 C 134.878906 16.277344 134.878906 16.089844 134.378906 16.003906 C 134.328125 15.996094 134.113281 15.976562 133.179688 15.976562 C 131.332031 15.976562 130.46875 16.855469 130.46875 18.742188 C 130.46875 20.773438 131.332031 21.71875 133.191406 21.71875 C 134.019531 21.71875 134.410156 21.683594 134.589844 21.65625 C 134.855469 21.613281 134.898438 21.515625 134.890625 21.332031 Z M 138.398438 15.976562 C 136.4375 15.976562 135.523438 16.859375 135.523438 18.753906 C 135.523438 19.78125 135.753906 20.542969 136.203125 21.015625 C 136.652344 21.484375 137.386719 21.71875 138.398438 21.71875 C 139.40625 21.71875 140.144531 21.484375 140.589844 21.015625 C 141.039062 20.542969 141.269531 19.785156 141.269531 18.753906 C 141.269531 16.859375 140.355469 15.976562 138.398438 15.976562 Z M 139.929688 20.296875 C 139.652344 20.679688 139.152344 20.867188 138.398438 20.867188 C 137.644531 20.867188 137.148438 20.671875 136.878906 20.28125 C 136.660156 19.976562 136.558594 19.488281 136.558594 18.753906 C 136.558594 18.0625 136.6875 17.578125 136.953125 17.273438 C 137.230469 16.957031 137.707031 16.804688 138.398438 16.804688 C 139.089844 16.804688 139.585938 16.957031 139.867188 17.273438 C 140.121094 17.566406 140.238281 18.039062 140.238281 18.753906 C 140.238281 19.511719 140.140625 20 139.929688 20.296875 Z M 149.902344 21.636719 C 149.933594 21.636719 149.945312 21.632812 149.945312 21.632812 L 149.902344 17.890625 C 149.902344 16.574219 149.183594 15.964844 147.648438 15.964844 C 147.207031 15.964844 146.671875 16.046875 146.054688 16.207031 L 145.980469 16.222656 L 145.863281 16.207031 C 144.953125 15.820312 143.703125 15.925781 142.429688 16.164062 C 142.152344 16.214844 142.097656 16.332031 142.097656 16.527344 L 142.097656 21.640625 L 143.097656 21.640625 L 143.097656 16.960938 L 143.382812 16.894531 C 143.640625 16.835938 143.933594 16.804688 144.257812 16.804688 C 144.691406 16.804688 144.96875 16.859375 145.152344 16.980469 C 145.402344 17.160156 145.519531 17.472656 145.519531 17.9375 L 145.519531 21.640625 L 146.519531 21.640625 L 146.519531 16.972656 L 146.804688 16.90625 C 147.089844 16.839844 147.382812 16.804688 147.679688 16.804688 C 148.121094 16.804688 148.429688 16.90625 148.621094 17.113281 C 148.808594 17.3125 148.898438 17.621094 148.898438 18.050781 L 148.898438 21.640625 L 149.898438 21.640625 Z M 58.699219 8 C 57.46875 6.757812 55.398438 6.128906 52.542969 6.128906 C 50.652344 6.128906 48.808594 6.304688 47.054688 6.652344 C 46.171875 6.832031 45.777344 7.277344 45.777344 8.101562 L 45.777344 27.25 C 45.777344 27.648438 45.898438 27.769531 46.289062 27.769531 L 47.78125 27.769531 C 48.882812 27.769531 49.375 27.25 49.375 26.078125 L 49.375 21.820312 L 49.855469 21.882812 C 50.605469 21.980469 51.554688 22.027344 52.671875 22.027344 C 57.972656 22.027344 60.550781 19.476562 60.550781 14.226562 C 60.550781 11.339844 59.929688 9.242188 58.699219 8 Z M 55.863281 17.800781 C 55.191406 18.472656 54.042969 18.800781 52.351562 18.800781 C 51.203125 18.800781 50.34375 18.738281 49.71875 18.613281 L 49.375 18.546875 L 49.375 9.722656 L 49.652344 9.617188 C 50.179688 9.421875 51.042969 9.324219 52.289062 9.324219 C 54.199219 9.324219 55.429688 9.699219 56.058594 10.460938 C 56.601562 11.117188 56.863281 12.367188 56.863281 14.285156 C 56.863281 15.976562 56.539062 17.128906 55.867188 17.800781 Z M 73.980469 21.757812 L 76.546875 21.757812 C 76.941406 21.757812 77.066406 21.636719 77.066406 21.242188 L 77.066406 11.621094 C 77.066406 7.941406 74.890625 6.15625 70.414062 6.15625 C 67.996094 6.15625 65.890625 6.335938 64.160156 6.683594 C 63.292969 6.859375 62.910156 7.304688 62.910156 8.125 L 62.910156 21.242188 C 62.910156 21.636719 63.03125 21.757812 63.425781 21.757812 L 65.992188 21.757812 C 66.386719 21.757812 66.507812 21.636719 66.507812 21.242188 L 66.507812 9.644531 L 66.847656 9.570312 C 67.53125 9.425781 68.640625 9.355469 70.238281 9.355469 C 71.378906 9.355469 72.152344 9.503906 72.601562 9.816406 C 73.1875 10.21875 73.46875 10.984375 73.46875 12.152344 L 73.46875 21.242188 C 73.46875 21.636719 73.589844 21.757812 73.984375 21.757812 Z M 92.921875 20.398438 L 92.867188 19.011719 C 92.761719 18.46875 92.550781 18.46875 92.433594 18.46875 L 92.382812 18.46875 L 90.429688 18.589844 C 89.394531 18.6875 88.378906 18.738281 87.425781 18.738281 C 86.351562 18.738281 85.605469 18.675781 85.128906 18.546875 C 84.222656 18.289062 83.613281 17.742188 83.308594 16.917969 L 83.128906 16.4375 L 88.792969 15.425781 C 89.867188 15.234375 90.617188 15.066406 91.023438 14.914062 C 91.597656 14.695312 92.171875 14.34375 92.71875 13.867188 C 93.46875 13.199219 93.839844 12.191406 93.839844 10.789062 C 93.839844 7.691406 91.539062 6.183594 86.808594 6.183594 C 84.148438 6.183594 82.203125 6.804688 81.023438 8.023438 C 79.839844 9.25 79.242188 11.234375 79.242188 13.925781 C 79.242188 16.617188 79.859375 18.6875 81.085938 19.996094 C 82.304688 21.300781 84.277344 21.964844 86.953125 21.964844 C 89.21875 21.964844 90.804688 21.894531 91.664062 21.761719 C 92.566406 21.621094 92.953125 21.199219 92.921875 20.398438 Z M 82.929688 13.089844 C 82.972656 11.574219 83.289062 10.566406 83.890625 10.003906 C 84.488281 9.449219 85.519531 9.175781 87.042969 9.175781 C 89.125 9.175781 90.179688 9.742188 90.179688 10.851562 C 90.179688 11.707031 89.730469 12.113281 89.355469 12.300781 C 89.179688 12.390625 88.792969 12.535156 87.441406 12.785156 L 82.914062 13.625 L 82.929688 13.09375 Z M 110.570312 20 L 110.570312 6.882812 C 110.570312 6.492188 110.445312 6.367188 110.054688 6.367188 L 108.582031 6.367188 C 107.453125 6.367188 106.972656 6.863281 106.972656 8.039062 L 106.972656 18.480469 L 106.632812 18.554688 C 105.949219 18.699219 104.839844 18.769531 103.242188 18.769531 C 102.097656 18.769531 101.324219 18.621094 100.875 18.308594 C 100.292969 17.90625 100.011719 17.140625 100.011719 15.972656 L 100.011719 6.882812 C 100.011719 6.492188 99.886719 6.367188 99.496094 6.367188 L 98.019531 6.367188 C 96.894531 6.367188 96.414062 6.867188 96.414062 8.039062 L 96.414062 16.507812 C 96.414062 20.183594 98.589844 21.96875 103.0625 21.96875 C 105.484375 21.96875 107.589844 21.792969 109.320312 21.445312 C 110.183594 21.269531 110.570312 20.820312 110.570312 20 Z M 123.929688 13.628906 C 123.105469 13.195312 121.5625 12.722656 119.347656 12.214844 C 117.339844 11.773438 116.480469 11.285156 116.480469 10.582031 C 116.480469 9.375 118.339844 9.238281 119.738281 9.238281 C 121.132812 9.238281 122.328125 9.296875 123.242188 9.417969 L 124.722656 9.621094 C 125.0625 9.621094 125.167969 9.519531 125.179688 9.175781 C 125.195312 8.613281 125.207031 8.273438 125.207031 8.15625 C 125.226562 7.488281 125.046875 6.585938 123.261719 6.269531 C 123.046875 6.230469 122.222656 6.1875 119.503906 6.1875 C 115.046875 6.1875 112.882812 7.714844 112.882812 10.851562 C 112.882812 12.015625 113.242188 12.898438 113.976562 13.546875 C 114.5 14.019531 115.40625 14.457031 116.679688 14.851562 C 117.726562 15.121094 118.789062 15.410156 119.851562 15.707031 C 121.820312 16.261719 122.582031 16.722656 122.582031 17.363281 C 122.582031 18.859375 120.066406 18.859375 119.238281 18.859375 C 117.863281 18.859375 116.574219 18.777344 115.40625 18.617188 L 114.105469 18.441406 C 113.859375 18.421875 113.730469 18.402344 113.648438 18.386719 C 113.378906 18.394531 113.246094 18.476562 113.234375 18.859375 C 113.226562 19.085938 113.21875 19.265625 113.203125 19.40625 L 113.207031 19.40625 L 113.207031 19.941406 C 113.207031 21.273438 113.851562 21.554688 114.414062 21.648438 C 115.664062 21.863281 117.394531 21.96875 119.5625 21.96875 C 124.058594 21.96875 126.242188 20.375 126.242188 17.101562 C 126.242188 15.597656 125.484375 14.464844 123.929688 13.628906 Z M 123.929688 13.628906 "/>
<path style=" stroke:none;fill-rule:nonzero;fill:rgb(100%,40.000001%,0%);fill-opacity:1;" d="M 20.042969 0 L 18.597656 0 C 17.492188 0 17.019531 0.472656 17.019531 1.582031 L 17.019531 21.273438 C 17.019531 21.609375 17.132812 21.699219 17.535156 21.699219 L 20.042969 21.699219 C 20.429688 21.699219 20.5 21.589844 20.5 21.273438 L 20.5 0.457031 C 20.5 0.0976562 20.402344 0 20.042969 0 Z M 26.378906 0 L 24.9375 0 C 23.832031 0 23.359375 0.472656 23.359375 1.582031 L 23.359375 21.273438 C 23.359375 21.609375 23.46875 21.699219 23.875 21.699219 L 26.382812 21.699219 C 26.769531 21.699219 26.839844 21.589844 26.839844 21.273438 L 26.839844 0.457031 C 26.839844 0.0976562 26.738281 0 26.382812 0 Z M 36.210938 6.402344 C 31.339844 6.402344 28.972656 8.835938 28.972656 13.839844 C 28.972656 16.558594 29.554688 18.582031 30.699219 19.851562 C 31.835938 21.113281 33.6875 21.75 36.210938 21.75 C 38.730469 21.75 40.585938 21.113281 41.722656 19.851562 C 42.867188 18.582031 43.449219 16.558594 43.449219 13.839844 C 43.449219 8.835938 41.082031 6.402344 36.210938 6.402344 Z M 39.695312 17.617188 C 39.082031 18.515625 37.945312 18.953125 36.210938 18.953125 C 34.476562 18.953125 33.351562 18.492188 32.75 17.578125 C 32.265625 16.855469 32.027344 15.628906 32.027344 13.839844 C 32.027344 12.144531 32.316406 10.96875 32.914062 10.25 C 33.539062 9.503906 34.613281 9.140625 36.210938 9.140625 C 37.804688 9.140625 38.941406 9.503906 39.570312 10.246094 C 40.128906 10.933594 40.394531 12.105469 40.394531 13.839844 C 40.394531 15.691406 40.167969 16.925781 39.695312 17.617188 Z M 11.996094 21.492188 L 13.867188 21.492188 C 14.167969 21.492188 14.167969 21.453125 14.167969 21.21875 L 14.167969 14.03125 C 14.167969 13.980469 14.167969 13.914062 14.160156 13.839844 C 14.128906 7.925781 11.945312 5.40625 6.875 5.40625 C 5.175781 5.40625 4.542969 5.460938 3.835938 5.574219 C 3.082031 5.699219 2.785156 6.03125 2.8125 6.722656 L 2.867188 8.015625 C 2.933594 8.320312 3.023438 8.320312 3.113281 8.320312 L 3.160156 8.320312 L 4.519531 8.230469 C 5.035156 8.175781 5.40625 8.175781 5.78125 8.191406 C 5.9375 8.195312 6.101562 8.203125 6.3125 8.203125 C 8.167969 8.203125 9.40625 8.632812 10.09375 9.519531 C 10.320312 9.816406 10.503906 10.308594 10.644531 10.980469 L 10.710938 11.304688 L 10.265625 11.210938 C 10.089844 11.179688 9.441406 11.132812 7.132812 11.132812 C 2.171875 11.132812 0.0546875 12.65625 0.0546875 16.230469 C 0.0546875 19.984375 2.3125 21.738281 7.164062 21.738281 C 8.015625 21.738281 9.683594 21.542969 11.285156 20.226562 L 11.636719 19.941406 L 11.636719 21.21875 C 11.636719 21.429688 11.636719 21.496094 12 21.496094 Z M 10.898438 14.242188 C 10.847656 17.207031 10.167969 17.738281 9.355469 18.09375 C 8.445312 18.492188 7.414062 18.699219 6.378906 18.699219 C 5 18.699219 3.777344 18.316406 3.335938 17.746094 C 2.742188 16.96875 2.835938 15.558594 3.535156 14.847656 C 4.394531 13.96875 6.75 13.871094 7.722656 13.871094 C 8.167969 13.871094 8.828125 13.902344 9.683594 13.960938 C 10.066406 13.988281 10.398438 14.007812 10.695312 14.019531 L 10.90625 14.03125 L 10.898438 14.238281 Z M 128.109375 20.488281 C 127.246094 20.488281 126.9375 20.804688 126.9375 21.691406 C 126.9375 22.640625 127.246094 22.976562 128.109375 22.976562 C 128.976562 22.976562 129.308594 22.640625 129.308594 21.691406 C 129.308594 20.804688 128.996094 20.488281 128.109375 20.488281 Z M 55.019531 26.527344 C 54.535156 26.527344 54.152344 26.699219 53.875 27.042969 C 53.597656 27.390625 53.457031 27.867188 53.457031 28.472656 C 53.457031 29.082031 53.589844 29.59375 53.855469 29.917969 C 54.125 30.246094 54.511719 30.40625 55.019531 30.40625 C 55.234375 30.40625 55.449219 30.386719 55.65625 30.34375 C 55.859375 30.296875 56.074219 30.242188 56.292969 30.171875 L 56.292969 30.902344 C 55.890625 31.054688 55.429688 31.132812 54.914062 31.132812 C 54.160156 31.132812 53.578125 30.902344 53.171875 30.441406 C 52.765625 29.980469 52.566406 29.320312 52.566406 28.464844 C 52.566406 27.925781 52.664062 27.453125 52.859375 27.050781 C 53.058594 26.644531 53.339844 26.335938 53.714844 26.121094 C 54.085938 25.90625 54.523438 25.796875 55.027344 25.796875 C 55.554688 25.796875 56.042969 25.910156 56.488281 26.128906 L 56.183594 26.835938 C 56.011719 26.753906 55.824219 26.679688 55.632812 26.617188 C 55.4375 26.554688 55.234375 26.523438 55.019531 26.523438 Z M 61.847656 31.0625 L 61 31.0625 L 61 28.722656 L 58.617188 28.722656 L 58.617188 31.0625 L 57.769531 31.0625 L 57.769531 25.875 L 58.617188 25.875 L 58.617188 27.996094 L 61 27.996094 L 61 25.875 L 61.847656 25.875 Z M 68.15625 28.460938 C 68.15625 29.304688 67.949219 29.960938 67.527344 30.429688 C 67.105469 30.898438 66.511719 31.132812 65.738281 31.132812 C 64.96875 31.132812 64.359375 30.902344 63.941406 30.4375 C 63.523438 29.972656 63.316406 29.308594 63.316406 28.453125 C 63.316406 27.597656 63.523438 26.9375 63.945312 26.480469 C 64.367188 26.023438 64.964844 25.792969 65.746094 25.792969 C 66.527344 25.792969 67.109375 26.023438 67.527344 26.488281 C 67.945312 26.957031 68.15625 27.613281 68.15625 28.460938 Z M 64.210938 28.460938 C 64.210938 29.101562 64.339844 29.585938 64.597656 29.914062 C 64.855469 30.246094 65.234375 30.410156 65.742188 30.410156 C 66.246094 30.410156 66.621094 30.246094 66.878906 29.921875 C 67.132812 29.59375 67.261719 29.105469 67.261719 28.460938 C 67.261719 27.816406 67.136719 27.34375 66.878906 27.011719 C 66.625 26.683594 66.25 26.519531 65.746094 26.519531 C 65.246094 26.519531 64.859375 26.683594 64.601562 27.011719 C 64.34375 27.34375 64.210938 27.824219 64.210938 28.460938 Z M 69.628906 31.0625 L 69.628906 25.875 L 70.476562 25.875 L 70.476562 31.0625 Z M 75.183594 29.652344 C 75.183594 30.113281 75.015625 30.476562 74.683594 30.738281 C 74.351562 31 73.890625 31.132812 73.308594 31.132812 C 72.722656 31.132812 72.246094 31.042969 71.871094 30.859375 L 71.871094 30.058594 C 72.109375 30.167969 72.359375 30.257812 72.625 30.320312 C 72.890625 30.382812 73.136719 30.414062 73.363281 30.414062 C 73.699219 30.414062 73.945312 30.351562 74.105469 30.222656 C 74.265625 30.09375 74.34375 29.921875 74.34375 29.710938 C 74.34375 29.515625 74.269531 29.351562 74.125 29.214844 C 73.980469 29.082031 73.675781 28.921875 73.21875 28.738281 C 72.75 28.546875 72.417969 28.324219 72.222656 28.082031 C 72.03125 27.835938 71.933594 27.539062 71.933594 27.195312 C 71.933594 26.761719 72.085938 26.421875 72.394531 26.171875 C 72.699219 25.921875 73.109375 25.800781 73.628906 25.800781 C 74.144531 25.800781 74.613281 25.910156 75.105469 26.125 L 74.835938 26.816406 C 74.375 26.625 73.964844 26.527344 73.605469 26.527344 C 73.332031 26.527344 73.125 26.585938 72.984375 26.707031 C 72.84375 26.828125 72.773438 26.984375 72.773438 27.179688 C 72.773438 27.3125 72.800781 27.429688 72.859375 27.523438 C 72.914062 27.621094 73.007812 27.710938 73.136719 27.796875 C 73.265625 27.882812 73.5 27.996094 73.835938 28.136719 C 74.214844 28.292969 74.492188 28.441406 74.671875 28.578125 C 74.847656 28.714844 74.976562 28.871094 75.058594 29.042969 C 75.140625 29.214844 75.183594 29.417969 75.183594 29.652344 Z M 76.542969 31.0625 L 76.542969 25.875 L 77.390625 25.875 L 77.390625 31.0625 Z M 82.09375 29.652344 C 82.09375 30.113281 81.929688 30.476562 81.597656 30.738281 C 81.265625 31 80.804688 31.132812 80.21875 31.132812 C 79.636719 31.132812 79.160156 31.042969 78.785156 30.859375 L 78.785156 30.058594 C 79.023438 30.167969 79.273438 30.257812 79.539062 30.320312 C 79.800781 30.382812 80.050781 30.414062 80.277344 30.414062 C 80.613281 30.414062 80.859375 30.351562 81.019531 30.222656 C 81.175781 30.09375 81.257812 29.921875 81.257812 29.710938 C 81.257812 29.515625 81.183594 29.351562 81.039062 29.214844 C 80.890625 29.082031 80.589844 28.921875 80.132812 28.738281 C 79.664062 28.546875 79.328125 28.324219 79.136719 28.082031 C 78.941406 27.835938 78.847656 27.539062 78.847656 27.195312 C 78.847656 26.761719 79 26.421875 79.304688 26.171875 C 79.613281 25.921875 80.023438 25.800781 80.539062 25.800781 C 81.058594 25.800781 81.527344 25.910156 82.019531 26.125 L 81.75 26.816406 C 81.289062 26.625 80.878906 26.527344 80.519531 26.527344 C 80.246094 26.527344 80.039062 26.585938 79.898438 26.707031 C 79.757812 26.828125 79.683594 26.984375 79.683594 27.179688 C 79.683594 27.3125 79.714844 27.429688 79.769531 27.523438 C 79.828125 27.621094 79.921875 27.710938 80.050781 27.796875 C 80.179688 27.882812 80.414062 27.996094 80.75 28.136719 C 81.128906 28.292969 81.40625 28.441406 81.582031 28.578125 C 81.761719 28.714844 81.890625 28.871094 81.972656 29.042969 C 82.054688 29.214844 82.09375 29.417969 82.09375 29.652344 Z M 86.4375 29.652344 C 86.4375 30.113281 86.273438 30.476562 85.9375 30.738281 C 85.605469 31 85.148438 31.132812 84.5625 31.132812 C 83.976562 31.132812 83.5 31.042969 83.128906 30.859375 L 83.128906 30.058594 C 83.363281 30.167969 83.613281 30.257812 83.878906 30.320312 C 84.144531 30.382812 84.390625 30.414062 84.621094 30.414062 C 84.953125 30.414062 85.203125 30.351562 85.359375 30.222656 C 85.519531 30.09375 85.597656 29.921875 85.597656 29.710938 C 85.597656 29.515625 85.523438 29.351562 85.378906 29.214844 C 85.234375 29.082031 84.933594 28.921875 84.476562 28.738281 C 84.003906 28.546875 83.671875 28.324219 83.480469 28.082031 C 83.285156 27.835938 83.1875 27.539062 83.1875 27.195312 C 83.1875 26.761719 83.339844 26.421875 83.648438 26.171875 C 83.957031 25.921875 84.367188 25.800781 84.882812 25.800781 C 85.398438 25.800781 85.871094 25.910156 86.359375 26.125 L 86.089844 26.816406 C 85.632812 26.625 85.222656 26.527344 84.863281 26.527344 C 84.585938 26.527344 84.378906 26.585938 84.238281 26.707031 C 84.097656 26.828125 84.027344 26.984375 84.027344 27.179688 C 84.027344 27.3125 84.054688 27.429688 84.113281 27.523438 C 84.167969 27.621094 84.261719 27.710938 84.390625 27.796875 C 84.523438 27.882812 84.753906 27.996094 85.089844 28.136719 C 85.46875 28.292969 85.746094 28.441406 85.925781 28.578125 C 86.101562 28.714844 86.230469 28.871094 86.3125 29.042969 C 86.394531 29.214844 86.4375 29.417969 86.4375 29.652344 Z M 90.722656 31.0625 L 87.800781 31.0625 L 87.800781 25.875 L 90.722656 25.875 L 90.722656 26.589844 L 88.644531 26.589844 L 88.644531 28.003906 L 90.59375 28.003906 L 90.59375 28.714844 L 88.644531 28.714844 L 88.644531 30.34375 L 90.722656 30.34375 Z M 95.453125 31.0625 L 91.753906 31.0625 L 91.753906 30.472656 L 94.359375 26.601562 L 91.824219 26.601562 L 91.824219 25.875 L 95.382812 25.875 L 95.382812 26.472656 L 92.765625 30.335938 L 95.453125 30.335938 Z M 97.503906 30.300781 C 97.390625 30.738281 97.183594 31.304688 96.878906 32 L 96.269531 32 C 96.429688 31.359375 96.550781 30.765625 96.632812 30.214844 L 97.449219 30.214844 L 97.5 30.300781 Z M 103.464844 26.527344 C 102.980469 26.527344 102.601562 26.699219 102.320312 27.042969 C 102.042969 27.390625 101.902344 27.867188 101.902344 28.472656 C 101.902344 29.082031 102.035156 29.59375 102.304688 29.917969 C 102.570312 30.246094 102.960938 30.40625 103.464844 30.40625 C 103.683594 30.40625 103.898438 30.386719 104.101562 30.34375 C 104.308594 30.296875 104.519531 30.242188 104.742188 30.171875 L 104.742188 30.902344 C 104.335938 31.054688 103.875 31.132812 103.363281 31.132812 C 102.605469 31.132812 102.023438 30.902344 101.621094 30.441406 C 101.214844 29.980469 101.011719 29.320312 101.011719 28.464844 C 101.011719 27.925781 101.109375 27.453125 101.308594 27.050781 C 101.503906 26.644531 101.789062 26.335938 102.160156 26.121094 C 102.535156 25.90625 102.972656 25.796875 103.472656 25.796875 C 104 25.796875 104.488281 25.910156 104.9375 26.128906 L 104.632812 26.835938 C 104.460938 26.753906 104.273438 26.679688 104.082031 26.617188 C 103.886719 26.554688 103.679688 26.523438 103.464844 26.523438 Z M 106.792969 25.875 L 106.847656 25.949219 C 106.722656 26.445312 106.515625 27.011719 106.222656 27.648438 L 105.625 27.648438 C 105.785156 26.964844 105.90625 26.375 105.976562 25.871094 L 106.792969 25.871094 Z M 110.898438 31.0625 L 107.976562 31.0625 L 107.976562 25.875 L 110.898438 25.875 L 110.898438 26.589844 L 108.820312 26.589844 L 108.820312 28.003906 L 110.769531 28.003906 L 110.769531 28.714844 L 108.820312 28.714844 L 108.820312 30.34375 L 110.898438 30.34375 Z M 115.359375 29.652344 C 115.359375 30.113281 115.191406 30.476562 114.859375 30.738281 C 114.527344 31 114.070312 31.132812 113.484375 31.132812 C 112.898438 31.132812 112.421875 31.042969 112.050781 30.859375 L 112.050781 30.058594 C 112.285156 30.167969 112.535156 30.257812 112.800781 30.320312 C 113.066406 30.382812 113.3125 30.414062 113.542969 30.414062 C 113.875 30.414062 114.121094 30.351562 114.28125 30.222656 C 114.441406 30.09375 114.519531 29.921875 114.519531 29.710938 C 114.519531 29.515625 114.445312 29.351562 114.300781 29.214844 C 114.15625 29.082031 113.851562 28.921875 113.398438 28.738281 C 112.925781 28.546875 112.59375 28.324219 112.402344 28.082031 C 112.207031 27.835938 112.109375 27.539062 112.109375 27.195312 C 112.109375 26.761719 112.261719 26.421875 112.570312 26.171875 C 112.875 25.921875 113.285156 25.800781 113.804688 25.800781 C 114.320312 25.800781 114.789062 25.910156 115.28125 26.125 L 115.011719 26.816406 C 114.550781 26.625 114.140625 26.527344 113.78125 26.527344 C 113.507812 26.527344 113.300781 26.585938 113.160156 26.707031 C 113.019531 26.828125 112.949219 26.984375 112.949219 27.179688 C 112.949219 27.3125 112.976562 27.429688 113.035156 27.523438 C 113.089844 27.621094 113.183594 27.710938 113.3125 27.796875 C 113.441406 27.882812 113.675781 27.996094 114.011719 28.136719 C 114.390625 28.292969 114.667969 28.441406 114.847656 28.578125 C 115.023438 28.714844 115.152344 28.871094 115.234375 29.042969 C 115.316406 29.214844 115.359375 29.417969 115.359375 29.652344 Z M 118.503906 31.0625 L 117.660156 31.0625 L 117.660156 26.601562 L 116.140625 26.601562 L 116.140625 25.875 L 120.027344 25.875 L 120.027344 26.601562 L 118.503906 26.601562 Z M 125.65625 31.0625 L 124.15625 26.730469 L 124.128906 26.730469 C 124.167969 27.375 124.191406 27.976562 124.191406 28.539062 L 124.191406 31.0625 L 123.425781 31.0625 L 123.425781 25.875 L 124.617188 25.875 L 126.050781 30 L 126.070312 30 L 127.550781 25.875 L 128.746094 25.875 L 128.746094 31.0625 L 127.933594 31.0625 L 127.933594 28.496094 C 127.933594 28.238281 127.9375 27.902344 127.953125 27.488281 C 127.964844 27.074219 127.976562 26.824219 127.984375 26.734375 L 127.957031 26.734375 L 126.40625 31.058594 L 125.660156 31.058594 Z M 135.054688 28.460938 C 135.054688 29.304688 134.84375 29.960938 134.421875 30.429688 C 134.003906 30.898438 133.40625 31.132812 132.636719 31.132812 C 131.863281 31.132812 131.257812 30.902344 130.839844 30.4375 C 130.417969 29.972656 130.210938 29.308594 130.210938 28.453125 C 130.210938 27.597656 130.421875 26.9375 130.839844 26.480469 C 131.261719 26.023438 131.863281 25.792969 132.640625 25.792969 C 133.421875 25.792969 134.003906 26.023438 134.421875 26.488281 C 134.84375 26.957031 135.050781 27.613281 135.050781 28.460938 Z M 131.109375 28.460938 C 131.109375 29.101562 131.238281 29.585938 131.496094 29.914062 C 131.75 30.246094 132.132812 30.410156 132.636719 30.410156 C 133.144531 30.410156 133.519531 30.246094 133.773438 29.921875 C 134.03125 29.59375 134.15625 29.105469 134.15625 28.460938 C 134.15625 27.816406 134.03125 27.34375 133.777344 27.011719 C 133.523438 26.683594 133.144531 26.519531 132.644531 26.519531 C 132.140625 26.519531 131.753906 26.683594 131.496094 27.011719 C 131.238281 27.34375 131.109375 27.824219 131.109375 28.460938 Z M 140.832031 31.0625 L 139.796875 31.0625 L 137.253906 26.925781 L 137.226562 26.925781 L 137.246094 27.15625 C 137.277344 27.597656 137.292969 28 137.292969 28.363281 L 137.292969 31.0625 L 136.527344 31.0625 L 136.527344 25.875 L 137.550781 25.875 L 140.085938 29.988281 L 140.109375 29.988281 C 140.105469 29.933594 140.09375 29.734375 140.082031 29.390625 C 140.066406 29.050781 140.058594 28.785156 140.058594 28.589844 L 140.058594 25.875 L 140.835938 25.875 L 140.835938 31.0625 Z M 144.34375 31.0625 L 143.5 31.0625 L 143.5 26.601562 L 141.976562 26.601562 L 141.976562 25.875 L 145.863281 25.875 L 145.863281 26.601562 L 144.34375 26.601562 Z M 149.941406 31.0625 L 147.015625 31.0625 L 147.015625 25.875 L 149.941406 25.875 L 149.941406 26.589844 L 147.863281 26.589844 L 147.863281 28.003906 L 149.808594 28.003906 L 149.808594 28.714844 L 147.863281 28.714844 L 147.863281 30.34375 L 149.941406 30.34375 Z M 147.890625 25.457031 L 147.890625 25.371094 C 148.023438 25.203125 148.164062 25.019531 148.304688 24.816406 C 148.425781 24.644531 148.539062 24.472656 148.644531 24.292969 L 149.609375 24.292969 L 149.609375 24.367188 C 149.484375 24.511719 149.304688 24.699219 149.058594 24.925781 C 148.8125 25.152344 148.609375 25.332031 148.441406 25.457031 Z M 147.890625 25.457031 "/>
</g>
</svg>
