<svg width="119" height="32" viewBox="0 0 119 32" fill="none" xmlns="http://www.w3.org/2000/svg">
<g clip-path="url(#clip0_229_1999)">
<path d="M31.217 18.2766C30.3107 19.1556 29.0678 19.4139 28.5501 18.8979C28.0323 18.382 28.2909 17.1145 29.1971 16.2352C30.1033 15.3559 31.3202 15.0716 31.8383 15.5891C32.3563 16.0802 32.1232 17.3985 31.217 18.2772" fill="#434343"/>
<path d="M34.8941 18.1473C34.2468 18.8709 33.3663 19.1292 32.9261 18.7686C32.5119 18.4067 32.6672 17.4502 33.3146 16.7272C33.9619 16.0289 34.8681 15.6916 35.2826 16.0547C35.7225 16.4425 35.5412 17.4245 34.8941 18.1487" fill="#434343"/>
<path d="M19.6163 13.6236C18.8848 13.5066 18.1361 13.5626 17.4302 13.7871C16.7243 14.0115 16.0808 14.3982 15.5512 14.9162C14.3341 16.1053 13.4536 17.7591 13.9456 19.1035C14.1267 19.6464 14.9296 20.1893 15.5512 20.215C16.8916 20.219 18.1848 19.7211 19.1764 18.8192C20.1223 17.9429 20.7045 16.7432 20.8077 15.4579C20.8152 15.2495 20.7978 15.0409 20.7557 14.8366C20.6863 14.5534 20.5449 14.293 20.3453 14.0805C20.1457 13.8679 19.8946 13.7106 19.6163 13.6236Z" fill="#434343"/>
<path d="M26.2454 18.4056C25.0282 19.5689 23.2421 19.9825 22.5427 19.3103C21.8436 18.6121 22.2578 16.9065 23.4746 15.7429C24.6658 14.5801 26.3741 14.2955 27.048 14.9935C27.7468 15.6656 27.4362 17.242 26.2451 18.4053" fill="#565656"/>
<path d="M34.1947 12.7189C33.4438 13.7269 32.2524 14.1662 31.6571 13.7529C31.0619 13.3396 31.0616 12.0467 31.7867 11.0387C32.5373 10.0307 33.7548 9.51355 34.35 9.92716C34.9453 10.3408 34.9456 11.7109 34.195 12.7189" fill="#434343"/>
<path d="M37.07 13.8044C36.4747 14.6328 35.5942 15.0192 35.1022 14.6834C34.6102 14.3476 34.688 13.365 35.2836 12.5381C35.8792 11.7369 36.7854 11.2716 37.2774 11.6074C37.7434 11.9435 37.6655 13.0032 37.07 13.8044Z" fill="#434343"/>
<path d="M24.5107 9.51382C23.008 11.323 20.7042 12.0467 19.7202 11.1162C18.5811 10.0047 18.529 8.24637 20.2122 6.12743C22.0246 3.85288 24.0435 3.74933 25.1062 4.60229C26.1417 5.45554 26.0125 7.70465 24.5107 9.51382Z" fill="#636363"/>
<path d="M30.1306 11.2977C29.017 13.1586 27.3084 13.1846 26.5575 12.59C25.8067 11.9687 26.0138 10.2116 27.101 8.91926C28.1883 7.62695 29.8975 7.10979 30.5966 7.80772C31.1664 8.37665 30.9851 9.84914 30.1306 11.2988" fill="#606060"/>
<path d="M18.0629 0.311516C14.1279 -1.34233 10.1652 3.98223 10.4762 6.98075C10.7347 9.28104 12.1853 10.2115 14.2563 9.90175C14.2869 9.88133 14.3236 9.87223 14.3602 9.87601C16.5353 9.5914 18.3475 7.80767 19.1765 6.25708C19.4746 5.67307 19.6758 5.04444 19.772 4.39584C19.7978 4.13755 19.8235 3.85323 19.8235 3.59465C19.7978 2.17453 19.28 0.828972 18.0629 0.310629" fill="#434343"/>
<path d="M9.80298 12.2281C8.89404 12.3912 8.0295 12.7435 7.26541 13.2621C6.03741 13.9447 5.02411 14.9563 4.33937 16.1831C3.58878 17.6304 3.69204 18.9488 4.31363 19.8535C4.56715 20.2783 4.94753 20.6128 5.40121 20.81C5.62053 20.8945 5.84542 20.9637 6.07429 21.0171C6.83695 21.1831 7.62894 21.1564 8.37872 20.9396C10.8639 20.2674 13.7127 17.5535 13.687 14.9946C13.7127 12.4872 11.8746 11.7893 9.80298 12.2287" fill="#434343"/>
<path d="M34.169 22.1017C33.4699 22.7739 32.5894 22.9807 32.1752 22.5931C31.7868 22.2053 31.9939 21.2748 32.693 20.6026C33.3921 19.9304 34.2986 19.6721 34.7125 20.0597C35.1264 20.4473 34.8678 21.4295 34.169 22.1011" fill="#434343"/>
<path d="M29.8709 23.3685C28.9389 24.197 27.7478 24.4026 27.2558 23.8597C26.7898 23.3171 27.1523 22.2055 28.1102 21.3783C29.0682 20.5771 30.1813 20.3443 30.6739 20.8872C31.1659 21.4558 30.8289 22.5413 29.8709 23.3685Z" fill="#434343"/>
<path d="M24.1225 25.1266C22.8532 26.2136 21.2739 26.4964 20.6269 25.7727C19.9798 25.0491 20.4973 23.5757 21.7659 22.4887C23.0346 21.4017 24.5367 21.1189 25.184 21.8426C25.8571 22.5662 25.3911 24.0396 24.1225 25.1266Z" fill="#656565"/>
<path d="M17.0526 22.6967C14.5151 21.973 10.5015 25.2041 11.0713 27.7372C11.2009 28.3059 12.0032 28.8227 12.6248 28.9006C15.1624 29.1588 18.0095 26.471 18.166 24.5319C18.1447 24.3085 18.1362 24.0841 18.1405 23.8597C18.0765 23.5877 17.9424 23.3373 17.7515 23.1332C17.5607 22.9291 17.3197 22.7788 17.0526 22.6967Z" fill="#434343"/>
<path d="M10.2434 25.5139C9.77709 23.6014 7.44691 23.7565 5.89425 24.1958C5.29972 24.3382 4.72562 24.5553 4.18567 24.842C3.42321 25.212 2.7242 25.7005 2.11466 26.2893C1.3617 27.0133 0.0927678 28.6159 0.351643 30.1668C0.610519 31.794 2.68212 32.286 4.52058 31.8467C6.74721 31.3556 10.9425 28.4866 10.2434 25.5139Z" fill="#434343"/>
<path d="M49.162 12.1243C48.8253 11.1423 48.8511 9.7722 47.22 9.79794C45.6144 9.84942 44.8635 10.8834 44.8635 12.1503C44.8635 14.1917 50.0425 14.5799 50.431 18.716C50.6641 21.1973 48.2555 25.2817 43.4135 25.3331C41.4455 25.3331 38.9857 24.4542 38.96 20.3187L42.4552 19.5698C42.4813 20.6039 42.4037 22.4648 44.3975 22.4648C45.925 22.4648 46.702 21.0447 46.8313 19.9056C47.1162 17.321 41.3419 16.5713 41.3677 13.2627C41.4197 10.1607 43.4132 6.98137 48.1777 7.00711C52.9165 7.03315 52.2688 11.2722 52.2688 11.2722L49.1623 12.1252L49.162 12.1243Z" fill="#434343"/>
<path fill-rule="evenodd" clip-rule="evenodd" d="M56.3071 14.787L54.4432 22.1278C54.8574 22.774 55.3757 23.1098 56.0488 23.0843C56.2842 23.0883 56.5172 23.0364 56.7287 22.9331C56.9403 22.8297 57.1243 22.6778 57.2659 22.4897C57.6544 22.0503 58.0429 21.1973 58.3535 19.879L59.0787 17.0355C59.3896 15.7432 59.4671 14.8642 59.2858 14.4506C59.2313 14.2591 59.1098 14.0937 58.9434 13.9845C58.777 13.8753 58.5768 13.8297 58.3795 13.8559C57.7322 13.8305 57.0591 14.1408 56.3071 14.787ZM54.029 11.7627H56.8257L56.4115 13.39H56.4636C56.9391 12.8936 57.4896 12.475 58.0949 12.1494C58.7254 11.779 59.4357 11.5659 60.1659 11.5281C61.331 11.5281 62.0819 11.9935 62.3929 12.8982C62.7038 13.803 62.626 15.121 62.1597 16.853L61.3313 20.1101C60.9171 21.816 60.3216 23.1601 59.5446 24.0648C59.1945 24.4954 58.7523 24.842 58.2505 25.0791C57.7488 25.3162 57.2002 25.4377 56.6452 25.4346C56.2251 25.4327 55.8134 25.3166 55.4541 25.0988C54.9172 24.7819 54.4214 24.3999 53.9781 23.9615L52.0878 31.4059H49.084L54.0295 11.761L54.029 11.7627ZM80.4665 16.3897H77.4369L77.5923 15.795C77.664 15.5959 77.6827 15.3815 77.6463 15.173C77.61 14.9645 77.52 14.7691 77.3852 14.6059C77.2259 14.4585 77.0378 14.3457 76.8329 14.2744C76.6279 14.2031 76.4104 14.175 76.194 14.1917C75.6952 14.174 75.2042 14.3195 74.7955 14.6059C74.3961 14.8952 74.1117 15.3163 73.9929 15.795L72.6461 21.1204C72.5772 21.3184 72.5576 21.5302 72.5892 21.7374C72.6208 21.9446 72.7024 22.141 72.8272 22.3095C72.9898 22.4504 73.179 22.5574 73.3836 22.624C73.5883 22.6906 73.8042 22.7156 74.0186 22.6973C74.513 22.7112 75.0002 22.576 75.4168 22.3095C75.8166 22.0254 76.0942 21.6006 76.1937 21.1204L76.4008 20.292H79.4565V20.3432C78.9902 22.1009 78.2393 23.3935 77.2035 24.195C76.168 25.0234 74.8733 25.4098 73.3452 25.384C71.8177 25.4098 70.7041 24.9962 70.0825 24.195C69.4352 23.3666 69.3574 22.1009 69.7716 20.3432L70.7041 16.5953C71.1701 14.8376 71.9213 13.5453 72.9568 12.7438C74.065 11.9074 75.4276 11.4784 76.815 11.529C78.3171 11.503 79.3787 11.9169 80.026 12.6917C80.7251 13.4417 80.8544 14.6823 80.4659 16.3882M91.3417 19.2056H84.7145L84.2739 20.9894C84.1186 21.6613 84.1704 22.1266 84.4293 22.4367C84.5754 22.5976 84.7563 22.7231 84.9581 22.8036C85.16 22.8842 85.3776 22.9178 85.5943 22.9018C86.1464 22.923 86.6851 22.7284 87.0961 22.3592C87.4779 21.9983 87.7399 21.5291 87.847 21.0148H90.9026C90.5617 22.2991 89.8063 23.4348 88.7535 24.2456C87.7437 25.0213 86.4754 25.3834 84.947 25.4092C83.471 25.3834 82.4094 24.9698 81.7624 24.1426C81.1153 23.3154 80.9594 22.1521 81.2961 20.653L82.4097 16.2846C82.7364 14.9169 83.5111 13.6977 84.6106 12.821C85.7093 11.98 87.0594 11.5338 88.4429 11.5544C89.8671 11.5802 90.9281 11.9938 91.602 12.7953C92.2751 13.6237 92.4565 14.7083 92.1458 16.1042L91.3417 19.2056ZM85.3358 16.6982H88.9088L89.0902 15.9488C89.1716 15.7184 89.2067 15.4742 89.1934 15.2301C89.1801 14.9861 89.1187 14.7471 89.0127 14.5269C88.8056 14.1911 88.3914 14.0101 87.7701 14.0101C87.2298 13.9851 86.7008 14.1704 86.294 14.5269C85.8925 14.9078 85.6209 15.4052 85.5174 15.9488L85.3358 16.6982ZM109.546 19.2056H102.917L102.477 20.9894C102.322 21.6613 102.373 22.1266 102.632 22.4367C102.778 22.5976 102.959 22.723 103.161 22.8036C103.363 22.8842 103.58 22.9178 103.797 22.9018C104.356 22.918 104.901 22.7245 105.325 22.3592C105.69 21.9892 105.941 21.5228 106.05 21.0148H109.106C108.764 22.2923 108.02 23.4254 106.982 24.2456C105.973 25.0213 104.73 25.3834 103.176 25.4092C101.7 25.3834 100.639 24.9698 99.9914 24.1426C99.344 23.3154 99.1887 22.1521 99.5254 20.653L100.613 16.2586C100.94 14.8908 101.714 13.6716 102.814 12.795C103.913 11.954 105.263 11.5078 106.646 11.5284C108.096 11.5544 109.131 11.9678 109.805 12.7692C110.478 13.5976 110.66 14.6823 110.323 16.0781L109.546 19.2059L109.546 19.2056ZM103.565 16.6982H107.138L107.319 15.9488C107.401 15.7184 107.436 15.4742 107.422 15.2301C107.409 14.9861 107.348 14.7471 107.242 14.5269C107.035 14.1911 106.62 14.0101 106.025 14.0101C105.477 13.9898 104.942 14.1741 104.522 14.5269C104.122 14.9127 103.843 15.4068 103.72 15.9488L103.565 16.6982ZM113.016 14.8639H111.436L112.058 12.3565H113.637L114.802 7.70386H117.858L116.692 12.3571H118.66L118.038 14.8645H116.07L114.361 21.7142C114.311 21.8449 114.304 21.9883 114.341 22.1233C114.379 22.2583 114.458 22.3778 114.568 22.4642C114.843 22.6481 115.17 22.7386 115.501 22.7225C115.708 22.7225 115.915 22.6968 116.122 22.6968L115.475 25.3071C114.883 25.3887 114.286 25.4319 113.688 25.4364C112.678 25.4364 111.927 25.2293 111.461 24.842C110.995 24.4278 110.866 23.7305 111.073 22.774L113.015 14.8645L113.016 14.8639Z" fill="#434343"/>
<path d="M93.9053 21.0437L96.0805 12.4343L97.2716 7.7041H100.327L99.137 12.4343L95.4331 26.7032C94.9669 28.4609 94.216 29.7278 93.1802 30.529C92.1447 31.3574 90.85 31.7437 89.3222 31.7437C87.7686 31.7437 86.6811 31.3559 86.0595 30.529C85.4121 29.7006 85.3086 28.4349 85.7485 26.6772L88.8302 26.6514L88.597 27.4526C88.4935 27.9695 88.545 28.3571 88.8041 28.6159C88.9648 28.7613 89.1531 28.8729 89.3578 28.944C89.5625 29.0152 89.7793 29.0445 89.9956 29.0301C90.4926 29.0353 90.9797 28.891 91.3938 28.6159C91.7924 28.3371 92.0773 27.924 92.1964 27.4523L92.4814 26.3671L93.9053 21.0417V21.0437Z" fill="#434343"/>
<path fill-rule="evenodd" clip-rule="evenodd" d="M66.0201 11.7626H69.0754L65.708 25.152H62.6523L66.0201 11.7626ZM69.4121 10.5218H66.3825L67.0813 7.70435H70.1112L69.4121 10.5218Z" fill="#434343"/>
</g>
<defs>
<clipPath id="clip0_229_1999">
<rect width="118.343" height="32" fill="white" transform="translate(0.317383)"/>
</clipPath>
</defs>
</svg>
