<svg width="130" height="32" viewBox="0 0 130 32" fill="none" xmlns="http://www.w3.org/2000/svg">
<g clip-path="url(#clip0_229_2040)">
<path d="M7.94277 12.3717L6.23776 26.5576L5.25793 29.7509C5.09253 30.3957 4.73885 30.9767 4.24197 31.4198C3.6961 31.847 3.00997 32.0542 2.31888 32.0004H-0.00292969L2.35545 12.3717L1.23067 12.1179C0.935879 12.0523 0.661736 11.9152 0.432356 11.7188C0.319672 11.6202 0.231501 11.4967 0.174834 11.3582C0.118166 11.2196 0.0945619 11.0697 0.105892 10.9204C0.100123 10.846 0.112521 10.7714 0.14202 10.7028L0.432356 8.45325H2.82643L2.97137 7.36504C3.09133 6.33823 3.39881 5.34218 3.87851 4.42643C4.78373 2.69409 6.31435 1.37123 8.15954 0.726501C9.15182 0.384295 10.1948 0.212256 11.2444 0.217652C11.6444 0.221572 12.0439 0.245834 12.4414 0.290345C12.8045 0.363038 13.1671 0.435295 13.5297 0.544116L13.0221 3.41047C13.0093 3.55225 12.954 3.68685 12.8633 3.79661C12.7727 3.90638 12.6509 3.98617 12.5141 4.02553C12.2469 4.12333 11.9643 4.17243 11.6797 4.17048C10.8597 4.12513 10.0539 4.39801 9.43014 4.93223C8.88603 5.44021 8.523 6.31078 8.37805 7.54394L8.26923 8.45107H12.115L11.607 12.3329H7.94277V12.3717Z" fill="#434343"/>
<path d="M26.9895 27.5013H23.9425C23.6334 27.5153 23.3247 27.466 23.0353 27.3563C22.82 27.2742 22.6228 27.1509 22.4547 26.9933C22.302 26.8332 22.2008 26.6309 22.1643 26.4126C22.1204 26.1732 22.0961 25.9305 22.0916 25.687V24.345C21.3817 25.3425 20.4968 26.2031 19.4799 26.8849C18.5417 27.4939 17.4433 27.8096 16.325 27.7916C15.6407 27.7854 14.9637 27.6499 14.3296 27.3925C13.682 27.1036 13.1013 26.6835 12.6242 26.1589C12.0887 25.5364 11.6928 24.8065 11.4633 24.0181C11.156 23.0323 11.0091 22.0036 11.028 20.9711C11.0218 19.2928 11.3422 17.6293 11.9712 16.0733C12.5759 14.5566 13.4762 13.1753 14.62 12.0099C15.7598 10.8255 17.1296 9.88652 18.6455 9.25065C20.2604 8.55675 22.0034 8.21102 23.761 8.236C24.6829 8.24345 25.6036 8.30405 26.5185 8.41752C27.4599 8.52729 28.3853 8.74641 29.276 9.07045L26.9895 27.5013ZM18.6093 23.2925C19.0529 23.2886 19.4793 23.1207 19.8064 22.8211C20.2435 22.4574 20.6228 22.0292 20.9312 21.5514C21.3086 20.9503 21.6361 20.3194 21.9106 19.6649C22.2131 18.9076 22.4675 18.132 22.6723 17.3426L23.3252 12.0818H22.9988C22.1147 12.075 21.2426 12.2869 20.4602 12.6986C19.6877 13.1129 19.0183 13.6956 18.5014 14.4036C17.9359 15.1582 17.5058 16.0054 17.2304 16.9073C16.9337 17.8955 16.787 18.9226 16.7951 19.9543C16.7806 20.4783 16.8294 21.0021 16.9405 21.5144C17.0166 21.8841 17.1513 22.2393 17.3396 22.5665C17.4849 22.8029 17.6838 23.0018 17.9203 23.1471C18.1391 23.2373 18.3727 23.2866 18.6093 23.2925Z" fill="#434343"/>
<path d="M29.8564 27.5013L32.1426 8.45368H35.0812C35.5722 8.43079 36.0569 8.57115 36.4597 8.85283C36.6373 9.02591 36.7748 9.23579 36.8626 9.46772C36.9503 9.69964 36.9862 9.94797 36.9677 10.1953V12.3717C37.5622 11.2321 38.3757 10.221 39.3618 9.3965C40.097 8.75163 41.0323 8.38019 42.0096 8.34485C42.539 8.34385 43.0611 8.46826 43.5331 8.70788L42.5189 13.9683C41.9572 13.723 41.3538 13.5876 40.7412 13.5691C40.2558 13.5815 39.7793 13.7019 39.3463 13.9216C38.9132 14.1412 38.5346 14.4546 38.2379 14.8389C37.5122 15.6733 36.932 17.0519 36.4602 18.9388L35.4438 27.5013H29.8564Z" fill="#434343"/>
<path d="M42.8818 27.5014L45.2041 8.45371H48.1427C48.6337 8.43083 49.1184 8.57118 49.5212 8.85287C49.6988 9.02595 49.8363 9.23583 49.9241 9.46775C50.0118 9.69968 50.0477 9.94801 50.0292 10.1953V11.3192C50.7043 10.3568 51.5685 9.54216 52.5691 8.92513C53.4144 8.41914 54.3777 8.14387 55.3628 8.12681C55.8578 8.11486 56.3502 8.20175 56.8112 8.3824C57.2722 8.56305 57.6925 8.83383 58.0476 9.1789C58.7732 9.86839 59.2085 10.8843 59.39 12.2259C60.0765 11.0014 61.0167 9.93759 62.1476 9.10577C63.1633 8.45102 64.3496 8.11035 65.558 8.12638C66.217 8.11036 66.8718 8.23423 67.4794 8.48984C68.0615 8.73443 68.5729 9.12116 68.9667 9.61462C69.4016 10.1487 69.7226 10.7661 69.91 11.4289C70.1398 12.2307 70.2498 13.0621 70.2365 13.8961C70.2417 14.1385 70.2296 14.381 70.2003 14.6217C70.1642 14.8755 70.1642 15.1297 70.1277 15.3835L68.7143 27.4652H63.1265L64.5416 15.3835C64.5778 15.1658 64.5778 14.9843 64.6143 14.8028C64.6143 14.6213 64.6505 14.4763 64.6505 14.2948C64.6845 13.8404 64.5835 13.3861 64.3601 12.9889C64.2569 12.8605 64.1231 12.76 63.971 12.6966C63.819 12.6332 63.6534 12.6089 63.4895 12.6259C63.1085 12.6321 62.7348 12.7318 62.4013 12.9163C62.0253 13.1455 61.6934 13.4403 61.4215 13.7868C61.0862 14.2163 60.7946 14.6781 60.5509 15.1654C60.2875 15.7562 60.0575 16.3613 59.8619 16.9779L58.6283 27.3925H53.0044L54.4208 15.3108C54.4569 15.0931 54.4569 14.9116 54.4935 14.7301C54.4935 14.5486 54.5296 14.4036 54.5296 14.2221C54.5637 13.7677 54.4627 13.3134 54.2393 12.9163C54.136 12.7879 54.0022 12.6875 53.8502 12.6242C53.6981 12.5608 53.5326 12.5366 53.3687 12.5537C52.9821 12.5554 52.6042 12.6687 52.2805 12.8801C51.8912 13.1205 51.5473 13.4276 51.2646 13.7873C50.9294 14.2298 50.6378 14.7037 50.394 15.2024C50.1246 15.8037 49.8943 16.4218 49.7045 17.0528L48.4692 27.3925H42.8818V27.5014Z" fill="#434343"/>
<path d="M80.6142 0L78.7277 15.4195H79.1268C79.3891 15.4387 79.6518 15.3886 79.8886 15.2742C80.1167 15.1336 80.3142 14.9485 80.4693 14.7301L84.3868 9.36038C84.5746 9.06661 84.8376 8.82852 85.1486 8.67088C85.4651 8.5186 85.8134 8.44398 86.1645 8.45324H91.28L85.9839 15.238C85.7557 15.5501 85.4872 15.8307 85.1856 16.0725C84.9009 16.3137 84.5975 16.532 84.2784 16.7254C84.5328 16.9315 84.7531 17.1764 84.9314 17.451C85.1295 17.749 85.2996 18.0648 85.4393 18.3943L89.249 27.5009H84.2789C83.9277 27.5102 83.5794 27.4356 83.2629 27.2832C82.9859 27.1126 82.7699 26.8586 82.6461 26.5576L79.9974 19.8107C79.9091 19.5804 79.7584 19.3793 79.5621 19.23C79.328 19.1077 79.063 19.0573 78.8004 19.0851H78.2197L77.2042 27.5009H71.582L74.9546 0.0361287H80.6133L80.6142 0Z" fill="#434343"/>
<path d="M105.104 27.5014H102.057C101.748 27.5154 101.439 27.4661 101.15 27.3564C100.935 27.2743 100.737 27.151 100.569 26.9934C100.417 26.8333 100.315 26.631 100.279 26.4127C100.217 26.1761 100.193 25.9313 100.206 25.6871V24.3451C99.4963 25.3426 98.6114 26.2031 97.5945 26.885C96.6559 27.4945 95.5568 27.8103 94.4378 27.7921C93.7535 27.7858 93.0765 27.6504 92.4425 27.393C91.795 27.104 91.2145 26.684 90.7375 26.1594C90.2151 25.528 89.8208 24.8009 89.5766 24.0186C89.2693 23.0328 89.1223 22.0041 89.1413 20.9716C89.1351 19.2933 89.4555 17.6298 90.0845 16.0738C90.6892 14.5571 91.5896 13.1758 92.7332 12.0104C93.8738 10.8265 95.2442 9.88809 96.7605 9.2529C98.3753 8.55854 100.118 8.21236 101.876 8.23694C102.798 8.24439 103.719 8.30499 104.634 8.41845C105.575 8.52828 106.501 8.7474 107.391 9.07138L105.104 27.5014ZM96.7231 23.2926C97.1667 23.2887 97.5933 23.1208 97.9205 22.8212C98.3577 22.4574 98.737 22.0293 99.0453 21.5514C99.4229 20.9504 99.7506 20.3195 100.025 19.6649C100.328 18.9076 100.582 18.132 100.787 17.3427L101.44 12.0818H101.113C100.229 12.0749 99.3563 12.2868 98.5735 12.6986C97.801 13.113 97.1316 13.6957 96.6147 14.4036C96.0497 15.1582 95.62 16.0053 95.345 16.907C95.0483 17.8951 94.9016 18.9222 94.9097 19.954C94.8951 20.4779 94.9438 21.0017 95.0546 21.514C95.1307 21.8837 95.2655 22.2389 95.4538 22.5661C95.5993 22.8031 95.7987 23.0023 96.0358 23.1476C96.2541 23.2375 96.487 23.2866 96.7231 23.2926Z" fill="#434343"/>
<path d="M107.971 27.5013L110.292 8.45362H113.232C113.723 8.43073 114.208 8.5711 114.611 8.85278C114.788 9.0259 114.925 9.2358 115.013 9.46772C115.101 9.69964 115.137 9.94795 115.118 10.1952V12.3716C115.713 11.2322 116.526 10.2213 117.512 9.39645C118.248 8.75142 119.183 8.37983 120.161 8.34436C120.69 8.34353 121.212 8.46792 121.684 8.70739L120.668 13.9683C120.107 13.723 119.504 13.5875 118.891 13.5691C118.406 13.5814 117.929 13.7017 117.496 13.9214C117.063 14.141 116.684 14.4544 116.388 14.8388C115.661 15.6733 115.082 17.0518 114.61 18.9388L113.558 27.5013H107.971Z" fill="#434343"/>
<path d="M122.845 23.3652V23.0387C122.843 22.8687 122.855 22.6987 122.881 22.5308C122.89 22.2257 122.926 21.9221 122.99 21.6236C123.026 21.261 123.099 20.7531 123.172 20.1363L124.152 12.3355H122.628C122.414 12.3413 122.206 12.2632 122.048 12.1179C121.878 11.9289 121.788 11.6822 121.794 11.4284C121.798 11.3188 121.81 11.2097 121.83 11.1019C121.867 10.8843 121.867 10.7028 121.903 10.449C121.939 10.2313 121.939 10.0137 121.976 9.83218C121.999 9.7249 122.011 9.61549 122.012 9.50572L122.085 8.99774L124.951 8.41707L126.546 3.77301C126.618 3.50699 126.781 3.27445 127.006 3.11551C127.231 2.95657 127.505 2.88122 127.779 2.90244H130.863L130.174 8.45364H134.419L133.947 12.3355H129.702L128.795 19.8094C128.722 20.3173 128.686 20.7165 128.65 21.0068C128.613 21.2972 128.577 21.5148 128.577 21.6598C128.551 21.7665 128.538 21.8763 128.541 21.9862V22.095C128.525 22.4169 128.614 22.7353 128.795 23.0022C128.885 23.1262 129.006 23.2247 129.146 23.2883C129.286 23.3519 129.44 23.3784 129.593 23.3652C129.753 23.3646 129.912 23.3401 130.065 23.2925C130.179 23.2581 130.289 23.2094 130.391 23.1476C130.48 23.0849 130.578 23.0358 130.682 23.0022C130.772 22.9568 130.871 22.932 130.972 22.9295C131.113 22.9216 131.253 22.9598 131.371 23.0383C131.472 23.1466 131.558 23.2688 131.626 23.4013L132.859 26.0862C131.395 27.1555 129.628 27.7277 127.816 27.7189C127.14 27.7193 126.468 27.6215 125.82 27.4286C125.266 27.2265 124.751 26.9321 124.296 26.558C123.867 26.1802 123.532 25.7082 123.316 25.179C123.004 24.6259 122.841 24.0005 122.845 23.3652Z" fill="#434343"/>
</g>
<defs>
<clipPath id="clip0_229_2040">
<rect width="174.114" height="32" fill="white" transform="translate(-0.00195312)"/>
</clipPath>
</defs>
</svg>
