<svg width="117" height="36" viewBox="0 0 117 36" fill="none" xmlns="http://www.w3.org/2000/svg">
<path d="M28.8506 9.31062L22.6304 3.0904C21.1773 1.63736 18.8214 1.63736 17.3683 3.0904L5.08978 15.369C3.63674 16.822 3.63674 19.178 5.08978 20.631L17.3683 32.9102C18.8214 34.3633 21.1773 34.3633 22.6304 32.9102L35.8332 19.7073C36.4632 19.0774 36.0171 18.0003 35.1262 18.0002L22.6048 17.9998C21.7139 17.9997 21.2677 16.9226 21.8977 16.2927C24.2383 13.9521 26.5787 11.6117 28.9194 9.27093C30.9796 7.21075 33.0404 5.14995 35.1005 3.08978C36.5536 1.63674 38.9096 1.63674 40.3626 3.08978L52.6418 15.369C54.0948 16.822 54.0948 19.178 52.6418 20.631L40.3626 32.9102C38.9096 34.3633 36.5536 34.3633 35.1005 32.9102C33.0491 30.8587 30.9976 28.8072 28.9461 26.7557" stroke="url(#paint0_linear_2152_53674)" stroke-width="3.5" stroke-miterlimit="10" stroke-linecap="round"/>
<path d="M28.8506 9.31062L22.6304 3.0904C21.1773 1.63736 18.8214 1.63736 17.3683 3.0904L5.08978 15.369C3.63674 16.822 3.63674 19.178 5.08978 20.631L17.3683 32.9102C18.8214 34.3633 21.1773 34.3633 22.6304 32.9102L35.8332 19.7073C36.4632 19.0774 36.0171 18.0003 35.1262 18.0002L22.6048 17.9998C21.7139 17.9997 21.2677 16.9226 21.8977 16.2927C24.2383 13.9521 26.5787 11.6117 28.9194 9.27093C30.9796 7.21075 33.0404 5.14995 35.1005 3.08978C36.5536 1.63674 38.9096 1.63674 40.3626 3.08978L52.6418 15.369C54.0948 16.822 54.0948 19.178 52.6418 20.631L40.3626 32.9102C38.9096 34.3633 36.5536 34.3633 35.1005 32.9102C33.0491 30.8587 30.9976 28.8072 28.9461 26.7557" stroke="#A100FF" stroke-width="3.5" stroke-miterlimit="10" stroke-linecap="round"/>
<path d="M61.0534 3.355C61.8674 3.355 62.5788 3.51267 63.1874 3.828C63.8034 4.136 64.2764 4.58333 64.6064 5.17C64.9438 5.74933 65.1124 6.42767 65.1124 7.205C65.1124 7.98233 64.9438 8.657 64.6064 9.229C64.2764 9.801 63.8034 10.241 63.1874 10.549C62.5788 10.8497 61.8674 11 61.0534 11H58.5564V3.355H61.0534ZM61.0534 9.977C61.9481 9.977 62.6338 9.735 63.1104 9.251C63.5871 8.767 63.8254 8.085 63.8254 7.205C63.8254 6.31767 63.5871 5.62467 63.1104 5.126C62.6338 4.62733 61.9481 4.378 61.0534 4.378H59.8104V9.977H61.0534ZM67.6093 3.355V11H66.3553V3.355H67.6093ZM74.7887 5.555C74.5907 5.17367 74.3157 4.88767 73.9637 4.697C73.6117 4.499 73.2047 4.4 72.7427 4.4C72.2367 4.4 71.7857 4.51367 71.3897 4.741C70.9937 4.96833 70.682 5.291 70.4547 5.709C70.2347 6.127 70.1247 6.611 70.1247 7.161C70.1247 7.711 70.2347 8.19867 70.4547 8.624C70.682 9.042 70.9937 9.36467 71.3897 9.592C71.7857 9.81933 72.2367 9.933 72.7427 9.933C73.4247 9.933 73.9783 9.74233 74.4037 9.361C74.829 8.97967 75.0893 8.46267 75.1847 7.81H72.3137V6.809H76.5267V7.788C76.446 8.382 76.2333 8.92833 75.8887 9.427C75.5513 9.92567 75.1077 10.3253 74.5577 10.626C74.015 10.9193 73.41 11.066 72.7427 11.066C72.024 11.066 71.3677 10.901 70.7737 10.571C70.1797 10.2337 69.7067 9.768 69.3547 9.174C69.01 8.58 68.8377 7.909 68.8377 7.161C68.8377 6.413 69.01 5.742 69.3547 5.148C69.7067 4.554 70.1797 4.092 70.7737 3.762C71.375 3.42467 72.0313 3.256 72.7427 3.256C73.5567 3.256 74.279 3.45767 74.9097 3.861C75.5477 4.257 76.0097 4.82167 76.2957 5.555H74.7887ZM83.4285 3.355L80.8985 8.228V11H79.6445V8.228L77.1035 3.355H78.5005L80.2715 7.106L82.0425 3.355H83.4285ZM85.6776 9.988H88.2626V11H84.4236V3.355H85.6776V9.988ZM93.9203 9.438H90.7193L90.1693 11H88.8603L91.5993 3.344H93.0513L95.7903 11H94.4703L93.9203 9.438ZM93.5683 8.415L92.3253 4.862L91.0713 8.415H93.5683ZM100.49 7.183L102.866 11H101.458L99.7313 8.228L98.1143 11H96.7173L99.0933 7.183L96.7063 3.355H98.1143L99.8523 6.149L101.48 3.355H102.877L100.49 7.183Z" fill="black"/>
<path d="M57.5714 25.6C57.5714 23.952 57.9394 22.48 58.6754 21.184C59.4274 19.872 60.4434 18.856 61.7234 18.136C63.0194 17.4 64.4674 17.032 66.0674 17.032C67.9394 17.032 69.5794 17.512 70.9874 18.472C72.3954 19.432 73.3794 20.76 73.9394 22.456H70.0754C69.6914 21.656 69.1474 21.056 68.4434 20.656C67.7554 20.256 66.9554 20.056 66.0434 20.056C65.0674 20.056 64.1954 20.288 63.4274 20.752C62.6754 21.2 62.0834 21.84 61.6514 22.672C61.2354 23.504 61.0274 24.48 61.0274 25.6C61.0274 26.704 61.2354 27.68 61.6514 28.528C62.0834 29.36 62.6754 30.008 63.4274 30.472C64.1954 30.92 65.0674 31.144 66.0434 31.144C66.9554 31.144 67.7554 30.944 68.4434 30.544C69.1474 30.128 69.6914 29.52 70.0754 28.72H73.9394C73.3794 30.432 72.3954 31.768 70.9874 32.728C69.5954 33.672 67.9554 34.144 66.0674 34.144C64.4674 34.144 63.0194 33.784 61.7234 33.064C60.4434 32.328 59.4274 31.312 58.6754 30.016C57.9394 28.72 57.5714 27.248 57.5714 25.6ZM85.4493 34L81.7533 27.472H80.1693V34H76.8093V17.248H83.0973C84.3933 17.248 85.4973 17.48 86.4093 17.944C87.3213 18.392 88.0013 19.008 88.4493 19.792C88.9133 20.56 89.1453 21.424 89.1453 22.384C89.1453 23.488 88.8253 24.488 88.1853 25.384C87.5453 26.264 86.5933 26.872 85.3293 27.208L89.3373 34H85.4493ZM80.1693 24.952H82.9773C83.8893 24.952 84.5693 24.736 85.0173 24.304C85.4653 23.856 85.6893 23.24 85.6893 22.456C85.6893 21.688 85.4653 21.096 85.0173 20.68C84.5693 20.248 83.8893 20.032 82.9773 20.032H80.1693V24.952ZM110.448 17.248V34H107.088V23.104L102.6 34H100.056L95.5443 23.104V34H92.1843V17.248H96.0003L101.328 29.704L106.656 17.248H110.448Z" fill="black"/>
<defs>
<linearGradient id="paint0_linear_2152_53674" x1="29" y1="2" x2="28.8658" y2="34" gradientUnits="userSpaceOnUse">
<stop stop-color="#008CFF"/>
<stop offset="1" stop-color="#002991"/>
</linearGradient>
</defs>
</svg>
