<svg width="32" height="32" viewBox="0 0 32 32" fill="none" xmlns="http://www.w3.org/2000/svg">
<rect width="32" height="32" rx="6" fill="#FFF9E8"/>
<mask id="path-2-outside-1_514_4714" maskUnits="userSpaceOnUse" x="2" y="3" width="27" height="26" fill="black">
<rect fill="white" x="2" y="3" width="27" height="26"/>
<path fill-rule="evenodd" clip-rule="evenodd" d="M15.9834 4C16.1333 4 16.3928 4.02008 16.5601 4.05021C16.7273 4.07699 16.9926 4.15063 17.1512 4.21088C17.3097 4.27448 17.5375 4.37824 17.6558 4.44854C17.774 4.51883 17.9499 4.63598 18.045 4.70962C18.1402 4.78661 18.3218 4.96402 18.4487 5.1046C18.5756 5.24519 18.7457 5.4728 18.8264 5.60669C18.9071 5.74393 19.0196 5.96151 19.0744 6.0887C19.1321 6.2159 19.2099 6.43682 19.2474 6.57406C19.2878 6.7113 19.3397 6.91213 19.3598 7.01925C19.3944 7.18996 19.3944 7.21674 19.357 7.24351C19.3339 7.2636 19.2157 7.27699 19.0975 7.27699C18.9792 7.27699 18.8149 7.2569 18.737 7.23013C18.6592 7.20669 18.5352 7.15649 18.4631 7.11967C18.391 7.08619 18.2497 6.98912 18.1459 6.90879C18.0421 6.82845 17.8864 6.67782 17.797 6.57741C17.7077 6.47364 17.5952 6.30628 17.5462 6.20586C17.4914 6.0954 17.4539 5.9749 17.4539 5.9046C17.4539 5.841 17.4309 5.73389 17.402 5.67029C17.3761 5.60669 17.3069 5.51967 17.2521 5.47615C17.1858 5.42594 17.1079 5.40251 17.0272 5.40251C16.9609 5.40251 16.8571 5.42929 16.7994 5.46276C16.7417 5.49289 16.6696 5.56318 16.6408 5.62008C16.612 5.67699 16.5889 5.74393 16.5889 5.77071C16.5889 5.79749 16.5687 5.90126 16.5456 5.99833C16.5139 6.12887 16.4591 6.22594 16.3207 6.39331C16.2227 6.51715 16.0382 6.69456 15.9113 6.79498C15.7844 6.89205 15.5711 7.02929 15.4355 7.10293C15.3 7.17657 15.0492 7.28703 14.8733 7.35397C14.6974 7.42092 14.4264 7.5046 14.2678 7.54142C14.1092 7.57824 13.8381 7.62176 13.6623 7.64184C13.4864 7.66192 13.2355 7.67866 13.1 7.67866C12.9645 7.67866 12.7915 7.66862 12.5723 7.62845L12.5925 7.42761C12.6012 7.31715 12.6386 7.08285 12.679 6.90879C12.7165 6.73473 12.7857 6.47699 12.8376 6.33975C12.8866 6.20251 12.9847 5.9749 13.0539 5.83766C13.1231 5.70042 13.2701 5.46611 13.3768 5.32218C13.4864 5.1749 13.694 4.95063 13.8353 4.82678C13.9765 4.69958 14.2245 4.52218 14.3831 4.4318C14.5417 4.34142 14.7897 4.22762 14.9309 4.18075C15.0722 4.13054 15.3087 4.07364 15.45 4.04686C15.5912 4.02343 15.8335 4.00335 15.9834 4ZM16.9839 7.07615C16.9897 7.07615 17.0618 7.15983 17.1425 7.2636C17.2261 7.36736 17.3991 7.54142 17.526 7.65188C17.6529 7.76234 17.8461 7.90628 17.9585 7.97322C18.071 8.03682 18.2497 8.12385 18.3622 8.16736C18.4746 8.21088 18.6678 8.26443 18.7947 8.28452C18.9216 8.30795 19.1205 8.31464 19.4435 8.28117V8.39163C19.4435 8.44854 19.4233 8.69289 19.4002 8.93389C19.3743 9.1749 19.3224 9.5431 19.282 9.75397C19.2416 9.96485 19.1695 10.2828 19.1205 10.4569C19.0744 10.631 18.9533 10.9724 18.8524 11.21C18.7543 11.4477 18.59 11.7791 18.4891 11.9431C18.3881 12.1071 18.2007 12.3548 18.0738 12.4954C17.947 12.636 17.7336 12.8268 17.5981 12.9205C17.4626 13.0142 17.2636 13.1347 17.1512 13.1849C17.0387 13.2351 16.8398 13.3021 16.7042 13.3356C16.5687 13.369 16.3496 13.4059 16.2141 13.4192C16.0757 13.4326 15.8363 13.4226 15.6662 13.4025C15.499 13.3791 15.2539 13.3255 15.1184 13.282C14.9828 13.2385 14.7551 13.1347 14.6138 13.051C14.4725 12.9707 14.2505 12.8067 14.1236 12.6895C13.9967 12.5724 13.8151 12.3715 13.7228 12.2444C13.6277 12.1172 13.4921 11.9096 13.42 11.7791C13.3508 11.6485 13.224 11.3808 13.1404 11.1766C13.0567 10.9724 12.9558 10.6879 12.9126 10.5406C12.8722 10.3933 12.8059 10.1289 12.7684 9.95481C12.7309 9.78075 12.679 9.49958 12.6559 9.33556C12.6329 9.17155 12.6069 8.95397 12.581 8.68284H13.1144C13.4345 8.68284 13.7891 8.66276 13.9996 8.62929C14.1957 8.59916 14.5244 8.52552 14.7291 8.46527C14.9338 8.40502 15.2337 8.30126 15.3923 8.23096C15.5509 8.16402 15.8161 8.02343 15.9834 7.92301C16.1506 7.82259 16.3842 7.65858 16.5024 7.56151C16.6206 7.46109 16.7763 7.31046 16.8484 7.22678C16.9176 7.1431 16.9782 7.07615 16.9839 7.07615ZM6.23463 8.42176L6.37303 8.47531C6.448 8.50544 6.5691 8.57573 6.64119 8.63264C6.71039 8.68619 6.81996 8.81004 6.87763 8.90042C6.93818 8.99414 7.01315 9.16485 7.04486 9.28536C7.10253 9.49623 7.10253 9.59665 7.10253 15.8628L7.02468 15.8393C6.97855 15.8259 6.82284 15.8059 6.40187 15.7623L6.42205 13.9548C6.43358 12.8971 6.42782 11.9331 6.4134 11.6285C6.39898 11.3439 6.36438 11.0059 6.33843 10.8753C6.31248 10.7448 6.24328 10.5372 6.18273 10.4067C6.09334 10.2192 6.07604 10.159 6.10199 10.1054C6.11641 10.0686 6.14813 9.73724 6.1712 9.36904C6.19138 9.00084 6.21445 8.63598 6.2231 8.559L6.23463 8.42176ZM25.859 8.46192C25.8648 8.46527 25.8907 8.86025 25.9657 10.2092L25.8619 10.4C25.8042 10.5071 25.7235 10.7013 25.686 10.8351C25.6485 10.969 25.6024 11.2268 25.5851 11.4042C25.5678 11.6017 25.5534 12.5356 25.5563 15.7657L25.3314 15.7891C25.2083 15.8047 25.0517 15.8248 24.8614 15.8494V12.8937C24.8642 10.9791 24.8729 9.86444 24.8931 9.72385C24.9104 9.60335 24.9623 9.4159 25.0055 9.30544C25.0517 9.19498 25.1439 9.03096 25.2131 8.94059C25.2823 8.85021 25.3977 8.72971 25.4669 8.6728C25.539 8.6159 25.6543 8.54561 25.7264 8.51548C25.7956 8.48201 25.8561 8.45858 25.859 8.46192ZM4.61705 10.159C4.643 10.1556 4.74968 10.2059 4.8506 10.2661C4.9544 10.3264 5.10146 10.4469 5.17642 10.5339C5.25139 10.6209 5.35231 10.7883 5.39845 10.9021C5.44746 11.0192 5.49936 11.1933 5.51378 11.2971C5.53397 11.4109 5.5455 12.3347 5.54262 16.0502L5.39268 16.1607C5.30906 16.2209 5.19084 16.3381 5.12741 16.4218C5.06397 16.5021 4.989 16.636 4.95729 16.7197C4.92845 16.8 4.89674 16.9439 4.88809 17.0377C4.87944 17.1381 4.89097 17.2753 4.9198 17.3891C4.94575 17.4996 5.38691 18.4368 6.02126 19.7322C6.69597 21.1113 7.11118 21.928 7.17462 21.9983C7.23517 22.0653 7.3159 22.1155 7.38222 22.1289C7.45142 22.1423 7.53504 22.1289 7.61289 22.0954C7.67921 22.0653 7.7686 21.9916 7.80608 21.9314C7.84645 21.8711 7.88682 21.7707 7.89547 21.7071C7.90988 21.6234 7.89835 21.5431 7.85798 21.4393C7.82626 21.3556 7.34474 20.3582 6.78824 19.2201C6.23175 18.0854 5.77905 17.128 5.78194 17.0979C5.78482 17.0678 5.84826 17.0075 5.91746 16.9674C5.98954 16.9238 6.12506 16.8736 6.22021 16.8536C6.31537 16.8368 6.47107 16.8201 6.56622 16.8201C6.66137 16.8201 6.84303 16.8502 6.9699 16.887C7.09677 16.9238 7.26689 16.9975 7.34474 17.0477C7.42547 17.0979 7.56676 17.2285 7.66191 17.3389C7.80031 17.4996 7.90988 17.6904 8.19534 18.2762C8.39141 18.6812 8.66245 19.2301 8.79508 19.4979C8.92772 19.7623 9.08919 20.0469 9.15839 20.1272C9.22471 20.2075 9.32851 20.3079 9.39195 20.3515C9.45538 20.395 9.56783 20.4552 9.63704 20.4854C9.70912 20.5121 9.88501 20.5523 10.0263 20.5724C10.1705 20.5925 10.3954 20.646 10.5251 20.6895C10.6549 20.7331 10.8509 20.8134 10.9576 20.8703C11.0643 20.9272 11.2546 21.0544 11.3815 21.1515C11.5084 21.2485 11.716 21.4494 11.8399 21.5933C11.9668 21.7372 12.1369 21.9782 12.2206 22.1255C12.3042 22.2728 12.4137 22.4937 12.4628 22.6176C12.5118 22.7414 12.5839 22.9757 12.6242 23.1364C12.679 23.3573 12.7396 23.8661 12.8693 25.1883C12.9645 26.1523 13.0625 27.1397 13.0856 27.3808C13.1086 27.6184 13.1346 27.8561 13.1548 28H9.83887V27.6887C9.83887 27.518 9.82157 27.2803 9.79851 27.1632C9.77832 27.0427 9.72354 26.8452 9.6774 26.728C9.62839 26.6075 9.54765 26.4335 9.49287 26.3431C9.43808 26.2494 9.32275 26.0921 9.23336 25.9916C9.14686 25.8912 8.97097 25.7305 8.8441 25.6368C8.71723 25.5397 8.53558 25.4192 8.44043 25.3623C8.34527 25.3054 8.00215 25.1381 7.67633 24.9841C7.35339 24.8335 6.98143 24.6494 6.85456 24.5757C6.72769 24.5021 6.54604 24.3816 6.45089 24.3046C6.35573 24.231 6.22886 24.1138 6.16831 24.0502C6.10488 23.9866 5.99819 23.8427 5.93187 23.7322C5.84537 23.5916 5.53685 22.8017 4 18.7113L4.00288 18.1255C4.00288 17.8008 4.02018 17.3356 4.04037 17.0879C4.05767 16.8368 4.17012 15.3305 4.28834 13.7406C4.40656 12.1473 4.51324 10.7314 4.52189 10.5941C4.53054 10.4536 4.54496 10.2996 4.55361 10.2494C4.56226 10.1925 4.58533 10.159 4.61705 10.159ZM27.4939 10.159C27.5285 10.159 27.5429 10.1858 27.5429 10.2494C27.5429 10.2996 27.5775 10.8854 27.615 11.5481C27.6554 12.2109 27.7476 13.754 27.8168 14.9791C27.8889 16.2008 27.9639 17.4527 27.9812 17.7573C28.0043 18.149 28.0071 18.3598 27.9841 18.4937C27.9668 18.5941 27.8947 18.8485 27.8255 19.0628C27.7534 19.2736 27.3613 20.3347 26.9547 21.4226C26.5453 22.5071 26.1791 23.4711 26.1358 23.5615C26.0926 23.6519 25.9888 23.8159 25.8994 23.9264C25.8129 24.0368 25.6629 24.1908 25.5678 24.2678C25.4726 24.3448 25.2794 24.4787 25.1353 24.559C24.994 24.6427 24.6422 24.8201 24.3568 24.954C24.0713 25.0879 23.7224 25.2619 23.5782 25.3389C23.437 25.4192 23.2236 25.5565 23.1025 25.6502C22.9843 25.7406 22.7968 25.928 22.6844 26.0653C22.5748 26.2025 22.4364 26.4167 22.3788 26.5439C22.3211 26.6711 22.2461 26.8753 22.2144 26.9958C22.1827 27.1163 22.1452 27.3841 22.1077 28H20.4728C19.0369 28 18.8351 27.9933 18.8351 27.9498C18.8351 27.9197 18.9273 26.9757 19.0369 25.8477C19.1465 24.7197 19.2532 23.6854 19.2705 23.5481C19.2878 23.4075 19.3397 23.1632 19.3858 23.0025C19.4319 22.8418 19.5127 22.6176 19.5617 22.5004C19.6107 22.3866 19.7058 22.2025 19.7693 22.0921C19.8327 21.9816 19.9798 21.7774 20.0922 21.6402C20.2076 21.4996 20.4007 21.3054 20.5276 21.205C20.6516 21.1046 20.8707 20.9607 21.012 20.8803C21.1562 20.8033 21.3753 20.7096 21.5022 20.6695C21.6291 20.6326 21.8424 20.5858 21.9722 20.569C22.1019 20.549 22.2778 20.5054 22.3615 20.4686C22.4451 20.4318 22.5777 20.3548 22.6556 20.2946C22.7334 20.2343 22.8459 20.1071 22.9035 20.0167C22.9612 19.923 23.2611 19.3372 23.5667 18.7113C23.9992 17.8243 24.1607 17.5264 24.2876 17.3724C24.3769 17.2619 24.5269 17.1213 24.622 17.0644C24.7143 17.0042 24.8556 16.9339 24.9334 16.9038C25.0142 16.8736 25.1901 16.8435 25.3227 16.8301C25.4957 16.8167 25.6341 16.8301 25.784 16.8669C25.9051 16.8971 26.0407 16.9473 26.0868 16.9808C26.1358 17.0142 26.1791 17.0611 26.182 17.0879C26.1877 17.1146 26.0897 17.349 25.9686 17.6067C25.8475 17.8644 25.3717 18.8418 24.9133 19.7824C24.2097 21.2184 24.0771 21.5096 24.0771 21.6234C24.0771 21.6971 24.0973 21.8008 24.1261 21.8577C24.152 21.9113 24.2212 21.995 24.2789 22.0418C24.3568 22.1021 24.4202 22.1255 24.5298 22.1255C24.6336 22.1255 24.6999 22.1021 24.7604 22.0519C24.821 22.005 24.9969 21.6803 25.2996 21.0644C25.5476 20.5623 25.9657 19.7121 26.231 19.1799C26.4962 18.6444 26.7903 18.0218 26.8884 17.7941C27.0441 17.4326 27.07 17.3523 27.0787 17.1582C27.0845 16.9874 27.0729 16.8904 27.0239 16.7364C26.9835 16.6192 26.9057 16.472 26.8365 16.3849C26.7702 16.3013 26.6548 16.1941 26.4472 16.0669V13.7573C26.4472 11.7423 26.453 11.4243 26.4934 11.2636C26.5193 11.1598 26.5741 11.0092 26.6145 10.9289C26.6577 10.8452 26.7442 10.7113 26.8076 10.631C26.8711 10.5506 26.9835 10.4368 27.0527 10.3799C27.1248 10.323 27.243 10.2527 27.3122 10.2192C27.3843 10.1891 27.4651 10.159 27.4939 10.159ZM7.99927 10.487L8.0627 10.5105C8.0973 10.5238 8.1838 10.5707 8.25301 10.6209C8.32509 10.6678 8.44331 10.7715 8.51251 10.8485C8.5846 10.9255 8.68552 11.0695 8.73453 11.1665C8.78643 11.2669 8.84987 11.4377 8.87294 11.5481C8.91042 11.7188 8.91907 12.1105 8.91907 14.3598C8.91907 16.7431 8.9133 16.9908 8.86717 17.195C8.83834 17.3188 8.8095 17.4226 8.80085 17.4226C8.79508 17.4192 8.7403 17.3255 8.68263 17.2117C8.62496 17.0979 8.51251 16.9105 8.43178 16.7933C8.35104 16.6795 8.21841 16.5289 7.99927 16.3347V10.487ZM23.9589 10.4937C23.9877 10.4904 23.9963 11.0929 23.9963 16.2979L23.8205 16.4653C23.7224 16.559 23.5696 16.7464 23.4802 16.8837C23.3908 17.0243 23.2668 17.2452 23.2034 17.3791C23.14 17.5096 23.0794 17.6201 23.0737 17.6201C23.065 17.6201 23.0419 17.5297 23.0218 17.4192C22.9987 17.282 22.9958 17.1983 23.016 17.1515C23.0333 17.1079 23.0448 16.1339 23.0448 14.4335C23.0448 12.1305 23.0506 11.7523 23.0881 11.5782C23.114 11.4678 23.1688 11.3038 23.2121 11.2134C23.2553 11.1197 23.3533 10.969 23.4341 10.8753C23.5119 10.7782 23.6561 10.6544 23.7513 10.5975C23.8464 10.5406 23.9387 10.4937 23.9589 10.4937ZM14.4235 14.0854C14.4465 14.0954 14.5763 14.1456 14.7118 14.1992C14.8444 14.2561 15.0665 14.3264 15.202 14.3598C15.3923 14.41 15.5711 14.4234 15.9949 14.4234C16.4159 14.4234 16.5975 14.41 16.7879 14.3632C16.9205 14.3297 17.1425 14.2594 17.278 14.2059C17.4107 14.1556 17.5462 14.1021 17.5721 14.092C17.6067 14.0787 17.6269 14.0921 17.6356 14.1322C17.6442 14.1623 17.7105 14.2628 17.7884 14.3531C17.8634 14.4402 17.9902 14.5573 18.071 14.6075C18.1488 14.6577 18.3103 14.7381 18.4314 14.7849C18.5496 14.8285 18.8005 14.9088 18.985 14.9623C19.256 15.0393 19.3224 15.0695 19.3079 15.1096C19.2993 15.1364 19.233 15.2803 19.158 15.4243C19.083 15.5715 18.91 15.8259 18.7745 15.9933C18.6361 16.1607 18.4285 16.3749 18.3132 16.4686C18.195 16.5623 17.9931 16.7029 17.8605 16.7799C17.7307 16.8569 17.5087 16.9607 17.3703 17.0142C17.2319 17.0711 17.0012 17.1381 16.8599 17.1682C16.7158 17.195 16.4505 17.2285 16.2688 17.2418C16.0757 17.2519 15.8075 17.2452 15.6345 17.2218C15.4673 17.2017 15.1933 17.1448 15.029 17.0979C14.8617 17.0477 14.6311 16.9674 14.5157 16.9138C14.4004 16.8603 14.2072 16.7565 14.0832 16.6862C13.9621 16.6126 13.7689 16.482 13.6594 16.3916C13.5469 16.3013 13.3681 16.1305 13.2557 16.01C13.1461 15.8929 12.9818 15.6753 12.8866 15.528C12.7915 15.3808 12.6963 15.2201 12.6761 15.1699C12.6531 15.1163 12.6386 15.0695 12.6415 15.0594C12.6473 15.0527 12.8491 14.9824 13.0971 14.9088C13.3422 14.8318 13.6334 14.7247 13.7459 14.6711C13.8554 14.6176 14.0083 14.5205 14.0832 14.4569C14.1582 14.3933 14.2562 14.2795 14.2995 14.2059C14.3485 14.1255 14.3975 14.0787 14.4235 14.0854ZM11.7188 15.3105C11.7304 15.3105 11.7967 15.431 11.863 15.5816C11.9322 15.7322 12.0649 15.9766 12.1629 16.1238C12.2609 16.2745 12.4743 16.549 12.6386 16.7331C12.803 16.9172 13.0596 17.1649 13.2124 17.282C13.3624 17.3958 13.6161 17.5665 13.7747 17.6569C13.9333 17.7439 14.2187 17.8778 14.4091 17.9515C14.5994 18.0251 14.8906 18.1188 15.0578 18.1623C15.326 18.2293 15.4413 18.236 16.0814 18.236C16.7244 18.2393 16.834 18.2293 17.105 18.1623C17.2694 18.1188 17.5231 18.0385 17.6673 17.9849C17.8086 17.928 18.0479 17.8176 18.2007 17.7339C18.3507 17.6502 18.6044 17.4828 18.763 17.359C18.9302 17.2285 19.1638 17.0042 19.3252 16.8167C19.4925 16.6226 19.677 16.3615 19.801 16.1473C19.9106 15.9531 20.0461 15.6887 20.2047 15.3172L20.4065 15.3975C20.5161 15.4444 20.692 15.5347 20.7958 15.5983C20.8967 15.6653 21.0524 15.7824 21.1418 15.8561C21.2283 15.9331 21.3696 16.0803 21.4561 16.1808C21.5397 16.2812 21.6666 16.4552 21.7329 16.5657C21.8021 16.6762 21.9088 16.8937 21.9722 17.051C22.0356 17.2084 22.1135 17.4561 22.1481 17.6033C22.1798 17.7506 22.2375 18.149 22.275 18.4904C22.3442 19.0929 22.3442 19.113 22.2951 19.2268C22.2663 19.2904 22.2115 19.3774 22.174 19.4209C22.1192 19.4812 22.027 19.5146 21.704 19.5782C21.482 19.6218 21.162 19.7121 20.9976 19.7791C20.8304 19.846 20.5824 19.9699 20.4498 20.0536C20.3142 20.1339 20.1009 20.2879 19.9769 20.3916C19.8529 20.4987 19.6511 20.6962 19.53 20.8368C19.4089 20.9741 19.2359 21.2017 19.1494 21.3389C19.06 21.4762 18.936 21.6937 18.8725 21.8209C18.812 21.9515 18.7226 22.1556 18.6736 22.2795C18.59 22.5004 18.5871 22.5038 18.4602 22.5205C18.3881 22.5305 18.0767 22.564 17.7682 22.5975C17.3472 22.6377 16.8715 22.6544 15.8796 22.6544C15.0088 22.6577 14.3687 22.641 14.0198 22.6109C13.7257 22.5874 13.4575 22.554 13.42 22.5372C13.3854 22.5205 13.3566 22.487 13.3566 22.4669C13.3566 22.4435 13.2989 22.2895 13.2326 22.1222C13.1634 21.9582 13.0452 21.7172 12.9731 21.5866C12.901 21.4594 12.7598 21.2385 12.6588 21.1013C12.5579 20.964 12.3763 20.7565 12.258 20.6393C12.1398 20.5222 11.9582 20.3615 11.8572 20.2845C11.7534 20.2042 11.5747 20.087 11.4593 20.0167C11.344 19.9498 11.1624 19.8594 11.0557 19.8126C10.949 19.7657 10.7644 19.6987 10.6462 19.6619C10.5251 19.6285 10.306 19.5782 10.156 19.5582C9.95133 19.5247 9.86194 19.4946 9.81004 19.441C9.76967 19.4008 9.6774 19.2435 9.4698 18.8084L9.539 18.3732C9.57648 18.1356 9.63992 17.8042 9.68029 17.6368C9.72065 17.4728 9.80427 17.2151 9.86194 17.0678C9.92249 16.9205 10.0148 16.7264 10.0695 16.6326C10.1214 16.5423 10.2252 16.3849 10.2973 16.2845C10.3694 16.1874 10.5078 16.0335 10.603 15.9464C10.6981 15.8594 10.8798 15.7222 11.0066 15.6418C11.1335 15.5615 11.3411 15.4544 11.468 15.4042C11.5949 15.354 11.7073 15.3105 11.7188 15.3105Z"/>
</mask>
<path fill-rule="evenodd" clip-rule="evenodd" d="M15.9834 4C16.1333 4 16.3928 4.02008 16.5601 4.05021C16.7273 4.07699 16.9926 4.15063 17.1512 4.21088C17.3097 4.27448 17.5375 4.37824 17.6558 4.44854C17.774 4.51883 17.9499 4.63598 18.045 4.70962C18.1402 4.78661 18.3218 4.96402 18.4487 5.1046C18.5756 5.24519 18.7457 5.4728 18.8264 5.60669C18.9071 5.74393 19.0196 5.96151 19.0744 6.0887C19.1321 6.2159 19.2099 6.43682 19.2474 6.57406C19.2878 6.7113 19.3397 6.91213 19.3598 7.01925C19.3944 7.18996 19.3944 7.21674 19.357 7.24351C19.3339 7.2636 19.2157 7.27699 19.0975 7.27699C18.9792 7.27699 18.8149 7.2569 18.737 7.23013C18.6592 7.20669 18.5352 7.15649 18.4631 7.11967C18.391 7.08619 18.2497 6.98912 18.1459 6.90879C18.0421 6.82845 17.8864 6.67782 17.797 6.57741C17.7077 6.47364 17.5952 6.30628 17.5462 6.20586C17.4914 6.0954 17.4539 5.9749 17.4539 5.9046C17.4539 5.841 17.4309 5.73389 17.402 5.67029C17.3761 5.60669 17.3069 5.51967 17.2521 5.47615C17.1858 5.42594 17.1079 5.40251 17.0272 5.40251C16.9609 5.40251 16.8571 5.42929 16.7994 5.46276C16.7417 5.49289 16.6696 5.56318 16.6408 5.62008C16.612 5.67699 16.5889 5.74393 16.5889 5.77071C16.5889 5.79749 16.5687 5.90126 16.5456 5.99833C16.5139 6.12887 16.4591 6.22594 16.3207 6.39331C16.2227 6.51715 16.0382 6.69456 15.9113 6.79498C15.7844 6.89205 15.5711 7.02929 15.4355 7.10293C15.3 7.17657 15.0492 7.28703 14.8733 7.35397C14.6974 7.42092 14.4264 7.5046 14.2678 7.54142C14.1092 7.57824 13.8381 7.62176 13.6623 7.64184C13.4864 7.66192 13.2355 7.67866 13.1 7.67866C12.9645 7.67866 12.7915 7.66862 12.5723 7.62845L12.5925 7.42761C12.6012 7.31715 12.6386 7.08285 12.679 6.90879C12.7165 6.73473 12.7857 6.47699 12.8376 6.33975C12.8866 6.20251 12.9847 5.9749 13.0539 5.83766C13.1231 5.70042 13.2701 5.46611 13.3768 5.32218C13.4864 5.1749 13.694 4.95063 13.8353 4.82678C13.9765 4.69958 14.2245 4.52218 14.3831 4.4318C14.5417 4.34142 14.7897 4.22762 14.9309 4.18075C15.0722 4.13054 15.3087 4.07364 15.45 4.04686C15.5912 4.02343 15.8335 4.00335 15.9834 4ZM16.9839 7.07615C16.9897 7.07615 17.0618 7.15983 17.1425 7.2636C17.2261 7.36736 17.3991 7.54142 17.526 7.65188C17.6529 7.76234 17.8461 7.90628 17.9585 7.97322C18.071 8.03682 18.2497 8.12385 18.3622 8.16736C18.4746 8.21088 18.6678 8.26443 18.7947 8.28452C18.9216 8.30795 19.1205 8.31464 19.4435 8.28117V8.39163C19.4435 8.44854 19.4233 8.69289 19.4002 8.93389C19.3743 9.1749 19.3224 9.5431 19.282 9.75397C19.2416 9.96485 19.1695 10.2828 19.1205 10.4569C19.0744 10.631 18.9533 10.9724 18.8524 11.21C18.7543 11.4477 18.59 11.7791 18.4891 11.9431C18.3881 12.1071 18.2007 12.3548 18.0738 12.4954C17.947 12.636 17.7336 12.8268 17.5981 12.9205C17.4626 13.0142 17.2636 13.1347 17.1512 13.1849C17.0387 13.2351 16.8398 13.3021 16.7042 13.3356C16.5687 13.369 16.3496 13.4059 16.2141 13.4192C16.0757 13.4326 15.8363 13.4226 15.6662 13.4025C15.499 13.3791 15.2539 13.3255 15.1184 13.282C14.9828 13.2385 14.7551 13.1347 14.6138 13.051C14.4725 12.9707 14.2505 12.8067 14.1236 12.6895C13.9967 12.5724 13.8151 12.3715 13.7228 12.2444C13.6277 12.1172 13.4921 11.9096 13.42 11.7791C13.3508 11.6485 13.224 11.3808 13.1404 11.1766C13.0567 10.9724 12.9558 10.6879 12.9126 10.5406C12.8722 10.3933 12.8059 10.1289 12.7684 9.95481C12.7309 9.78075 12.679 9.49958 12.6559 9.33556C12.6329 9.17155 12.6069 8.95397 12.581 8.68284H13.1144C13.4345 8.68284 13.7891 8.66276 13.9996 8.62929C14.1957 8.59916 14.5244 8.52552 14.7291 8.46527C14.9338 8.40502 15.2337 8.30126 15.3923 8.23096C15.5509 8.16402 15.8161 8.02343 15.9834 7.92301C16.1506 7.82259 16.3842 7.65858 16.5024 7.56151C16.6206 7.46109 16.7763 7.31046 16.8484 7.22678C16.9176 7.1431 16.9782 7.07615 16.9839 7.07615ZM6.23463 8.42176L6.37303 8.47531C6.448 8.50544 6.5691 8.57573 6.64119 8.63264C6.71039 8.68619 6.81996 8.81004 6.87763 8.90042C6.93818 8.99414 7.01315 9.16485 7.04486 9.28536C7.10253 9.49623 7.10253 9.59665 7.10253 15.8628L7.02468 15.8393C6.97855 15.8259 6.82284 15.8059 6.40187 15.7623L6.42205 13.9548C6.43358 12.8971 6.42782 11.9331 6.4134 11.6285C6.39898 11.3439 6.36438 11.0059 6.33843 10.8753C6.31248 10.7448 6.24328 10.5372 6.18273 10.4067C6.09334 10.2192 6.07604 10.159 6.10199 10.1054C6.11641 10.0686 6.14813 9.73724 6.1712 9.36904C6.19138 9.00084 6.21445 8.63598 6.2231 8.559L6.23463 8.42176ZM25.859 8.46192C25.8648 8.46527 25.8907 8.86025 25.9657 10.2092L25.8619 10.4C25.8042 10.5071 25.7235 10.7013 25.686 10.8351C25.6485 10.969 25.6024 11.2268 25.5851 11.4042C25.5678 11.6017 25.5534 12.5356 25.5563 15.7657L25.3314 15.7891C25.2083 15.8047 25.0517 15.8248 24.8614 15.8494V12.8937C24.8642 10.9791 24.8729 9.86444 24.8931 9.72385C24.9104 9.60335 24.9623 9.4159 25.0055 9.30544C25.0517 9.19498 25.1439 9.03096 25.2131 8.94059C25.2823 8.85021 25.3977 8.72971 25.4669 8.6728C25.539 8.6159 25.6543 8.54561 25.7264 8.51548C25.7956 8.48201 25.8561 8.45858 25.859 8.46192ZM4.61705 10.159C4.643 10.1556 4.74968 10.2059 4.8506 10.2661C4.9544 10.3264 5.10146 10.4469 5.17642 10.5339C5.25139 10.6209 5.35231 10.7883 5.39845 10.9021C5.44746 11.0192 5.49936 11.1933 5.51378 11.2971C5.53397 11.4109 5.5455 12.3347 5.54262 16.0502L5.39268 16.1607C5.30906 16.2209 5.19084 16.3381 5.12741 16.4218C5.06397 16.5021 4.989 16.636 4.95729 16.7197C4.92845 16.8 4.89674 16.9439 4.88809 17.0377C4.87944 17.1381 4.89097 17.2753 4.9198 17.3891C4.94575 17.4996 5.38691 18.4368 6.02126 19.7322C6.69597 21.1113 7.11118 21.928 7.17462 21.9983C7.23517 22.0653 7.3159 22.1155 7.38222 22.1289C7.45142 22.1423 7.53504 22.1289 7.61289 22.0954C7.67921 22.0653 7.7686 21.9916 7.80608 21.9314C7.84645 21.8711 7.88682 21.7707 7.89547 21.7071C7.90988 21.6234 7.89835 21.5431 7.85798 21.4393C7.82626 21.3556 7.34474 20.3582 6.78824 19.2201C6.23175 18.0854 5.77905 17.128 5.78194 17.0979C5.78482 17.0678 5.84826 17.0075 5.91746 16.9674C5.98954 16.9238 6.12506 16.8736 6.22021 16.8536C6.31537 16.8368 6.47107 16.8201 6.56622 16.8201C6.66137 16.8201 6.84303 16.8502 6.9699 16.887C7.09677 16.9238 7.26689 16.9975 7.34474 17.0477C7.42547 17.0979 7.56676 17.2285 7.66191 17.3389C7.80031 17.4996 7.90988 17.6904 8.19534 18.2762C8.39141 18.6812 8.66245 19.2301 8.79508 19.4979C8.92772 19.7623 9.08919 20.0469 9.15839 20.1272C9.22471 20.2075 9.32851 20.3079 9.39195 20.3515C9.45538 20.395 9.56783 20.4552 9.63704 20.4854C9.70912 20.5121 9.88501 20.5523 10.0263 20.5724C10.1705 20.5925 10.3954 20.646 10.5251 20.6895C10.6549 20.7331 10.8509 20.8134 10.9576 20.8703C11.0643 20.9272 11.2546 21.0544 11.3815 21.1515C11.5084 21.2485 11.716 21.4494 11.8399 21.5933C11.9668 21.7372 12.1369 21.9782 12.2206 22.1255C12.3042 22.2728 12.4137 22.4937 12.4628 22.6176C12.5118 22.7414 12.5839 22.9757 12.6242 23.1364C12.679 23.3573 12.7396 23.8661 12.8693 25.1883C12.9645 26.1523 13.0625 27.1397 13.0856 27.3808C13.1086 27.6184 13.1346 27.8561 13.1548 28H9.83887V27.6887C9.83887 27.518 9.82157 27.2803 9.79851 27.1632C9.77832 27.0427 9.72354 26.8452 9.6774 26.728C9.62839 26.6075 9.54765 26.4335 9.49287 26.3431C9.43808 26.2494 9.32275 26.0921 9.23336 25.9916C9.14686 25.8912 8.97097 25.7305 8.8441 25.6368C8.71723 25.5397 8.53558 25.4192 8.44043 25.3623C8.34527 25.3054 8.00215 25.1381 7.67633 24.9841C7.35339 24.8335 6.98143 24.6494 6.85456 24.5757C6.72769 24.5021 6.54604 24.3816 6.45089 24.3046C6.35573 24.231 6.22886 24.1138 6.16831 24.0502C6.10488 23.9866 5.99819 23.8427 5.93187 23.7322C5.84537 23.5916 5.53685 22.8017 4 18.7113L4.00288 18.1255C4.00288 17.8008 4.02018 17.3356 4.04037 17.0879C4.05767 16.8368 4.17012 15.3305 4.28834 13.7406C4.40656 12.1473 4.51324 10.7314 4.52189 10.5941C4.53054 10.4536 4.54496 10.2996 4.55361 10.2494C4.56226 10.1925 4.58533 10.159 4.61705 10.159ZM27.4939 10.159C27.5285 10.159 27.5429 10.1858 27.5429 10.2494C27.5429 10.2996 27.5775 10.8854 27.615 11.5481C27.6554 12.2109 27.7476 13.754 27.8168 14.9791C27.8889 16.2008 27.9639 17.4527 27.9812 17.7573C28.0043 18.149 28.0071 18.3598 27.9841 18.4937C27.9668 18.5941 27.8947 18.8485 27.8255 19.0628C27.7534 19.2736 27.3613 20.3347 26.9547 21.4226C26.5453 22.5071 26.1791 23.4711 26.1358 23.5615C26.0926 23.6519 25.9888 23.8159 25.8994 23.9264C25.8129 24.0368 25.6629 24.1908 25.5678 24.2678C25.4726 24.3448 25.2794 24.4787 25.1353 24.559C24.994 24.6427 24.6422 24.8201 24.3568 24.954C24.0713 25.0879 23.7224 25.2619 23.5782 25.3389C23.437 25.4192 23.2236 25.5565 23.1025 25.6502C22.9843 25.7406 22.7968 25.928 22.6844 26.0653C22.5748 26.2025 22.4364 26.4167 22.3788 26.5439C22.3211 26.6711 22.2461 26.8753 22.2144 26.9958C22.1827 27.1163 22.1452 27.3841 22.1077 28H20.4728C19.0369 28 18.8351 27.9933 18.8351 27.9498C18.8351 27.9197 18.9273 26.9757 19.0369 25.8477C19.1465 24.7197 19.2532 23.6854 19.2705 23.5481C19.2878 23.4075 19.3397 23.1632 19.3858 23.0025C19.4319 22.8418 19.5127 22.6176 19.5617 22.5004C19.6107 22.3866 19.7058 22.2025 19.7693 22.0921C19.8327 21.9816 19.9798 21.7774 20.0922 21.6402C20.2076 21.4996 20.4007 21.3054 20.5276 21.205C20.6516 21.1046 20.8707 20.9607 21.012 20.8803C21.1562 20.8033 21.3753 20.7096 21.5022 20.6695C21.6291 20.6326 21.8424 20.5858 21.9722 20.569C22.1019 20.549 22.2778 20.5054 22.3615 20.4686C22.4451 20.4318 22.5777 20.3548 22.6556 20.2946C22.7334 20.2343 22.8459 20.1071 22.9035 20.0167C22.9612 19.923 23.2611 19.3372 23.5667 18.7113C23.9992 17.8243 24.1607 17.5264 24.2876 17.3724C24.3769 17.2619 24.5269 17.1213 24.622 17.0644C24.7143 17.0042 24.8556 16.9339 24.9334 16.9038C25.0142 16.8736 25.1901 16.8435 25.3227 16.8301C25.4957 16.8167 25.6341 16.8301 25.784 16.8669C25.9051 16.8971 26.0407 16.9473 26.0868 16.9808C26.1358 17.0142 26.1791 17.0611 26.182 17.0879C26.1877 17.1146 26.0897 17.349 25.9686 17.6067C25.8475 17.8644 25.3717 18.8418 24.9133 19.7824C24.2097 21.2184 24.0771 21.5096 24.0771 21.6234C24.0771 21.6971 24.0973 21.8008 24.1261 21.8577C24.152 21.9113 24.2212 21.995 24.2789 22.0418C24.3568 22.1021 24.4202 22.1255 24.5298 22.1255C24.6336 22.1255 24.6999 22.1021 24.7604 22.0519C24.821 22.005 24.9969 21.6803 25.2996 21.0644C25.5476 20.5623 25.9657 19.7121 26.231 19.1799C26.4962 18.6444 26.7903 18.0218 26.8884 17.7941C27.0441 17.4326 27.07 17.3523 27.0787 17.1582C27.0845 16.9874 27.0729 16.8904 27.0239 16.7364C26.9835 16.6192 26.9057 16.472 26.8365 16.3849C26.7702 16.3013 26.6548 16.1941 26.4472 16.0669V13.7573C26.4472 11.7423 26.453 11.4243 26.4934 11.2636C26.5193 11.1598 26.5741 11.0092 26.6145 10.9289C26.6577 10.8452 26.7442 10.7113 26.8076 10.631C26.8711 10.5506 26.9835 10.4368 27.0527 10.3799C27.1248 10.323 27.243 10.2527 27.3122 10.2192C27.3843 10.1891 27.4651 10.159 27.4939 10.159ZM7.99927 10.487L8.0627 10.5105C8.0973 10.5238 8.1838 10.5707 8.25301 10.6209C8.32509 10.6678 8.44331 10.7715 8.51251 10.8485C8.5846 10.9255 8.68552 11.0695 8.73453 11.1665C8.78643 11.2669 8.84987 11.4377 8.87294 11.5481C8.91042 11.7188 8.91907 12.1105 8.91907 14.3598C8.91907 16.7431 8.9133 16.9908 8.86717 17.195C8.83834 17.3188 8.8095 17.4226 8.80085 17.4226C8.79508 17.4192 8.7403 17.3255 8.68263 17.2117C8.62496 17.0979 8.51251 16.9105 8.43178 16.7933C8.35104 16.6795 8.21841 16.5289 7.99927 16.3347V10.487ZM23.9589 10.4937C23.9877 10.4904 23.9963 11.0929 23.9963 16.2979L23.8205 16.4653C23.7224 16.559 23.5696 16.7464 23.4802 16.8837C23.3908 17.0243 23.2668 17.2452 23.2034 17.3791C23.14 17.5096 23.0794 17.6201 23.0737 17.6201C23.065 17.6201 23.0419 17.5297 23.0218 17.4192C22.9987 17.282 22.9958 17.1983 23.016 17.1515C23.0333 17.1079 23.0448 16.1339 23.0448 14.4335C23.0448 12.1305 23.0506 11.7523 23.0881 11.5782C23.114 11.4678 23.1688 11.3038 23.2121 11.2134C23.2553 11.1197 23.3533 10.969 23.4341 10.8753C23.5119 10.7782 23.6561 10.6544 23.7513 10.5975C23.8464 10.5406 23.9387 10.4937 23.9589 10.4937ZM14.4235 14.0854C14.4465 14.0954 14.5763 14.1456 14.7118 14.1992C14.8444 14.2561 15.0665 14.3264 15.202 14.3598C15.3923 14.41 15.5711 14.4234 15.9949 14.4234C16.4159 14.4234 16.5975 14.41 16.7879 14.3632C16.9205 14.3297 17.1425 14.2594 17.278 14.2059C17.4107 14.1556 17.5462 14.1021 17.5721 14.092C17.6067 14.0787 17.6269 14.0921 17.6356 14.1322C17.6442 14.1623 17.7105 14.2628 17.7884 14.3531C17.8634 14.4402 17.9902 14.5573 18.071 14.6075C18.1488 14.6577 18.3103 14.7381 18.4314 14.7849C18.5496 14.8285 18.8005 14.9088 18.985 14.9623C19.256 15.0393 19.3224 15.0695 19.3079 15.1096C19.2993 15.1364 19.233 15.2803 19.158 15.4243C19.083 15.5715 18.91 15.8259 18.7745 15.9933C18.6361 16.1607 18.4285 16.3749 18.3132 16.4686C18.195 16.5623 17.9931 16.7029 17.8605 16.7799C17.7307 16.8569 17.5087 16.9607 17.3703 17.0142C17.2319 17.0711 17.0012 17.1381 16.8599 17.1682C16.7158 17.195 16.4505 17.2285 16.2688 17.2418C16.0757 17.2519 15.8075 17.2452 15.6345 17.2218C15.4673 17.2017 15.1933 17.1448 15.029 17.0979C14.8617 17.0477 14.6311 16.9674 14.5157 16.9138C14.4004 16.8603 14.2072 16.7565 14.0832 16.6862C13.9621 16.6126 13.7689 16.482 13.6594 16.3916C13.5469 16.3013 13.3681 16.1305 13.2557 16.01C13.1461 15.8929 12.9818 15.6753 12.8866 15.528C12.7915 15.3808 12.6963 15.2201 12.6761 15.1699C12.6531 15.1163 12.6386 15.0695 12.6415 15.0594C12.6473 15.0527 12.8491 14.9824 13.0971 14.9088C13.3422 14.8318 13.6334 14.7247 13.7459 14.6711C13.8554 14.6176 14.0083 14.5205 14.0832 14.4569C14.1582 14.3933 14.2562 14.2795 14.2995 14.2059C14.3485 14.1255 14.3975 14.0787 14.4235 14.0854ZM11.7188 15.3105C11.7304 15.3105 11.7967 15.431 11.863 15.5816C11.9322 15.7322 12.0649 15.9766 12.1629 16.1238C12.2609 16.2745 12.4743 16.549 12.6386 16.7331C12.803 16.9172 13.0596 17.1649 13.2124 17.282C13.3624 17.3958 13.6161 17.5665 13.7747 17.6569C13.9333 17.7439 14.2187 17.8778 14.4091 17.9515C14.5994 18.0251 14.8906 18.1188 15.0578 18.1623C15.326 18.2293 15.4413 18.236 16.0814 18.236C16.7244 18.2393 16.834 18.2293 17.105 18.1623C17.2694 18.1188 17.5231 18.0385 17.6673 17.9849C17.8086 17.928 18.0479 17.8176 18.2007 17.7339C18.3507 17.6502 18.6044 17.4828 18.763 17.359C18.9302 17.2285 19.1638 17.0042 19.3252 16.8167C19.4925 16.6226 19.677 16.3615 19.801 16.1473C19.9106 15.9531 20.0461 15.6887 20.2047 15.3172L20.4065 15.3975C20.5161 15.4444 20.692 15.5347 20.7958 15.5983C20.8967 15.6653 21.0524 15.7824 21.1418 15.8561C21.2283 15.9331 21.3696 16.0803 21.4561 16.1808C21.5397 16.2812 21.6666 16.4552 21.7329 16.5657C21.8021 16.6762 21.9088 16.8937 21.9722 17.051C22.0356 17.2084 22.1135 17.4561 22.1481 17.6033C22.1798 17.7506 22.2375 18.149 22.275 18.4904C22.3442 19.0929 22.3442 19.113 22.2951 19.2268C22.2663 19.2904 22.2115 19.3774 22.174 19.4209C22.1192 19.4812 22.027 19.5146 21.704 19.5782C21.482 19.6218 21.162 19.7121 20.9976 19.7791C20.8304 19.846 20.5824 19.9699 20.4498 20.0536C20.3142 20.1339 20.1009 20.2879 19.9769 20.3916C19.8529 20.4987 19.6511 20.6962 19.53 20.8368C19.4089 20.9741 19.2359 21.2017 19.1494 21.3389C19.06 21.4762 18.936 21.6937 18.8725 21.8209C18.812 21.9515 18.7226 22.1556 18.6736 22.2795C18.59 22.5004 18.5871 22.5038 18.4602 22.5205C18.3881 22.5305 18.0767 22.564 17.7682 22.5975C17.3472 22.6377 16.8715 22.6544 15.8796 22.6544C15.0088 22.6577 14.3687 22.641 14.0198 22.6109C13.7257 22.5874 13.4575 22.554 13.42 22.5372C13.3854 22.5205 13.3566 22.487 13.3566 22.4669C13.3566 22.4435 13.2989 22.2895 13.2326 22.1222C13.1634 21.9582 13.0452 21.7172 12.9731 21.5866C12.901 21.4594 12.7598 21.2385 12.6588 21.1013C12.5579 20.964 12.3763 20.7565 12.258 20.6393C12.1398 20.5222 11.9582 20.3615 11.8572 20.2845C11.7534 20.2042 11.5747 20.087 11.4593 20.0167C11.344 19.9498 11.1624 19.8594 11.0557 19.8126C10.949 19.7657 10.7644 19.6987 10.6462 19.6619C10.5251 19.6285 10.306 19.5782 10.156 19.5582C9.95133 19.5247 9.86194 19.4946 9.81004 19.441C9.76967 19.4008 9.6774 19.2435 9.4698 18.8084L9.539 18.3732C9.57648 18.1356 9.63992 17.8042 9.68029 17.6368C9.72065 17.4728 9.80427 17.2151 9.86194 17.0678C9.92249 16.9205 10.0148 16.7264 10.0695 16.6326C10.1214 16.5423 10.2252 16.3849 10.2973 16.2845C10.3694 16.1874 10.5078 16.0335 10.603 15.9464C10.6981 15.8594 10.8798 15.7222 11.0066 15.6418C11.1335 15.5615 11.3411 15.4544 11.468 15.4042C11.5949 15.354 11.7073 15.3105 11.7188 15.3105Z" stroke="#F9BC15" stroke-width="2" mask="url(#path-2-outside-1_514_4714)"/>
</svg>
