<svg width="119" height="32" viewBox="0 0 119 32" fill="none" xmlns="http://www.w3.org/2000/svg">
<g clip-path="url(#clip0_2180_61671)">
<path d="M4 25.9446V19.6822L19.5525 28.7662V22.2976L4 13.2815V6.88168L19.5525 15.9778V9.56495L8.54198 3.2347L14.1164 0L25.7462 6.81297C25.9219 6.98084 27.03 8.07241 26.9508 9.73803C26.8847 11.1253 26.0202 12.3813 24.7146 13.0067C23.0403 13.9973 21.3651 14.988 19.6908 15.9778L24.3702 18.695C26.1254 19.6274 27.0456 21.4974 26.6786 23.1987C26.2933 24.9818 24.6624 25.802 24.4389 25.9098C20.9755 27.9399 17.5111 29.9699 14.0477 32L4 25.9446Z" fill="#3347FF"/>
</g>
<path d="M34.8801 1.465C35.8421 1.465 36.6828 1.65133 37.4021 2.024C38.1301 2.388 38.6891 2.91667 39.0791 3.61C39.4778 4.29467 39.6771 5.09633 39.6771 6.015C39.6771 6.93367 39.4778 7.731 39.0791 8.407C38.6891 9.083 38.1301 9.603 37.4021 9.967C36.6828 10.3223 35.8421 10.5 34.8801 10.5H31.9291V1.465H34.8801ZM34.8801 9.291C35.9374 9.291 36.7478 9.005 37.3111 8.433C37.8744 7.861 38.1561 7.055 38.1561 6.015C38.1561 4.96633 37.8744 4.14733 37.3111 3.558C36.7478 2.96867 35.9374 2.674 34.8801 2.674H33.4111V9.291H34.8801ZM42.6279 1.465V10.5H41.1459V1.465H42.6279ZM51.1126 4.065C50.8786 3.61433 50.5536 3.27633 50.1376 3.051C49.7216 2.817 49.2406 2.7 48.6946 2.7C48.0966 2.7 47.5636 2.83433 47.0956 3.103C46.6276 3.37167 46.2593 3.753 45.9906 4.247C45.7306 4.741 45.6006 5.313 45.6006 5.963C45.6006 6.613 45.7306 7.18933 45.9906 7.692C46.2593 8.186 46.6276 8.56733 47.0956 8.836C47.5636 9.10467 48.0966 9.239 48.6946 9.239C49.5006 9.239 50.155 9.01367 50.6576 8.563C51.1603 8.11233 51.468 7.50133 51.5806 6.73H48.1876V5.547H53.1666V6.704C53.0713 7.406 52.82 8.05167 52.4126 8.641C52.014 9.23033 51.4896 9.70267 50.8396 10.058C50.1983 10.4047 49.4833 10.578 48.6946 10.578C47.8453 10.578 47.0696 10.383 46.3676 9.993C45.6656 9.59433 45.1066 9.044 44.6906 8.342C44.2833 7.64 44.0796 6.847 44.0796 5.963C44.0796 5.079 44.2833 4.286 44.6906 3.584C45.1066 2.882 45.6656 2.336 46.3676 1.946C47.0783 1.54733 47.854 1.348 48.6946 1.348C49.6566 1.348 50.5103 1.58633 51.2556 2.063C52.0096 2.531 52.5556 3.19833 52.8936 4.065H51.1126ZM61.3233 1.465L58.3333 7.224V10.5H56.8513V7.224L53.8483 1.465H55.4993L57.5923 5.898L59.6853 1.465H61.3233ZM63.9814 9.304H67.0364V10.5H62.4994V1.465H63.9814V9.304ZM73.7228 8.654H69.9398L69.2898 10.5H67.7428L70.9798 1.452H72.6958L75.9328 10.5H74.3728L73.7228 8.654ZM73.3068 7.445L71.8378 3.246L70.3558 7.445H73.3068ZM81.4872 5.989L84.2952 10.5H82.6312L80.5902 7.224L78.6792 10.5H77.0282L79.8362 5.989L77.0152 1.465H78.6792L80.7332 4.767L82.6572 1.465H84.3082L81.4872 5.989Z" fill="black"/>
<path d="M42.1141 21.908C43.0581 22.084 43.8341 22.556 44.4421 23.324C45.0501 24.092 45.3541 24.972 45.3541 25.964C45.3541 26.86 45.1301 27.652 44.6821 28.34C44.2501 29.012 43.6181 29.54 42.7861 29.924C41.9541 30.308 40.9701 30.5 39.8341 30.5H32.6101V13.748H39.5221C40.6581 13.748 41.6341 13.932 42.4501 14.3C43.2821 14.668 43.9061 15.18 44.3221 15.836C44.7541 16.492 44.9701 17.236 44.9701 18.068C44.9701 19.044 44.7061 19.86 44.1781 20.516C43.6661 21.172 42.9781 21.636 42.1141 21.908ZM35.9701 20.66H39.0421C39.8421 20.66 40.4581 20.484 40.8901 20.132C41.3221 19.764 41.5381 19.244 41.5381 18.572C41.5381 17.9 41.3221 17.38 40.8901 17.012C40.4581 16.644 39.8421 16.46 39.0421 16.46H35.9701V20.66ZM39.3541 27.764C40.1701 27.764 40.8021 27.572 41.2501 27.188C41.7141 26.804 41.9461 26.26 41.9461 25.556C41.9461 24.836 41.7061 24.276 41.2261 23.876C40.7461 23.46 40.0981 23.252 39.2821 23.252H35.9701V27.764H39.3541ZM55.808 30.668C54.24 30.668 52.8 30.3 51.488 29.564C50.176 28.828 49.136 27.812 48.368 26.516C47.6 25.204 47.216 23.724 47.216 22.076C47.216 20.444 47.6 18.98 48.368 17.684C49.136 16.372 50.176 15.348 51.488 14.612C52.8 13.876 54.24 13.508 55.808 13.508C57.392 13.508 58.832 13.876 60.128 14.612C61.44 15.348 62.472 16.372 63.224 17.684C63.992 18.98 64.376 20.444 64.376 22.076C64.376 23.724 63.992 25.204 63.224 26.516C62.472 27.812 61.44 28.828 60.128 29.564C58.816 30.3 57.376 30.668 55.808 30.668ZM55.808 27.668C56.816 27.668 57.704 27.444 58.472 26.996C59.24 26.532 59.84 25.876 60.272 25.028C60.704 24.18 60.92 23.196 60.92 22.076C60.92 20.956 60.704 19.98 60.272 19.148C59.84 18.3 59.24 17.652 58.472 17.204C57.704 16.756 56.816 16.532 55.808 16.532C54.8 16.532 53.904 16.756 53.12 17.204C52.352 17.652 51.752 18.3 51.32 19.148C50.888 19.98 50.672 20.956 50.672 22.076C50.672 23.196 50.888 24.18 51.32 25.028C51.752 25.876 52.352 26.532 53.12 26.996C53.904 27.444 54.8 27.668 55.808 27.668ZM74.6517 30.668C73.0837 30.668 71.6437 30.3 70.3317 29.564C69.0197 28.828 67.9797 27.812 67.2117 26.516C66.4437 25.204 66.0597 23.724 66.0597 22.076C66.0597 20.444 66.4437 18.98 67.2117 17.684C67.9797 16.372 69.0197 15.348 70.3317 14.612C71.6437 13.876 73.0837 13.508 74.6517 13.508C76.2357 13.508 77.6757 13.876 78.9717 14.612C80.2837 15.348 81.3157 16.372 82.0677 17.684C82.8357 18.98 83.2197 20.444 83.2197 22.076C83.2197 23.724 82.8357 25.204 82.0677 26.516C81.3157 27.812 80.2837 28.828 78.9717 29.564C77.6597 30.3 76.2197 30.668 74.6517 30.668ZM74.6517 27.668C75.6597 27.668 76.5477 27.444 77.3157 26.996C78.0837 26.532 78.6837 25.876 79.1157 25.028C79.5477 24.18 79.7637 23.196 79.7637 22.076C79.7637 20.956 79.5477 19.98 79.1157 19.148C78.6837 18.3 78.0837 17.652 77.3157 17.204C76.5477 16.756 75.6597 16.532 74.6517 16.532C73.6437 16.532 72.7477 16.756 71.9637 17.204C71.1957 17.652 70.5957 18.3 70.1637 19.148C69.7317 19.98 69.5157 20.956 69.5157 22.076C69.5157 23.196 69.7317 24.18 70.1637 25.028C70.5957 25.876 71.1957 26.532 71.9637 26.996C72.7477 27.444 73.6437 27.668 74.6517 27.668ZM95.1755 30.5L89.0795 23.036V30.5H85.7195V13.748H89.0795V21.26L95.1755 13.748H99.2315L92.3195 22.052L99.4235 30.5H95.1755ZM107.418 30.668C106.25 30.668 105.194 30.468 104.25 30.068C103.322 29.668 102.586 29.092 102.042 28.34C101.498 27.588 101.218 26.7 101.202 25.676H104.802C104.85 26.364 105.09 26.908 105.522 27.308C105.97 27.708 106.578 27.908 107.346 27.908C108.13 27.908 108.746 27.724 109.194 27.356C109.642 26.972 109.866 26.476 109.866 25.868C109.866 25.372 109.714 24.964 109.41 24.644C109.106 24.324 108.722 24.076 108.258 23.9C107.81 23.708 107.186 23.5 106.386 23.276C105.298 22.956 104.41 22.644 103.722 22.34C103.05 22.02 102.466 21.548 101.97 20.924C101.49 20.284 101.25 19.436 101.25 18.38C101.25 17.388 101.498 16.524 101.994 15.788C102.49 15.052 103.186 14.492 104.082 14.108C104.978 13.708 106.002 13.508 107.154 13.508C108.882 13.508 110.282 13.932 111.354 14.78C112.442 15.612 113.042 16.78 113.154 18.284H109.458C109.426 17.708 109.178 17.236 108.714 16.868C108.266 16.484 107.666 16.292 106.914 16.292C106.258 16.292 105.73 16.46 105.33 16.796C104.946 17.132 104.754 17.62 104.754 18.26C104.754 18.708 104.898 19.084 105.186 19.388C105.49 19.676 105.858 19.916 106.29 20.108C106.738 20.284 107.362 20.492 108.162 20.732C109.25 21.052 110.138 21.372 110.826 21.692C111.514 22.012 112.106 22.492 112.602 23.132C113.098 23.772 113.346 24.612 113.346 25.652C113.346 26.548 113.114 27.38 112.65 28.148C112.186 28.916 111.506 29.532 110.61 29.996C109.714 30.444 108.65 30.668 107.418 30.668Z" fill="black"/>
<defs>
<clipPath id="clip0_2180_61671">
<rect width="22.9543" height="32" fill="white" transform="translate(4)"/>
</clipPath>
</defs>
</svg>
