
<svg fill="none" viewBox="0 0 58 58" xmlns="http://www.w3.org/2000/svg"><rect x=".5" y=".5" width="24" height="24" rx="28.5" fill="#FAFAFA"/><rect x=".5" y=".5" width="57" height="57" rx="28.5" stroke="url(#a)"/><path d="M31.271 31.066c-.111.008-.223.008-.338.008h-6.109v-.012h6.371c.024 0 .048 0 .076.004z" fill="#000"/><path d="M31.271 31.066c-.111.008-.223.008-.338.008h-6.109v-.012h6.371c.024 0 .048 0 .076.004z" fill="url(#b)"/><path d="M37.106 24.901a6.228 6.228 0 0 0-6.228-6.229h-9.84a.25.25 0 0 0-.25.25v24.573h4.036V39.25h.016v-4.274h-.016v-3.913h6.447c1.02.04 1.835.882 1.835 1.911a1.994 1.994 0 0 1-1.998 1.998h-2.149v4.274h1.974c1.704 0 3.25-.691 4.366-1.807s1.807-2.662 1.807-4.366c0-1.569-.58-3.003-1.537-4.095a6.154 6.154 0 0 0 1.537-4.076zm-4.584 1.315a1.993 1.993 0 0 1-1.414.584h-6.284v-3.913h6.371c1.057 0 1.911.854 1.911 1.91 0 .557-.223 1.057-.584 1.419z" fill="#000"/><path d="M37.106 24.901a6.228 6.228 0 0 0-6.228-6.229h-9.84a.25.25 0 0 0-.25.25v24.573h4.036V39.25h.016v-4.274h-.016v-3.913h6.447c1.02.04 1.835.882 1.835 1.911a1.994 1.994 0 0 1-1.998 1.998h-2.149v4.274h1.974c1.704 0 3.25-.691 4.366-1.807s1.807-2.662 1.807-4.366c0-1.569-.58-3.003-1.537-4.095a6.154 6.154 0 0 0 1.537-4.076zm-4.584 1.315a1.993 1.993 0 0 1-1.414.584h-6.284v-3.913h6.371c1.057 0 1.911.854 1.911 1.91 0 .557-.223 1.057-.584 1.419z" fill="url(#c)"/><path d="M45.495 24.948v8.131c0 7.976-6.467 14.44-14.443 14.44H20.788v-4.02h10.387c5.6 0 10.137-4.541 10.137-10.138v-8.77c0-5.494-4.453-9.947-9.947-9.947h-14.7v32.87h-4.16V10.481h18.527c7.988 0 14.463 6.479 14.463 14.467z" fill="#000"/><path d="M45.495 24.948v8.131c0 7.976-6.467 14.44-14.443 14.44H20.788v-4.02h10.387c5.6 0 10.137-4.541 10.137-10.138v-8.77c0-5.494-4.453-9.947-9.947-9.947h-14.7v32.87h-4.16V10.481h18.527c7.988 0 14.463 6.479 14.463 14.467z" fill="url(#d)"/><path d="M31.27 31.066c-.111.008-.223.008-.338.008h-6.109v-.012h6.371c.024 0 .048 0 .076.004z" fill="#000"/><path d="M31.27 31.066c-.111.008-.223.008-.338.008h-6.109v-.012h6.371c.024 0 .048 0 .076.004z" fill="url(#e)"/><path d="M31.27 31.066c-.111.008-.223.008-.338.008h-6.109v-.012h6.371c.024 0 .048 0 .076.004z" fill="#000"/><path d="M31.27 31.066c-.111.008-.223.008-.338.008h-6.109v-.012h6.371c.024 0 .048 0 .076.004z" fill="url(#e)"/><defs><linearGradient id="a" x1="58" x2="0" y2="58" gradientUnits="userSpaceOnUse"><stop stop-color="#0C8DD7" offset="0"/><stop stop-color="#1E5EB4" offset="1"/></linearGradient><linearGradient id="b" x1="27.195" x2="27.195" y1="31.064" y2="31.074" gradientUnits="userSpaceOnUse"><stop stop-color="#137CCA" offset="0"/><stop stop-color="#093D64" offset="1"/></linearGradient><linearGradient id="c" x1="26.79" x2="27.519" y1="24.642" y2="43.467" gradientUnits="userSpaceOnUse"><stop stop-color="#137CCA" offset="0"/><stop stop-color="#093D64" offset="1"/></linearGradient><linearGradient id="d" x1="24.64" x2="25.443" y1="19.388" y2="47.497" gradientUnits="userSpaceOnUse"><stop stop-color="#137CCA" offset="0"/><stop stop-color="#093D64" offset="1"/></linearGradient><linearGradient id="e" x1="27.195" x2="27.195" y1="31.064" y2="31.074" gradientUnits="userSpaceOnUse"><stop stop-color="#137CCA" offset="0"/><stop stop-color="#093D64" offset="1"/></linearGradient></defs></svg>