<svg width="111" height="34" viewBox="0 0 111 34" fill="none" xmlns="http://www.w3.org/2000/svg">
<path d="M11.144 13.1819C13.497 11.8111 15.8495 10.4406 18.2025 9.06975C18.4803 8.90792 18.6492 8.60922 18.6452 8.28824C18.622 6.46531 18.5989 4.64194 18.5757 2.81901C18.5672 2.14093 17.8352 1.72052 17.2449 2.05444L5.38854 8.76348C5.10901 8.92174 4.93604 9.21821 4.93604 9.53964V24.1703C4.93604 24.4869 5.10366 24.7793 5.3765 24.9394L10.4913 27.9383C11.0767 28.2816 11.8158 27.871 11.8337 27.1929C11.8831 25.3165 11.9331 23.4396 11.9826 21.5632C11.9906 21.2538 12.1591 20.9707 12.427 20.8151C16.7189 18.3279 21.0112 15.8408 25.303 13.3536C25.5807 13.1926 25.7506 12.8948 25.7475 12.5738C25.7287 10.4879 25.7096 8.40192 25.6909 6.31596C25.6846 5.61737 26.4474 5.18315 27.0448 5.54515L32.2309 8.68858C32.4975 8.84996 32.6602 9.1393 32.6602 9.45092V24.2408C32.6602 24.5568 32.4926 24.8493 32.2202 25.0093C28.2873 27.3195 24.3548 29.6297 20.4218 31.9404C19.8369 32.2841 19.0977 31.8744 19.079 31.1963C19.0273 29.3311 18.9756 27.4653 18.9234 25.6C18.9145 25.2817 19.0763 24.983 19.3474 24.8159L26.2459 20.5708" stroke="#00C569" stroke-width="3.5" stroke-miterlimit="10" stroke-linecap="round"/>
<path d="M41.5232 1.965C42.4852 1.965 43.3258 2.15133 44.0452 2.524C44.7732 2.888 45.3322 3.41667 45.7222 4.11C46.1208 4.79467 46.3202 5.59633 46.3202 6.515C46.3202 7.43367 46.1208 8.231 45.7222 8.907C45.3322 9.583 44.7732 10.103 44.0452 10.467C43.3258 10.8223 42.4852 11 41.5232 11H38.5722V1.965H41.5232ZM41.5232 9.791C42.5805 9.791 43.3908 9.505 43.9542 8.933C44.5175 8.361 44.7992 7.555 44.7992 6.515C44.7992 5.46633 44.5175 4.64733 43.9542 4.058C43.3908 3.46867 42.5805 3.174 41.5232 3.174H40.0542V9.791H41.5232ZM49.271 1.965V11H47.789V1.965H49.271ZM57.7557 4.565C57.5217 4.11433 57.1967 3.77633 56.7807 3.551C56.3647 3.317 55.8837 3.2 55.3377 3.2C54.7397 3.2 54.2067 3.33433 53.7387 3.603C53.2707 3.87167 52.9024 4.253 52.6337 4.747C52.3737 5.241 52.2437 5.813 52.2437 6.463C52.2437 7.113 52.3737 7.68933 52.6337 8.192C52.9024 8.686 53.2707 9.06733 53.7387 9.336C54.2067 9.60467 54.7397 9.739 55.3377 9.739C56.1437 9.739 56.798 9.51367 57.3007 9.063C57.8034 8.61233 58.111 8.00133 58.2237 7.23H54.8307V6.047H59.8097V7.204C59.7144 7.906 59.463 8.55167 59.0557 9.141C58.657 9.73033 58.1327 10.2027 57.4827 10.558C56.8414 10.9047 56.1264 11.078 55.3377 11.078C54.4884 11.078 53.7127 10.883 53.0107 10.493C52.3087 10.0943 51.7497 9.544 51.3337 8.842C50.9264 8.14 50.7227 7.347 50.7227 6.463C50.7227 5.579 50.9264 4.786 51.3337 4.084C51.7497 3.382 52.3087 2.836 53.0107 2.446C53.7214 2.04733 54.497 1.848 55.3377 1.848C56.2997 1.848 57.1534 2.08633 57.8987 2.563C58.6527 3.031 59.1987 3.69833 59.5367 4.565H57.7557ZM67.9664 1.965L64.9764 7.724V11H63.4944V7.724L60.4914 1.965H62.1424L64.2354 6.398L66.3284 1.965H67.9664ZM70.6245 9.804H73.6795V11H69.1425V1.965H70.6245V9.804ZM80.3658 9.154H76.5828L75.9328 11H74.3858L77.6228 1.952H79.3388L82.5758 11H81.0158L80.3658 9.154ZM79.9498 7.945L78.4808 3.746L76.9988 7.945H79.9498ZM88.1303 6.489L90.9383 11H89.2743L87.2333 7.724L85.3223 11H83.6713L86.4793 6.489L83.6583 1.965H85.3223L87.3763 5.267L89.3003 1.965H90.9513L88.1303 6.489Z" fill="black"/>
<path d="M53.1492 16.248V33H49.7892V25.872H42.6132V33H39.2532V16.248H42.6132V23.136H49.7892V16.248H53.1492ZM65.0963 33L61.4003 26.472H59.8163V33H56.4563V16.248H62.7443C64.0403 16.248 65.1443 16.48 66.0563 16.944C66.9683 17.392 67.6483 18.008 68.0963 18.792C68.5603 19.56 68.7923 20.424 68.7923 21.384C68.7923 22.488 68.4723 23.488 67.8323 24.384C67.1923 25.264 66.2403 25.872 64.9763 26.208L68.9843 33H65.0963ZM59.8163 23.952H62.6243C63.5363 23.952 64.2163 23.736 64.6643 23.304C65.1123 22.856 65.3363 22.24 65.3363 21.456C65.3363 20.688 65.1123 20.096 64.6643 19.68C64.2163 19.248 63.5363 19.032 62.6243 19.032H59.8163V23.952ZM90.0953 16.248V33H86.7353V22.104L82.2473 33H79.7033L75.1913 22.104V33H71.8313V16.248H75.6473L80.9753 28.704L86.3033 16.248H90.0953ZM99.2012 33.168C98.0332 33.168 96.9772 32.968 96.0332 32.568C95.1052 32.168 94.3692 31.592 93.8252 30.84C93.2812 30.088 93.0012 29.2 92.9852 28.176H96.5852C96.6332 28.864 96.8732 29.408 97.3052 29.808C97.7532 30.208 98.3612 30.408 99.1292 30.408C99.9132 30.408 100.529 30.224 100.977 29.856C101.425 29.472 101.649 28.976 101.649 28.368C101.649 27.872 101.497 27.464 101.193 27.144C100.889 26.824 100.505 26.576 100.041 26.4C99.5932 26.208 98.9692 26 98.1692 25.776C97.0812 25.456 96.1932 25.144 95.5052 24.84C94.8332 24.52 94.2492 24.048 93.7532 23.424C93.2732 22.784 93.0332 21.936 93.0332 20.88C93.0332 19.888 93.2812 19.024 93.7772 18.288C94.2732 17.552 94.9692 16.992 95.8652 16.608C96.7612 16.208 97.7852 16.008 98.9372 16.008C100.665 16.008 102.065 16.432 103.137 17.28C104.225 18.112 104.825 19.28 104.937 20.784H101.241C101.209 20.208 100.961 19.736 100.497 19.368C100.049 18.984 99.4492 18.792 98.6972 18.792C98.0412 18.792 97.5132 18.96 97.1132 19.296C96.7292 19.632 96.5372 20.12 96.5372 20.76C96.5372 21.208 96.6812 21.584 96.9692 21.888C97.2732 22.176 97.6412 22.416 98.0732 22.608C98.5212 22.784 99.1452 22.992 99.9452 23.232C101.033 23.552 101.921 23.872 102.609 24.192C103.297 24.512 103.889 24.992 104.385 25.632C104.881 26.272 105.129 27.112 105.129 28.152C105.129 29.048 104.897 29.88 104.433 30.648C103.969 31.416 103.289 32.032 102.393 32.496C101.497 32.944 100.433 33.168 99.2012 33.168Z" fill="black"/>
</svg>
