<svg width="32" height="32" viewBox="0 0 32 32" fill="none" xmlns="http://www.w3.org/2000/svg">
<rect width="32" height="32" rx="6" fill="#FDEDEB"/>
<path d="M16.0126 22.3782C15.1022 22.3782 14.2845 22.1674 13.5595 21.7459C12.8346 21.3244 12.2613 20.7512 11.8398 20.0262C11.4352 19.2844 11.2329 18.4245 11.2329 17.4467V8.64581C11.2329 8.19059 11.1233 7.77753 10.9041 7.40661C10.6849 7.03569 10.3899 6.74064 10.019 6.52147C9.64805 6.30229 9.24341 6.1927 8.80506 6.1927C8.3667 6.1927 7.96207 6.30229 7.59115 6.52147C7.23709 6.74064 6.95048 7.03569 6.7313 7.40661C6.52898 7.77753 6.42782 8.19059 6.42782 8.64581V22.0747H4V8.97458C4 8.04729 4.20232 7.21272 4.60695 6.47089C5.01159 5.72906 5.5764 5.14739 6.30137 4.72589C7.02634 4.28754 7.86091 4.06836 8.80506 4.06836C9.76607 4.06836 10.6091 4.28754 11.334 4.72589C12.059 5.14739 12.6238 5.72906 13.0285 6.47089C13.4331 7.21272 13.6354 8.04729 13.6354 8.97458V17.7754C13.6354 18.2475 13.745 18.669 13.9642 19.0399C14.1834 19.394 14.47 19.6806 14.824 19.8998C15.1949 20.1189 15.5912 20.2285 16.0126 20.2285C16.4341 20.2285 16.8219 20.1189 17.176 19.8998C17.53 19.6806 17.8082 19.394 18.0105 19.0399C18.2297 18.669 18.3393 18.2475 18.3393 17.7754V8.97458C18.3393 8.04729 18.5416 7.21272 18.9463 6.47089C19.3678 5.72906 19.941 5.14739 20.666 4.72589C21.3909 4.28754 22.2339 4.06836 23.1949 4.06836C24.1391 4.06836 24.9737 4.28754 25.6986 4.72589C26.4236 5.14739 26.9884 5.72906 27.393 6.47089C27.7977 7.21272 28 8.04729 28 8.97458V22.0747H25.5722V8.64581C25.5722 8.19059 25.4626 7.77753 25.2434 7.40661C25.0411 7.03569 24.7545 6.74064 24.3836 6.52147C24.0295 6.30229 23.6333 6.1927 23.1949 6.1927C22.7397 6.1927 22.3267 6.30229 21.9557 6.52147C21.6017 6.74064 21.3151 7.03569 21.0959 7.40661C20.8767 7.77753 20.7671 8.19059 20.7671 8.64581V17.4467C20.7671 18.4245 20.5564 19.2844 20.1349 20.0262C19.7302 20.7512 19.1654 21.3244 18.4405 21.7459C17.7323 22.1674 16.9231 22.3782 16.0126 22.3782Z" fill="#EA4535"/>
<path d="M16.0126 9.62378C15.1022 9.62378 14.2845 9.83453 13.5595 10.256C12.8346 10.6775 12.2613 11.2508 11.8398 11.9757C11.4352 12.7176 11.2329 13.5774 11.2329 14.5553V23.3561C11.2329 23.8114 11.1233 24.2244 10.9041 24.5953C10.6849 24.9663 10.3899 25.2613 10.019 25.4805C9.64805 25.6997 9.24341 25.8093 8.80506 25.8093C8.3667 25.8093 7.96207 25.6997 7.59115 25.4805C7.23709 25.2613 6.95047 24.9663 6.7313 24.5953C6.52898 24.2244 6.42782 23.8114 6.42782 23.3561V9.92726H4V23.0274C4 23.9547 4.20232 24.7892 4.60695 25.5311C5.01159 26.2729 5.5764 26.8546 6.30137 27.2761C7.02634 27.7144 7.86091 27.9336 8.80506 27.9336C9.76607 27.9336 10.6091 27.7144 11.334 27.2761C12.059 26.8546 12.6238 26.2729 13.0285 25.5311C13.4331 24.7892 13.6354 23.9547 13.6354 23.0274V14.2265C13.6354 13.7545 13.745 13.3329 13.9642 12.962C14.1834 12.608 14.47 12.3214 14.824 12.1022C15.1949 11.883 15.5911 11.7734 16.0126 11.7734C16.4341 11.7734 16.8219 11.883 17.176 12.1022C17.53 12.3214 17.8082 12.608 18.0105 12.962C18.2297 13.3329 18.3393 13.7545 18.3393 14.2265V23.0274C18.3393 23.9547 18.5416 24.7892 18.9463 25.5311C19.3678 26.2729 19.941 26.8546 20.666 27.2761C21.3909 27.7144 22.2339 27.9336 23.1949 27.9336C24.1391 27.9336 24.9737 27.7144 25.6986 27.2761C26.4236 26.8546 26.9884 26.2729 27.393 25.5311C27.7977 24.7892 28 23.9547 28 23.0274V9.92726H25.5722V23.3561C25.5722 23.8114 25.4626 24.2244 25.2434 24.5953C25.0411 24.9663 24.7545 25.2613 24.3836 25.4805C24.0295 25.6997 23.6333 25.8093 23.1949 25.8093C22.7397 25.8093 22.3267 25.6997 21.9557 25.4805C21.6017 25.2613 21.3151 24.9663 21.0959 24.5953C20.8767 24.2244 20.7671 23.8114 20.7671 23.3561V14.5553C20.7671 13.5774 20.5564 12.7176 20.1349 11.9757C19.7302 11.2508 19.1654 10.6775 18.4405 10.256C17.7324 9.83453 16.9231 9.62378 16.0126 9.62378Z" fill="#EA4535"/>
</svg>
