<svg xmlns="http://www.w3.org/2000/svg" width="105" height="32" viewBox="0 0 105 32" fill="none">
<path d="M4 16.4454V26.8608L10.2355 32L35.863 10.3469V0L10.2355 21.5846L4 16.4454Z" fill="#5c4400"/>
<path d="M35.863 16.4454L23.803 26.8608L29.9015 32L35.863 26.8608V16.4454Z" fill="#d9a000"/>
<path d="M4 10.0043V0L16.2655 10.3469L10.2355 15.4861L4 10.0043Z" fill="#d9a000" />
<path d="M45.5122 0.964999C46.4742 0.964999 47.3149 1.15133 48.0342 1.524C48.7622 1.888 49.3212 2.41667 49.7112 3.11C50.1099 3.79467 50.3092 4.59633 50.3092 5.515C50.3092 6.43367 50.1099 7.231 49.7112 7.907C49.3212 8.583 48.7622 9.103 48.0342 9.467C47.3149 9.82233 46.4742 10 45.5122 10H42.5612V0.964999H45.5122ZM45.5122 8.791C46.5695 8.791 47.3799 8.505 47.9432 7.933C48.5065 7.361 48.7882 6.555 48.7882 5.515C48.7882 4.46633 48.5065 3.64733 47.9432 3.058C47.3799 2.46867 46.5695 2.174 45.5122 2.174H44.0432V8.791H45.5122ZM53.52 0.964999V10H52.038V0.964999H53.52ZM62.2647 3.565C62.0307 3.11433 61.7057 2.77633 61.2897 2.551C60.8737 2.317 60.3927 2.2 59.8467 2.2C59.2487 2.2 58.7157 2.33433 58.2477 2.603C57.7797 2.87167 57.4114 3.253 57.1427 3.747C56.8827 4.241 56.7527 4.813 56.7527 5.463C56.7527 6.113 56.8827 6.68933 57.1427 7.192C57.4114 7.686 57.7797 8.06733 58.2477 8.336C58.7157 8.60467 59.2487 8.739 59.8467 8.739C60.6527 8.739 61.3071 8.51367 61.8097 8.063C62.3124 7.61233 62.6201 7.00133 62.7327 6.23H59.3397V5.047H64.3187V6.204C64.2234 6.906 63.9721 7.55167 63.5647 8.141C63.1661 8.73033 62.6417 9.20267 61.9917 9.558C61.3504 9.90467 60.6354 10.078 59.8467 10.078C58.9974 10.078 58.2217 9.883 57.5197 9.493C56.8177 9.09433 56.2587 8.544 55.8427 7.842C55.4354 7.14 55.2317 6.347 55.2317 5.463C55.2317 4.579 55.4354 3.786 55.8427 3.084C56.2587 2.382 56.8177 1.836 57.5197 1.446C58.2304 1.04733 59.0061 0.847999 59.8467 0.847999C60.8087 0.847999 61.6624 1.08633 62.4077 1.563C63.1617 2.031 63.7077 2.69833 64.0457 3.565H62.2647ZM72.7354 0.964999L69.7454 6.724V10H68.2634V6.724L65.2604 0.964999H66.9114L69.0044 5.398L71.0974 0.964999H72.7354ZM75.6535 8.804H78.7085V10H74.1715V0.964999H75.6535V8.804ZM85.6549 8.154H81.8719L81.2219 10H79.6749L82.9119 0.951999H84.6279L87.8649 10H86.3049L85.6549 8.154ZM85.2389 6.945L83.7699 2.746L82.2879 6.945H85.2389ZM93.6793 5.489L96.4873 10H94.8233L92.7823 6.724L90.8713 10H89.2203L92.0283 5.489L89.2073 0.964999H90.8713L92.9253 4.267L94.8493 0.964999H96.5003L93.6793 5.489Z" fill="black" style="fill: #000000;"/>
<path d="M59.7828 15.248V32H56.4228V21.104L51.9348 32H49.3908L44.8788 21.104V32H41.5188V15.248H45.3348L50.6628 27.704L55.9908 15.248H59.7828ZM68.9607 15.248C70.7207 15.248 72.2647 15.592 73.5927 16.28C74.9367 16.968 75.9687 17.952 76.6887 19.232C77.4247 20.496 77.7927 21.968 77.7927 23.648C77.7927 25.328 77.4247 26.8 76.6887 28.064C75.9687 29.312 74.9367 30.28 73.5927 30.968C72.2647 31.656 70.7207 32 68.9607 32H63.1047V15.248H68.9607ZM68.8407 29.144C70.6007 29.144 71.9607 28.664 72.9207 27.704C73.8807 26.744 74.3607 25.392 74.3607 23.648C74.3607 21.904 73.8807 20.544 72.9207 19.568C71.9607 18.576 70.6007 18.08 68.8407 18.08H66.4647V29.144H68.8407ZM98.5719 15.248V32H95.2119V21.104L90.7239 32H88.1799L83.6679 21.104V32H80.3079V15.248H84.1239L89.4519 27.704L94.7799 15.248H98.5719Z" fill="black"/>
</svg>