
<svg width="58" height="58" fill="none" xmlns="http://www.w3.org/2000/svg"><circle cx="29" cy="29" r="28.5" fill="#FAFAFA" stroke="url(#a)"/><path d="M29.017 38.44c-1.214 0-2.304-.312-3.27-.936-.968-.624-1.732-1.472-2.294-2.545-.54-1.098-.81-2.37-.81-3.818V18.116c0-.674-.145-1.285-.438-1.834a3.504 3.504 0 0 0-1.18-1.31 2.892 2.892 0 0 0-1.618-.487c-.585 0-1.124.162-1.619.487a3.618 3.618 0 0 0-1.146 1.31 4.103 4.103 0 0 0-.405 1.834V37.99H13V18.602c0-1.372.27-2.607.81-3.705.539-1.098 1.292-1.959 2.258-2.583.967-.648 2.08-.973 3.339-.973 1.281 0 2.405.325 3.372.973.966.624 1.72 1.485 2.259 2.583.54 1.098.81 2.333.81 3.705v13.026c0 .698.145 1.322.438 1.871a3.71 3.71 0 0 0 1.146 1.273 2.839 2.839 0 0 0 1.585.486c.562 0 1.079-.162 1.551-.486a3.412 3.412 0 0 0 1.113-1.273c.292-.549.438-1.173.438-1.871V18.602c0-1.372.27-2.607.81-3.705.561-1.098 1.326-1.959 2.292-2.583.967-.648 2.09-.973 3.372-.973 1.26 0 2.372.325 3.338.973.967.624 1.72 1.485 2.26 2.583.54 1.098.809 2.333.809 3.705v19.389h-3.237V18.116a3.84 3.84 0 0 0-.438-1.834 3.244 3.244 0 0 0-1.147-1.31c-.472-.325-1-.487-1.585-.487-.607 0-1.157.162-1.652.487a3.619 3.619 0 0 0-1.147 1.31 3.842 3.842 0 0 0-.438 1.834V31.14c0 1.447-.28 2.72-.843 3.818-.54 1.073-1.292 1.921-2.259 2.545-.944.624-2.023.936-3.237.936Z" fill="#656565"/><path d="M29.017 19.563c-1.214 0-2.304.312-3.27.936-.968.624-1.732 1.472-2.294 2.545-.54 1.098-.81 2.37-.81 3.818v13.025c0 .674-.145 1.285-.438 1.834a3.505 3.505 0 0 1-1.18 1.31 2.892 2.892 0 0 1-1.618.487 2.892 2.892 0 0 1-1.619-.487 3.62 3.62 0 0 1-1.146-1.31 4.103 4.103 0 0 1-.405-1.834V20.012H13v19.389c0 1.372.27 2.607.81 3.705.539 1.098 1.292 1.959 2.258 2.583.967.648 2.08.973 3.339.973 1.281 0 2.405-.325 3.372-.973.966-.624 1.72-1.485 2.259-2.583.54-1.098.81-2.333.81-3.705V26.375c0-.698.145-1.322.438-1.871a3.71 3.71 0 0 1 1.146-1.273 2.838 2.838 0 0 1 1.585-.486c.562 0 1.079.162 1.551.486.472.325.843.749 1.113 1.273.292.549.438 1.173.438 1.871v13.026c0 1.372.27 2.607.81 3.705.561 1.098 1.326 1.959 2.292 2.583.967.648 2.09.973 3.372.973 1.26 0 2.372-.325 3.338-.973.967-.624 1.72-1.485 2.26-2.583.54-1.098.809-2.333.809-3.705V20.012h-3.237v19.875a3.84 3.84 0 0 1-.438 1.834c-.27.55-.652.986-1.147 1.31-.472.325-1 .487-1.585.487a2.948 2.948 0 0 1-1.652-.487 3.62 3.62 0 0 1-1.147-1.31 3.841 3.841 0 0 1-.438-1.834V26.862c0-1.447-.28-2.72-.843-3.818-.54-1.073-1.292-1.921-2.259-2.545-.944-.624-2.023-.936-3.237-.936Z" fill="#656565"/><defs><linearGradient id="a" x1="58" y1="0" x2="0" y2="58" gradientUnits="userSpaceOnUse"><stop stop-color="#0C8DD7"/><stop offset="1" stop-color="#1E5EB4"/></linearGradient></defs></svg>