<svg width="24" height="24" viewBox="0 0 24 24" fill="currentColor" xmlns="http://www.w3.org/2000/svg">
<path d="M12.2812 4.81006V5.81006C12.2812 6.87092 11.8598 7.88834 11.1097 8.63849C10.3595 9.38863 9.34212 9.81006 8.28125 9.81006H7.28125V11.8101H9.28125C9.54647 11.8101 9.80082 11.9154 9.98836 12.103C10.1759 12.2905 10.2812 12.5448 10.2812 12.8101C10.2812 13.0753 10.1759 13.3296 9.98836 13.5172C9.80082 13.7047 9.54647 13.8101 9.28125 13.8101H3.28125C3.01603 13.8101 2.76168 13.7047 2.57414 13.5172C2.38661 13.3296 2.28125 13.0753 2.28125 12.8101C2.28125 12.5448 2.38661 12.2905 2.57414 12.103C2.76168 11.9154 3.01603 11.8101 3.28125 11.8101H5.28125V9.81006H4.28125C3.22038 9.81006 2.20297 9.38863 1.45282 8.63849C0.702677 7.88834 0.28125 6.87092 0.28125 5.81006V4.81006C0.28125 3.74919 0.702677 2.73178 1.45282 1.98163C2.20297 1.23149 3.22038 0.810059 4.28125 0.810059L8.28125 0.810059C9.34212 0.810059 10.3595 1.23149 11.1097 1.98163C11.8598 2.73178 12.2812 3.74919 12.2812 4.81006ZM15.2812 5.81006H17.2812C17.5465 5.81006 17.8008 5.91542 17.9884 6.10295C18.1759 6.29049 18.2812 6.54484 18.2812 6.81006V8.81006C18.2812 9.07528 18.3866 9.32963 18.5741 9.51717C18.7617 9.7047 19.016 9.81006 19.2812 9.81006C19.5465 9.81006 19.8008 9.7047 19.9884 9.51717C20.1759 9.32963 20.2812 9.07528 20.2812 8.81006V6.81006C20.2812 6.01441 19.9652 5.25135 19.4026 4.68874C18.84 4.12613 18.0769 3.81006 17.2812 3.81006H15.2812C15.016 3.81006 14.7617 3.91542 14.5741 4.10295C14.3866 4.29049 14.2812 4.54484 14.2812 4.81006C14.2812 5.07527 14.3866 5.32963 14.5741 5.51717C14.7617 5.7047 15.016 5.81006 15.2812 5.81006ZM11.2812 19.8101H8.28125C8.01603 19.8101 7.76168 19.7047 7.57414 19.5172C7.38661 19.3296 7.28125 19.0753 7.28125 18.8101V16.8101C7.28125 16.5448 7.17589 16.2905 6.98836 16.103C6.80082 15.9154 6.54647 15.8101 6.28125 15.8101C6.01603 15.8101 5.76168 15.9154 5.57414 16.103C5.38661 16.2905 5.28125 16.5448 5.28125 16.8101V18.8101C5.28125 19.6057 5.59732 20.3688 6.15993 20.9314C6.72254 21.494 7.4856 21.8101 8.28125 21.8101H11.2812C11.5465 21.8101 11.8008 21.7047 11.9884 21.5172C12.1759 21.3296 12.2812 21.0753 12.2812 20.8101C12.2812 20.5448 12.1759 20.2905 11.9884 20.103C11.8008 19.9154 11.5465 19.8101 11.2812 19.8101ZM24.2812 15.8101V20.8101C24.2812 21.8709 23.8598 22.8883 23.1097 23.6385C22.3595 24.3886 21.3421 24.8101 20.2812 24.8101H18.2812C17.2204 24.8101 16.203 24.3886 15.4528 23.6385C14.7027 22.8883 14.2812 21.8709 14.2812 20.8101V15.8101C14.2812 14.7492 14.7027 13.7318 15.4528 12.9816C16.203 12.2315 17.2204 11.8101 18.2812 11.8101H20.2812C21.3421 11.8101 22.3595 12.2315 23.1097 12.9816C23.8598 13.7318 24.2812 14.7492 24.2812 15.8101ZM20.2812 20.8101C20.2812 20.5448 20.1759 20.2905 19.9884 20.103C19.8008 19.9154 19.5465 19.8101 19.2812 19.8101C19.016 19.8101 18.7617 19.9154 18.5741 20.103C18.3866 20.2905 18.2812 20.5448 18.2812 20.8101C18.2812 21.0753 18.3866 21.3296 18.5741 21.5172C18.7617 21.7047 19.016 21.8101 19.2812 21.8101C19.5465 21.8101 19.8008 21.7047 19.9884 21.5172C20.1759 21.3296 20.2812 21.0753 20.2812 20.8101Z" fill="currentColor"/>
</svg>