<svg width="25" height="25" viewBox="0 0 25 25" fill="currentColor" xmlns="http://www.w3.org/2000/svg">
<path d="M22.8853 7.19806C20.7743 8.27606 17.2623 8.81006 12.2813 8.81006C7.30025 8.81006 3.78825 8.27506 1.67725 7.19806C0.758895 8.926 0.279489 10.8532 0.281255 12.8101C0.281255 19.4371 5.65425 24.8101 12.2813 24.8101C18.9083 24.8101 24.2813 19.4371 24.2813 12.8101C24.2813 10.7811 23.7733 8.87306 22.8853 7.19806ZM5.28125 13.8101C5.28125 11.9181 6.51325 9.81006 8.28125 9.81006C10.0493 9.81006 11.2813 11.9181 11.2813 13.8101C11.2813 14.0753 11.1759 14.3296 10.9884 14.5172C10.8008 14.7047 10.5465 14.8101 10.2813 14.8101C10.016 14.8101 9.76168 14.7047 9.57415 14.5172C9.38661 14.3296 9.28125 14.0753 9.28125 13.8101C9.28125 12.7561 8.60125 11.8101 8.28125 11.8101C7.96125 11.8101 7.28125 12.7561 7.28125 13.8101C7.28125 14.0753 7.1759 14.3296 6.98836 14.5172C6.80083 14.7047 6.54647 14.8101 6.28125 14.8101C6.01604 14.8101 5.76168 14.7047 5.57415 14.5172C5.38661 14.3296 5.28125 14.0753 5.28125 13.8101ZM17.9473 18.5561C17.8443 18.6481 15.3883 20.8101 12.2813 20.8101C9.17425 20.8101 6.71826 18.6481 6.61525 18.5561C6.42413 18.3779 6.31034 18.132 6.29824 17.871C6.28613 17.6099 6.37667 17.3546 6.55047 17.1595C6.72428 16.9643 6.96755 16.845 7.22822 16.827C7.48889 16.809 7.74626 16.8937 7.94525 17.0631C7.97025 17.0851 9.95325 18.8111 12.2813 18.8111C14.6093 18.8111 16.5973 17.0811 16.6173 17.0631C16.8152 16.8867 17.0752 16.7962 17.3399 16.8115C17.6046 16.8268 17.8524 16.9466 18.0288 17.1446C18.2051 17.3425 18.2956 17.6025 18.2803 17.8672C18.2651 18.1319 18.1452 18.3797 17.9473 18.5561ZM18.2813 14.8101C18.016 14.8101 17.7617 14.7047 17.5741 14.5172C17.3866 14.3296 17.2813 14.0753 17.2813 13.8101C17.2813 12.7561 16.6013 11.8101 16.2813 11.8101C15.9613 11.8101 15.2813 12.7561 15.2813 13.8101C15.2813 14.0753 15.1759 14.3296 14.9884 14.5172C14.8008 14.7047 14.5465 14.8101 14.2813 14.8101C14.016 14.8101 13.7617 14.7047 13.5741 14.5172C13.3866 14.3296 13.2813 14.0753 13.2813 13.8101C13.2813 11.9181 14.5133 9.81006 16.2813 9.81006C18.0493 9.81006 19.2813 11.9181 19.2813 13.8101C19.2813 14.0753 19.1759 14.3296 18.9884 14.5172C18.8008 14.7047 18.5465 14.8101 18.2813 14.8101ZM12.2813 6.81006C9.70125 6.81006 1.28125 6.59406 1.28125 3.81006C1.28125 1.02606 9.70125 0.810059 12.2813 0.810059C14.8613 0.810059 23.2813 1.02606 23.2813 3.81006C23.2813 6.59406 14.8613 6.81006 12.2813 6.81006ZM3.78325 3.81006C5.00525 4.25906 7.92225 4.81006 12.2813 4.81006C16.6403 4.81006 19.5573 4.25906 20.7793 3.81006C19.5573 3.36106 16.6403 2.81006 12.2813 2.81006C7.92225 2.81006 5.00525 3.36106 3.78325 3.81006Z" fill="currentColor"/>
</svg>
