<svg width="25" height="25" viewBox="0 0 25 25" fill="currentColor" xmlns="http://www.w3.org/2000/svg">
<path d="M15.0683 9.81006H15.1403C16.7943 9.81006 18.1402 8.46406 18.1402 6.81006V3.81006C18.1402 2.15606 16.7943 0.810059 15.1403 0.810059H9.14025C7.48825 0.810059 6.14025 2.15606 6.14025 3.81006V6.81006C6.14025 8.46406 7.48725 9.81006 9.14025 9.81006H9.34325L11.1772 11.4271C11.4672 11.6831 11.8293 11.8111 12.1923 11.8111C12.5597 11.8122 12.9149 11.6784 13.1903 11.4351L15.0683 9.81106V9.81006ZM5.64125 18.8101C7.57025 18.8101 9.14025 17.2401 9.14025 15.3101C9.14025 13.3801 7.57025 11.8101 5.64025 11.8101C3.71025 11.8101 2.14025 13.3801 2.14025 15.3101C2.14025 17.2401 3.71125 18.8101 5.64125 18.8101ZM15.1413 15.3101C15.1413 17.2401 16.7112 18.8101 18.6412 18.8101C20.5712 18.8101 22.1412 17.2401 22.1412 15.3101C22.1412 13.3801 20.5712 11.8101 18.6412 11.8101C16.7112 11.8101 15.1413 13.3801 15.1413 15.3101ZM5.64025 19.8101C3.20725 19.8101 1.02325 21.2761 0.20425 23.4591C0.14755 23.6103 0.128338 23.7731 0.148257 23.9334C0.168177 24.0937 0.226635 24.2468 0.31863 24.3796C0.410626 24.5123 0.533419 24.6209 0.676506 24.6958C0.819592 24.7708 0.978711 24.81 1.14025 24.8101H10.1403C10.3016 24.8096 10.4605 24.7701 10.6033 24.695C10.7461 24.6199 10.8687 24.5114 10.9605 24.3787C11.0524 24.246 11.1108 24.0931 11.1307 23.933C11.1507 23.7728 11.1317 23.6102 11.0753 23.4591C10.2573 21.2761 8.07325 19.8101 5.64025 19.8101ZM24.0763 23.4591C23.2603 21.2761 21.0742 19.8101 18.6402 19.8101C16.2072 19.8101 14.0232 21.2761 13.2032 23.4591C13.1465 23.6104 13.1273 23.7732 13.1473 23.9336C13.1673 24.094 13.2258 24.2472 13.3179 24.38C13.41 24.5128 13.533 24.6213 13.6762 24.6962C13.8194 24.7711 13.9786 24.8102 14.1403 24.8101H23.1402C23.3018 24.8099 23.4609 24.7707 23.604 24.6957C23.7471 24.6208 23.8699 24.5123 23.962 24.3795C24.054 24.2468 24.1126 24.0937 24.1327 23.9335C24.1527 23.7732 24.1327 23.6104 24.0763 23.4591Z" fill="currentColor"/>
</svg>
