<?xml version="1.0" encoding="UTF-8"?>
<svg xmlns="http://www.w3.org/2000/svg" xmlns:xlink="http://www.w3.org/1999/xlink" width="140px" height="32px" viewBox="0 0 139 32" version="1.1">
<g id="surface1">
<path style=" stroke:none;fill-rule:nonzero;fill:rgb(26.274511%,26.274511%,26.274511%);fill-opacity:1;" d="M 0 29.761719 C 0 29.351562 0.101562 29.058594 0.359375 28.75 L 10.070312 16.5625 L 0.820312 16.5625 C 0.292969 16.5625 0 16.273438 0 15.742188 L 0 14.648438 C 0 14.117188 0.292969 13.828125 0.820312 13.828125 L 12.988281 13.828125 C 13.515625 13.828125 13.804688 14.117188 13.804688 14.648438 L 13.804688 16 C 13.804688 16.410156 13.703125 16.699219 13.445312 17.007812 L 3.75 29.195312 L 13.003906 29.195312 C 13.535156 29.195312 13.824219 29.488281 13.824219 30.015625 L 13.824219 31.113281 C 13.824219 31.640625 13.535156 31.933594 13.003906 31.933594 L 0.816406 31.933594 C 0.289062 31.933594 0 31.640625 0 31.113281 Z M 19.839844 23.660156 C 20.179688 26.824219 22.769531 29.273438 26.179688 29.273438 C 28.414062 29.273438 30.082031 28.503906 31.6875 27.015625 C 32.078125 26.65625 32.46875 26.636719 32.84375 26.996094 L 33.476562 27.597656 C 33.851562 27.953125 33.886719 28.347656 33.527344 28.742188 C 31.71875 30.691406 29.519531 31.957031 26.265625 31.957031 C 20.519531 31.957031 16.667969 27.820312 16.667969 22.6875 C 16.667969 17.554688 20.640625 13.832031 26.011719 13.832031 C 31.277344 13.832031 35.011719 17.417969 35.011719 22.292969 C 35.011719 22.480469 34.992188 22.703125 34.976562 22.910156 C 34.925781 23.421875 34.601562 23.660156 34.105469 23.660156 Z M 26.011719 16.5625 C 23.0625 16.5625 20.574219 18.257812 19.960938 21.078125 L 31.753906 21.078125 C 31.277344 18.222656 28.691406 16.5625 26.011719 16.5625 M 37.542969 22.6875 C 37.542969 17.554688 41.226562 13.828125 46.253906 13.828125 C 48.945312 13.828125 51.246094 14.613281 52.796875 16.511719 L 52.796875 7.394531 C 52.796875 6.863281 53.089844 6.574219 53.617188 6.574219 L 55.082031 6.574219 C 55.609375 6.574219 55.898438 6.863281 55.898438 7.394531 L 55.898438 31.136719 C 55.898438 31.667969 55.609375 31.957031 55.082031 31.957031 L 53.617188 31.957031 C 53.089844 31.957031 52.796875 31.667969 52.796875 31.136719 L 52.796875 28.863281 C 51.246094 30.761719 48.945312 31.957031 46.253906 31.957031 C 41.222656 31.957031 37.542969 27.820312 37.542969 22.6875 M 40.695312 22.6875 C 40.695312 26.261719 43.304688 29.152344 46.78125 29.152344 C 50.257812 29.152344 52.796875 26.261719 52.796875 22.6875 C 52.796875 19.113281 50.34375 16.566406 46.78125 16.566406 C 43.21875 16.566406 40.695312 19.113281 40.695312 22.6875 M 59.648438 22.6875 C 59.648438 17.367188 63.621094 13.824219 68.699219 13.824219 C 72.601562 13.824219 75.738281 15.398438 76.949219 18.804688 C 77.152344 19.367188 76.828125 19.726562 76.25 19.726562 L 74.632812 19.726562 C 74.171875 19.726562 73.882812 19.507812 73.695312 19.078125 C 72.859375 17.246094 71.085938 16.574219 68.921875 16.574219 C 65.921875 16.574219 62.800781 18.597656 62.800781 22.6875 C 62.800781 26.792969 66.074219 29.167969 69.277344 29.167969 C 71.273438 29.167969 73.148438 28.28125 74.445312 26.636719 C 74.765625 26.226562 75.144531 26.140625 75.585938 26.398438 L 76.285156 26.808594 C 76.746094 27.066406 76.863281 27.476562 76.574219 27.9375 C 74.886719 30.574219 72.246094 31.957031 69.039062 31.957031 C 64.148438 31.957031 59.648438 28.023438 59.648438 22.6875 M 91.125 16.011719 C 91.074219 16.558594 90.75 16.714844 90.1875 16.628906 C 89.871094 16.578125 89.554688 16.554688 89.234375 16.558594 C 86.539062 16.558594 84.085938 18.988281 84.085938 22.082031 L 84.078125 31.140625 C 84.078125 31.671875 83.785156 31.960938 83.257812 31.960938 L 81.792969 31.960938 C 81.261719 31.960938 80.972656 31.671875 80.972656 31.140625 L 80.984375 14.65625 C 80.984375 14.125 81.273438 13.832031 81.800781 13.832031 L 83.265625 13.832031 C 83.796875 13.832031 84.085938 14.125 84.085938 14.65625 L 84.085938 16.953125 C 85.226562 15.171875 87.324219 13.820312 89.8125 13.820312 C 90.050781 13.820312 90.289062 13.820312 90.511719 13.839844 C 91.039062 13.871094 91.296875 14.230469 91.246094 14.746094 Z M 95.742188 23.660156 C 96.085938 26.824219 98.675781 29.273438 102.085938 29.273438 C 104.316406 29.273438 105.988281 28.503906 107.589844 27.015625 C 107.984375 26.65625 108.375 26.636719 108.75 26.996094 L 109.378906 27.597656 C 109.753906 27.953125 109.789062 28.347656 109.429688 28.742188 C 107.625 30.691406 105.425781 31.957031 102.167969 31.957031 C 96.425781 31.957031 92.574219 27.820312 92.574219 22.6875 C 92.574219 17.554688 96.542969 13.824219 101.914062 13.824219 C 107.179688 13.824219 110.914062 17.417969 110.914062 22.292969 C 110.914062 22.480469 110.898438 22.703125 110.878906 22.910156 C 110.828125 23.421875 110.503906 23.660156 110.011719 23.660156 Z M 101.914062 16.566406 C 98.964844 16.566406 96.476562 18.257812 95.863281 21.078125 L 107.65625 21.078125 C 107.179688 18.222656 104.269531 16.566406 101.914062 16.566406 M 114.625 27.578125 C 114.980469 27.152344 115.375 27.152344 115.78125 27.542969 C 116.949219 28.652344 118.488281 29.269531 120.09375 29.273438 C 122.328125 29.273438 123.707031 28.363281 123.707031 26.789062 C 123.707031 25.300781 122.550781 24.671875 119.789062 24.144531 C 115.902344 23.390625 114.042969 21.558594 114.042969 18.804688 C 114.042969 16.019531 116.257812 13.898438 119.957031 13.898438 C 123.0625 13.898438 125.328125 15.332031 126.027344 18.140625 C 126.164062 18.703125 125.855469 19.046875 125.292969 19.046875 L 123.828125 19.046875 C 123.332031 19.046875 123.09375 18.789062 122.941406 18.308594 C 122.601562 17.285156 121.628906 16.582031 120.179688 16.582031 C 118.355469 16.582031 117.144531 17.523438 117.144531 18.855469 C 117.144531 20.125 118.339844 21.167969 120.792969 21.664062 C 124.851562 22.464844 126.808594 23.898438 126.808594 26.839844 C 126.808594 29.832031 124.40625 31.957031 120.296875 31.957031 C 117.691406 31.957031 115.714844 30.933594 114.195312 29.253906 C 113.871094 28.863281 113.890625 28.46875 114.195312 28.09375 Z M 134.789062 25.886719 C 134.789062 28.125 135.742188 29.222656 138.230469 29.222656 C 138.453125 29.222656 138.710938 29.222656 138.964844 29.203125 C 139.511719 29.167969 139.816406 29.441406 139.816406 29.992188 L 139.816406 30.777344 C 139.816406 31.238281 139.628906 31.582031 139.171875 31.71875 C 138.558594 31.875 137.925781 31.957031 137.296875 31.957031 C 133.679688 31.957031 131.6875 30.042969 131.6875 25.917969 L 131.6875 16.566406 L 128.804688 16.566406 C 128.277344 16.566406 127.988281 16.273438 127.988281 15.742188 L 127.988281 14.648438 C 127.988281 14.117188 128.277344 13.828125 128.804688 13.828125 L 131.6875 13.828125 L 131.6875 10.269531 C 131.6875 9.789062 131.925781 9.484375 132.386719 9.363281 L 133.871094 8.953125 C 134.429688 8.796875 134.789062 9.074219 134.789062 9.652344 L 134.789062 13.828125 L 138.996094 13.828125 C 139.523438 13.828125 139.8125 14.117188 139.8125 14.648438 L 139.8125 15.742188 C 139.8125 16.273438 139.523438 16.5625 138.996094 16.5625 L 134.789062 16.5625 Z M 134.789062 25.886719 "/>
<path style=" stroke:none;fill-rule:nonzero;fill:rgb(95.686275%,51.764709%,21.960784%);fill-opacity:1;" d="M 100.929688 0 L 104.238281 0 C 104.695312 0 105.066406 0.371094 105.066406 0.832031 L 105.066406 4.152344 C 105.066406 4.609375 104.695312 4.980469 104.238281 4.980469 L 100.929688 4.980469 C 100.472656 4.980469 100.105469 4.609375 100.105469 4.152344 L 100.105469 0.832031 C 100.105469 0.371094 100.472656 0 100.929688 0 Z M 100.929688 0 "/>
<path style=" stroke:none;fill-rule:nonzero;fill:rgb(9.411765%,69.01961%,80.000001%);fill-opacity:1;" d="M 110.859375 0 L 114.167969 0 C 114.625 0 114.996094 0.371094 114.996094 0.832031 L 114.996094 4.152344 C 114.996094 4.609375 114.625 4.980469 114.167969 4.980469 L 110.859375 4.980469 C 110.402344 4.980469 110.03125 4.609375 110.03125 4.152344 L 110.03125 0.832031 C 110.03125 0.371094 110.402344 0 110.859375 0 Z M 110.859375 0 "/>
<path style=" stroke:none;fill-rule:nonzero;fill:rgb(26.274511%,26.274511%,26.274511%);fill-opacity:1;" d="M 120.785156 0 L 124.09375 0 C 124.550781 0 124.921875 0.371094 124.921875 0.832031 L 124.921875 4.152344 C 124.921875 4.609375 124.550781 4.980469 124.09375 4.980469 L 120.785156 4.980469 C 120.328125 4.980469 119.957031 4.609375 119.957031 4.152344 L 119.957031 0.832031 C 119.957031 0.371094 120.328125 0 120.785156 0 Z M 120.785156 0 "/>
</g>
</svg>
