<svg width="222" height="32" viewBox="0 0 222 32" fill="none" xmlns="http://www.w3.org/2000/svg">
<g clip-path="url(#clip0_851_7561)">
<path d="M175.552 13.504C175.744 13.44 176 13.312 176.192 13.248C185.92 9.59998 213.568 5.50398 200 23.808C199.744 24.128 199.488 24.448 199.232 24.832C247.232 -6.46402 206.08 -5.76002 175.552 13.504Z" fill="black"/>
<path d="M123.968 26.048V22.464C123.968 18.624 121.472 16.384 115.968 16.384H99.0081V20.992H112.704C114.048 20.992 114.56 21.376 114.56 22.464V22.656H103.68C99.0721 22.656 97.6001 24.576 97.6001 27.072V27.648C97.6001 28.736 97.9201 29.696 98.5601 30.336C99.9041 31.616 102.4 32 105.856 32H115.328C121.472 32 123.968 30.528 123.968 26.048ZM113.088 27.456H107.968C107.072 27.456 106.496 27.2 106.496 26.496C106.496 25.792 106.88 25.344 107.968 25.344H114.496V26.048C114.496 26.88 114.112 27.456 113.088 27.456Z" fill="black"/>
<path d="M142.336 23.0399V25.7279C142.336 29.6959 144.832 31.8719 150.336 31.8719H167.68V27.3279H153.728C152.256 27.3279 151.808 26.8159 151.808 25.7919V25.6639H162.688C166.528 25.6639 168.832 24.3199 168.832 21.4399V20.8639C168.832 18.2399 167.36 16.3199 160.768 16.3199H151.04C144.96 16.3839 142.336 18.4959 142.336 23.0399ZM153.216 20.9279H158.4C159.296 20.9279 159.872 21.2479 159.872 21.8879C159.872 22.5919 159.616 22.9759 158.4 22.9759H151.744V22.3999C151.808 21.5039 152.192 20.9279 153.216 20.9279Z" fill="black"/>
<path d="M141.376 16.5759H129.152C127.232 16.5759 125.952 17.6639 125.952 19.3919V31.8079H135.424V21.3119H141.376V16.5759Z" fill="black"/>
<path d="M88.8961 13.76H79.3601V31.68H96.1281V27.072H88.8961V13.76Z" fill="black"/>
<path d="M77.1841 21.312H64.7681C63.4241 21.312 62.3361 22.08 62.3361 24.128C62.3361 26.432 63.6161 27.136 64.8321 27.136H77.2481V31.744H62.0161C55.5521 31.744 52.7361 29.824 52.7361 24.832V23.68C52.7361 19.456 55.3601 16.64 61.6961 16.64H77.1201V21.312" fill="black"/>
<path d="M31.424 31.68L41.472 22.592V31.68H50.944V13.76H45.44C43.136 13.76 41.472 14.72 39.936 16.064C38.144 17.664 31.872 23.04 31.872 23.04V13.76H26.304C23.104 13.76 21.568 14.912 19.776 16.256C18.56 17.28 0 31.68 0 31.68H11.264L22.336 22.528V31.68H31.424Z" fill="black"/>
<path d="M170.688 31.8079V16.5759H185.728C193.344 16.5759 195.968 18.1119 195.968 23.4879V31.8079H186.496V25.0879C186.496 23.2319 185.536 21.6319 182.72 21.6319H180.096V31.8719H170.688" fill="black"/>
</g>
<defs>
<clipPath id="clip0_851_7561">
<rect width="221.184" height="32" fill="white"/>
</clipPath>
</defs>
</svg>
