<svg width="126" height="32" viewBox="0 0 126 32" fill="none" xmlns="http://www.w3.org/2000/svg">
<g clip-path="url(#clip0_229_1996)">
<path d="M18.0131 17.0497C16.9717 18.094 15.5854 18.7229 14.1137 18.8186V18.8335H13.8221C13.7452 18.8349 13.6683 18.8349 13.5912 18.8335H7.61643V12.8556C7.61498 12.7792 7.61498 12.7027 7.61643 12.6262V12.3346H7.63135C7.69599 11.3513 7.99816 10.3984 8.51194 9.55746C9.02572 8.71657 9.73578 8.01283 10.5812 7.5066C11.4267 7.00037 12.3823 6.70675 13.3662 6.65092C14.35 6.59509 15.3327 6.77871 16.23 7.18604C17.1273 7.59337 17.9125 8.21226 18.5181 8.98963C19.1237 9.767 19.5317 10.6797 19.7072 11.6493C19.8827 12.619 19.8203 13.6168 19.5255 14.5571C19.2307 15.4974 18.7123 16.3522 18.0146 17.0481M13.7068 0C12.0333 -1.79865e-07 10.3761 0.329725 8.83005 0.97034C7.28397 1.61095 5.87927 2.5499 4.69617 3.73355C3.51307 4.91719 2.57477 6.32234 1.93488 7.86871C1.29498 9.41508 0.966022 11.0724 0.966798 12.7459V32.0009H1.08804C2.81948 32.0009 4.48 31.3131 5.70431 30.0888C6.92862 28.8645 7.61643 27.204 7.61643 25.4725H13.122C16.4999 25.5501 19.7702 24.2826 22.2136 21.9489C24.6569 19.6152 26.0731 16.4065 26.1507 13.0286C26.2282 9.65078 24.9608 6.38046 22.6271 3.93711C20.2934 1.49376 17.0847 0.0775437 13.7068 0Z" fill="#434343"/>
<path d="M37.1233 11.4965V15.2892H39.7627C41.2698 15.2892 42.149 14.7119 42.149 13.4046C42.149 12.0722 41.2695 11.4949 39.7627 11.4949H37.1233V11.4965ZM39.2849 7.24805C44.035 7.24805 47.603 8.4558 47.603 13.4062C47.603 18.3566 44.035 19.5363 39.2864 19.5363H37.1249V25.4654H31.8711V7.24805H39.2864H39.2849ZM57.1633 19.4108C54.4736 19.587 53.0909 20.0132 53.0909 21.1946C53.0909 21.7719 53.569 22.4262 54.7488 22.4262C56.0575 22.4262 57.1618 21.8978 57.1618 19.8149V19.4108H57.1633ZM56.9886 16.5196C56.9886 15.0377 56.0591 14.7358 54.9754 14.7358C53.6933 14.7358 52.8645 15.2879 52.6911 16.4692H48.3699C48.5713 13.9319 50.8836 11.4685 55.3304 11.4685C59.2002 11.4685 61.9891 12.9265 61.912 17.4491L61.8883 20.0384V21.3693C61.8884 22.7385 61.9724 24.1064 62.1401 25.4654H57.4649V23.708C56.4583 25.2164 54.7752 25.794 52.8639 25.794C50.2258 25.794 48.0394 24.1597 48.0394 21.7482C48.0394 18.5832 51.2533 17.3027 56.9867 16.8986V16.5224L56.9886 16.5196ZM63.8161 29.8621V26.4972H65.3484C66.3786 26.4972 66.8819 26.4216 67.1086 25.72L67.1825 25.5425L62.3578 11.9466H67.3585L69.8959 20.5921L72.4081 11.9466H77.3081L72.7099 25.0892C71.2295 29.2341 68.9172 29.8649 65.6251 29.8649H63.8161V29.8621ZM84.8369 15.393C83.4025 15.393 82.4978 16.7994 82.4978 18.7091C82.4978 20.6188 83.4025 22.0516 84.8369 22.0516C86.2433 22.0516 87.2735 20.746 87.2735 18.7103C87.2735 16.6747 86.2445 15.3914 84.8369 15.3914V15.393ZM87.0991 7.24805H92.1235V25.4654H87.0991V23.6076C86.4951 24.7889 85.0371 25.7955 83.0266 25.7955C80.0111 25.7955 77.12 23.3825 77.12 18.7076C77.12 14.0326 80.0111 11.6463 83.0266 11.6463C85.0355 11.6463 86.4935 12.6501 87.0991 13.8327V7.24805ZM98.8605 17.0717H104.086C103.962 15.4626 102.603 14.8853 101.521 14.8853C100.888 14.8673 100.27 15.079 99.7811 15.4811C99.2922 15.8833 98.9653 16.4488 98.8608 17.0733M93.9088 18.5285C93.9088 14.2073 97.1006 11.4436 101.197 11.4436C105.919 11.4436 108.86 15.1608 108.533 19.8625H98.7849C98.9596 21.2421 99.9159 22.1216 101.499 22.1216C102.478 22.1216 103.482 21.645 103.784 20.9166H108.506C107.904 22.9003 105.646 25.8167 101.423 25.8167C96.6486 25.8167 93.9085 22.776 93.9085 18.5288M115.292 7.25084V16.4469L119.538 11.9482H125.193L120.219 17.1236L125.317 25.4685H119.614L116.75 20.718L115.289 22.2515V25.4682H110.267V7.24805L115.292 7.25084Z" fill="#434343"/>
</g>
<defs>
<clipPath id="clip0_229_1996">
<rect width="124.35" height="32" fill="white" transform="translate(0.966797)"/>
</clipPath>
</defs>
</svg>
