<svg width="120" height="32" viewBox="0 0 120 32" fill="none" xmlns="http://www.w3.org/2000/svg">
<g clip-path="url(#clip0_229_2020)">
<path d="M92.6606 29.0351C94.3359 29.1652 96.0046 29.3031 97.6799 29.452V0H92.6606V29.0351ZM11.9587 18.1058L5.42547 0H0.660156V31.994C2.32802 31.7585 3.99826 31.5288 5.67952 31.3117V13.9129L11.4873 30.5984C13.3115 30.3875 15.1479 30.1814 16.9784 29.9968V0H11.9587V18.1058ZM21.7991 29.5313C26.4215 29.1095 31.0666 28.7643 35.7344 28.4954V23.5514C32.7561 23.725 29.7777 23.9296 26.8185 24.1593V16.6837C28.7606 16.6649 31.3229 16.603 33.5939 16.6339V11.6899C31.7821 11.6837 28.8661 11.7146 26.8185 11.7397V4.9869H35.7344V0H21.7991V29.5313ZM38.9542 4.9869H44.2032V28.0987C45.8723 28.0367 47.5454 27.983 49.2226 27.9376V4.9869H54.4719V0H38.9548L38.9542 4.9869ZM57.6858 27.8009H62.7052V16.3939H69.5053V11.4499H62.6986V4.9869H71.689V0H57.6858V27.8009ZM119.787 0H114.277L110.648 8.41704L107.378 0H101.949L107.781 15.0405L101.422 29.7981C103.184 29.9719 104.941 30.1538 106.695 30.3441L110.399 21.7665L114.066 31.2256C115.977 31.4737 117.882 31.7281 119.787 32L119.793 31.9937L113.26 15.1472L119.787 0ZM79.9229 0H74.9098V28.049C79.47 28.204 84.0096 28.4336 88.5287 28.7375V23.7938C85.6684 23.6014 82.7997 23.4402 79.9229 23.3101V0Z" fill="#434343"/>
</g>
<defs>
<clipPath id="clip0_229_2020">
<rect width="119.133" height="32" fill="white" transform="translate(0.660156)"/>
</clipPath>
</defs>
</svg>
