<svg width="274" height="32" viewBox="0 0 274 32" fill="none" xmlns="http://www.w3.org/2000/svg">
<g clip-path="url(#clip0_229_2022)">
<path d="M204.659 31.9183C204.659 31.8353 206.837 25.9522 212.997 9.43181L216.469 0.122559H229.91L231.476 4.16621C234.345 11.5864 242.088 31.8319 242.088 31.917C242.088 31.9626 239.35 32 236.003 32H229.915L227.136 24.1483C223.191 13.0023 223.246 13.1487 223.081 13.3203C222.999 13.406 221.576 17.3687 219.919 22.1271C218.262 26.8856 216.808 31.0531 216.688 31.3894L216.469 32.0021H210.564C207.316 32.0021 204.658 31.9653 204.658 31.9211L204.659 31.9183Z" fill="#434343"/>
<path d="M10.0093 20.6219V9.24387H0.793945V0.0285645H31.6367V9.24387H22.6092V32H10.0093V20.6219ZM29.2575 30.7991C29.4971 30.1388 32.1847 22.9467 35.2256 14.8165L40.758 0.0346912H47.4546H54.1511L57.8707 9.76941C59.9164 15.1221 62.636 22.2407 63.9158 25.588C65.1956 28.9352 66.2412 31.7508 66.2412 31.8441C64.229 32.0046 62.209 32.0446 60.1921 31.9639L54.1429 31.9142L50.8862 22.7922C49.0952 17.7757 47.5628 13.5163 47.4825 13.3297C47.3756 13.084 46.3933 15.7049 44.0467 22.496L40.758 31.9959H34.7899H28.8218L29.2575 30.7991ZM72.8254 20.6219V9.24387H63.796V0.0285645H94.4508V9.24387H85.6113V32H72.8234L72.8254 20.6219ZM91.6318 31.9183C91.6318 31.8352 93.8102 25.9522 99.9703 9.43176L103.442 0.122508H116.883L118.449 4.16616C121.317 11.5863 129.061 31.8318 129.061 31.9169C129.061 31.9625 126.323 32 122.976 32H116.892L114.114 24.1482C110.169 13.0023 110.224 13.1487 110.059 13.3202C109.977 13.406 108.554 17.3686 106.897 22.1271C105.24 26.8855 103.786 31.053 103.665 31.3893L103.447 32.002H97.5353C94.2874 32.002 91.6298 31.9653 91.6298 31.921L91.6318 31.9183Z" fill="#434343"/>
<path d="M145.229 0V31.9993H155.76V24.5158L159.569 24.428C163.883 24.3286 164.872 24.1407 167.397 22.9379C168.862 22.2085 170.148 21.164 171.162 19.8792C172.176 18.5945 172.893 17.1013 173.262 15.5068C173.743 13.2971 173.775 11.0134 173.356 8.7912C172.416 4.73529 169.401 1.81147 164.872 0.560257C163.449 0.167464 162.94 0.143638 154.303 0.0742017L145.229 0ZM155.76 9.05397H157.876C160.463 9.05397 161.285 9.26705 162.18 10.1622C162.537 10.5554 162.8 11.0245 162.949 11.5342C163.099 12.0439 163.13 12.5809 163.041 13.1045C162.953 13.6282 162.746 14.1249 162.438 14.5571C162.129 14.9893 161.726 15.3457 161.259 15.5994C160.599 15.9636 160.094 16.0514 158.116 16.144L155.76 16.2549V9.05397ZM177.764 16.0126V0.0285915H188.86V22.7847H201.084V31.9993H177.764L177.764 16.0126ZM248.852 27.5329V23.0665L243.127 11.5476L237.402 0.0285915L243.363 0.0374412L249.323 0.046291L252.224 6.05867C253.819 9.36371 255.186 12.0676 255.261 12.0676C255.336 12.0676 256.809 9.35963 258.535 6.04982L261.673 0.0319952H273.094L272.381 1.30159C271.918 2.12848 271.463 2.95899 271.013 3.79314C270.653 4.46572 268.143 9.08188 265.435 14.052L260.512 23.0883V31.9993H248.853L248.852 27.5329Z" fill="#434343"/>
</g>
<defs>
<clipPath id="clip0_229_2022">
<rect width="272.3" height="32" fill="white" transform="translate(0.793945)"/>
</clipPath>
</defs>
</svg>
