<svg width="122" height="32" viewBox="0 0 122 32" fill="none" xmlns="http://www.w3.org/2000/svg">
<g clip-path="url(#clip0_229_2026)">
<mask id="mask0_229_2026" style="mask-type:luminance" maskUnits="userSpaceOnUse" x="0" y="0" width="122" height="32">
<path d="M121.999 0H0.09375V32H121.999V0Z" fill="white"/>
</mask>
<g mask="url(#mask0_229_2026)">
<path d="M89.565 30.8806V29.1193H92.2844V28.0597H89.565V26.4225H92.925V25.3622H88.4045V31.9396H92.9253V30.88L89.565 30.8806ZM79.93 26.4432C80.0855 26.4341 80.2412 26.4575 80.3871 26.5118C80.5339 26.5665 80.6679 26.6508 80.7806 26.7596C80.8942 26.869 80.9844 27.0004 81.0457 27.1457C81.1074 27.2918 81.1392 27.4487 81.1392 27.6073C81.1392 27.7658 81.1074 27.9228 81.0457 28.0688C80.9844 28.2142 80.8942 28.3455 80.7806 28.455C80.6679 28.5637 80.5339 28.6481 80.3871 28.7027C80.2412 28.757 80.0855 28.7804 79.93 28.7713H78.1928V26.4432H79.93ZM77.0348 31.9414H78.195V29.8404H79.9215C81.3697 29.8404 82.3071 28.9603 82.3071 27.5879C82.3071 26.2442 81.3605 25.3632 79.9215 25.3632H77.0341L77.0348 31.9414ZM65.0881 25.3641V29.3958C65.0881 31.0141 66.2392 32.0362 67.8727 32.0362C69.5062 32.0362 70.6576 31.014 70.6576 29.4052V25.3641H69.5059V29.4052C69.5059 30.2948 68.8933 30.9385 67.8727 30.9385C66.8703 30.9385 66.2483 30.2951 66.2483 29.3958V25.3628L65.0881 25.3641ZM55.7124 30.9376C55.1307 30.9129 54.5819 30.6613 54.1837 30.2366C53.7817 29.8068 53.558 29.2403 53.558 28.6518C53.558 28.0633 53.7817 27.4969 54.1837 27.0671C54.5819 26.6424 55.1307 26.3908 55.7124 26.3661C56.9284 26.3661 57.8564 27.303 57.8564 28.6558C57.8711 28.9511 57.8265 29.2463 57.725 29.5241C57.6245 29.8004 57.469 30.0534 57.2679 30.268C57.0681 30.4809 56.8266 30.6504 56.5584 30.766C56.2916 30.8809 56.0038 30.939 55.7133 30.9366L55.7124 30.9376ZM55.7124 25.269C55.0552 25.2722 54.4143 25.4731 53.8729 25.8456C53.3267 26.2217 52.9036 26.7506 52.6565 27.366C52.4076 27.9855 52.344 28.664 52.4737 29.319C52.6016 29.9718 52.9179 30.5729 53.3837 31.0479C53.845 31.5181 54.4364 31.8396 55.0818 31.971C55.7251 32.1009 56.3925 32.0336 56.997 31.7781C57.6054 31.52 58.1234 31.0869 58.4851 30.5337C58.8505 29.9759 59.0453 29.3236 59.0459 28.6567C59.0558 28.2087 58.9763 27.7632 58.8121 27.3462C58.6489 26.9313 58.4037 26.5535 58.0914 26.2354C57.7808 25.9194 57.4089 25.6704 56.9985 25.5036C56.5905 25.3376 56.1527 25.2577 55.7124 25.269ZM44.0815 26.4432C44.861 26.4432 45.288 26.9162 45.288 27.5139C45.288 28.1383 44.8702 28.611 44.0815 28.611H42.5311V26.4432H44.0815ZM41.3709 31.9414H42.5311V29.688H43.8584L45.5013 31.9402H46.8752L45.0085 29.4323C45.4359 29.3203 45.8117 29.0646 46.0728 28.7082C46.3368 28.3483 46.472 27.91 46.4568 27.4639C46.4568 26.1839 45.5193 25.3628 44.0714 25.3628H41.3703L41.3709 31.9414ZM35.1425 28.373H32.367V29.3482H34.056V30.6541C33.6185 30.8615 33.138 30.9621 32.6541 30.9476C31.3269 30.9476 30.3428 30.0943 30.3428 28.6479C30.3338 28.3475 30.3849 28.0483 30.4933 27.768C30.601 27.4895 30.7637 27.2355 30.9718 27.0214C31.1785 26.8086 31.4266 26.6405 31.7008 26.5273C31.9735 26.4147 32.2665 26.3598 32.5615 26.3661C32.8954 26.3558 33.2278 26.4142 33.5382 26.5377C33.8503 26.6622 34.1338 26.8488 34.3714 27.0863L35.0587 26.2061C34.3814 25.5784 33.4846 25.2418 32.5615 25.269C32.1134 25.2561 31.6674 25.3345 31.2506 25.4995C30.8338 25.6645 30.455 25.9126 30.1371 26.2286C29.8193 26.5447 29.5691 26.9222 29.4018 27.338C29.2345 27.7539 29.1536 28.1994 29.164 28.6476C29.164 30.7011 30.6122 32.0356 32.6544 32.0356C33.5388 32.0441 34.4054 31.7869 35.1419 31.2972L35.1425 28.373Z" fill="#434343"/>
<path d="M66.418 20.975H82.1498V19.0169H69.1139V12.7467H78.9053V10.7657H69.1139V4.9896H82.1486V3.03638H66.418V20.975Z" fill="#434343"/>
<path d="M74.5929 0.136841L72.4639 2.57494L79.1503 0.136841H74.5929Z" fill="#434343"/>
<path d="M106.102 3.03699V20.9744H122.005V19.0163H108.559V3.03699H106.102Z" fill="#434343"/>
<path d="M92.3431 3.03699L83.3975 20.9753H86.421L88.7098 16.3322H99.4398L101.748 20.9753H104.741L95.7869 3.03699H92.3431ZM89.842 14.084L94.0571 5.51592L98.3238 14.084H89.842Z" fill="#434343"/>
<path d="M57.8806 13.475C61.9116 12.3779 62.3027 9.31929 62.2828 8.22672C62.0424 5.02245 59.9243 3.03723 56.1193 3.03723H45.0303V20.9746H47.5598V13.4488H54.7769L60.0873 20.9719H63.2745C63.2745 20.9719 59.4537 15.9079 57.8803 13.4723L57.8806 13.475ZM55.7737 11.3277H47.5577V5.16051H56.0605C58.0165 5.16051 59.1185 6.09186 59.515 7.27525C59.6332 7.70989 59.664 8.16364 59.6057 8.61026C59.5474 9.05689 59.4012 9.48754 59.1755 9.87731C58.4648 11.0762 57.1153 11.3301 55.7734 11.3301" fill="#434343"/>
<path d="M29.7523 20.2612C28.5616 20.2598 27.383 20.0226 26.2846 19.5631C25.1862 19.1036 24.1897 18.431 23.3528 17.5842C22.5158 16.7373 21.855 15.733 21.4084 14.6293C20.9619 13.5255 20.7384 12.3443 20.7511 11.1537C20.7637 9.9631 21.0122 8.78683 21.4821 7.69282C21.952 6.59882 22.634 5.60878 23.4888 4.7799C24.3435 3.95102 25.354 3.29974 26.462 2.86368C27.5699 2.42763 28.7532 2.21544 29.9436 2.23939C31.1238 2.2294 32.2938 2.45743 33.3838 2.90987C34.4791 3.36525 35.4725 4.03456 36.3059 4.87863C37.1453 5.72873 37.8095 6.73555 38.2606 7.84183C38.7139 8.95379 38.9466 10.1433 38.9457 11.3442C38.9457 16.2167 34.6885 20.2612 29.7523 20.2612ZM29.8379 0C22.7019 0 17.8379 5.12975 17.8379 11.3371C17.8379 17.8734 23.2115 22.4881 29.8379 22.4881C36.4643 22.4881 41.8315 17.941 41.8315 11.3371C41.8315 5.12975 36.9081 0 29.8379 0Z" fill="#434343"/>
<path d="M11.4717 9.38268H13.2954L16.6066 3.03723H13.9421L11.4717 9.38268Z" fill="#434343"/>
<path d="M0.09375 3.03699V20.9744H15.9959V19.0163H2.55379V3.03699H0.09375Z" fill="#434343"/>
</g>
</g>
<defs>
<clipPath id="clip0_229_2026">
<rect width="121.905" height="32" fill="white" transform="translate(0.09375)"/>
</clipPath>
</defs>
</svg>
