<svg width="25" height="24" viewBox="0 0 25 24" fill="none" xmlns="http://www.w3.org/2000/svg">
<path d="M16.2203 13.6764C16.0066 13.5752 14.9828 13.0689 14.7916 12.9902C14.6003 12.9114 14.4653 12.8889 14.3191 13.1027C14.1728 13.3164 13.7791 13.7777 13.6553 13.9239C13.5316 14.0702 13.4191 14.0814 13.2053 13.9239C12.5914 13.6775 12.0244 13.3274 11.5291 12.8889C11.0807 12.4668 10.7011 11.9771 10.4041 11.4377C10.2803 11.2352 10.4041 11.1227 10.4941 11.0102C10.5841 10.8977 10.6966 10.7739 10.8091 10.6502C10.8913 10.5431 10.9594 10.4259 11.0116 10.3014C11.0395 10.2435 11.054 10.1801 11.054 10.1158C11.054 10.0515 11.0395 9.98806 11.0116 9.93016C11.0116 9.82891 10.5391 8.80516 10.3591 8.38891C10.1791 7.97266 10.0216 8.02891 9.89781 8.02891H9.44781C9.23344 8.03727 9.03115 8.13033 8.88531 8.28766C8.64991 8.51229 8.46346 8.78313 8.33762 9.08319C8.21179 9.38325 8.1493 9.70607 8.15406 10.0314C8.21161 10.8301 8.50529 11.5937 8.99781 12.2252C9.9016 13.5678 11.1381 14.6531 12.5866 15.3752C13.0816 15.5889 13.4641 15.7127 13.7678 15.8139C14.1943 15.9428 14.6452 15.9698 15.0841 15.8927C15.3755 15.8335 15.6518 15.7151 15.8956 15.5448C16.1394 15.3745 16.3457 15.156 16.5016 14.9027C16.6313 14.5898 16.674 14.2478 16.6253 13.9127C16.5691 13.8339 16.4341 13.7777 16.2203 13.6764Z" fill="black"/>
<path d="M18.3241 6.0148C17.546 5.22942 16.6186 4.60779 15.5965 4.18658C14.5744 3.76536 13.4783 3.5531 12.3728 3.5623C10.9084 3.56996 9.47161 3.96171 8.20597 4.69842C6.94033 5.43512 5.89013 6.491 5.16025 7.76059C4.43038 9.03018 4.04638 10.4691 4.04661 11.9335C4.04684 13.3979 4.43129 14.8367 5.16156 16.106L4.03656 20.4373L8.46906 19.3123C9.69445 19.9791 11.0678 20.3273 12.4628 20.3248H12.3728C14.0355 20.3356 15.6637 19.851 17.0498 18.9328C18.4359 18.0145 19.5172 16.7043 20.1557 15.169C20.7941 13.6338 20.9609 11.9432 20.6347 10.3128C20.3085 8.68246 19.5041 7.18617 18.3241 6.0148ZM12.3728 18.8848C11.1247 18.8858 9.89976 18.5475 8.82906 17.906L8.58156 17.7598L5.94906 18.446L6.64656 15.881L6.48906 15.6223C5.59059 14.1754 5.2545 12.449 5.54456 10.7706C5.83463 9.09233 6.73067 7.57887 8.06267 6.51743C9.39467 5.45599 11.07 4.92042 12.7707 5.01233C14.4714 5.10424 16.0792 5.81724 17.2891 7.01605C17.9377 7.65943 18.4517 8.42546 18.8013 9.2695C19.1509 10.1135 19.329 11.0187 19.3253 11.9323C19.3223 13.7753 18.5889 15.542 17.2857 16.8452C15.9825 18.1484 14.2158 18.8818 12.3728 18.8848Z" fill="black"/>
</svg>
