<svg width="1440" height="882" viewBox="0 0 1440 882" fill="none" xmlns="http://www.w3.org/2000/svg">
<g opacity="0.59">
<g clip-path="url(#clip0_229_1649)">
<path d="M2.54004 2H160V126H2.54004V2Z" fill="white"/>
<path d="M0 1H160M1.26984 0V126M54.6032 0V126M107.937 0V126M0 43H160M0 85H160" stroke="#E8E8E8" stroke-opacity="0.7" stroke-width="2"/>
</g>
<g clip-path="url(#clip1_229_1649)">
<path d="M162.54 2H320V126H162.54V2Z" fill="white"/>
<path d="M160 1H320M161.27 0V126M214.603 0V126M267.937 0V126M160 43H320M160 85H320" stroke="#E8E8E8" stroke-opacity="0.7" stroke-width="2"/>
</g>
<g clip-path="url(#clip2_229_1649)">
<path d="M322.54 2H480V126H322.54V2Z" fill="white"/>
<path d="M320 1H480M321.27 0V126M374.603 0V126M427.937 0V126M320 43H480M320 85H480" stroke="#E8E8E8" stroke-opacity="0.7" stroke-width="2"/>
</g>
<g clip-path="url(#clip3_229_1649)">
<path d="M482.54 2H640V126H482.54V2Z" fill="white"/>
<path d="M480 1H640M481.27 0V126M534.603 0V126M587.937 0V126M480 43H640M480 85H640" stroke="#E8E8E8" stroke-opacity="0.7" stroke-width="2"/>
</g>
<g clip-path="url(#clip4_229_1649)">
<path d="M642.54 2H800V126H642.54V2Z" fill="white"/>
<path d="M640 1H800M641.27 0V126M694.603 0V126M747.937 0V126M640 43H800M640 85H800" stroke="#E8E8E8" stroke-opacity="0.7" stroke-width="2"/>
</g>
<g clip-path="url(#clip5_229_1649)">
<path d="M802.54 2H960V126H802.54V2Z" fill="white"/>
<path d="M800 1H960M801.27 0V126M854.603 0V126M907.937 0V126M800 43H960M800 85H960" stroke="#E8E8E8" stroke-opacity="0.7" stroke-width="2"/>
</g>
<g clip-path="url(#clip6_229_1649)">
<path d="M962.54 2H1120V126H962.54V2Z" fill="white"/>
<path d="M960 1H1120M961.27 0V126M1014.6 0V126M1067.94 0V126M960 43H1120M960 85H1120" stroke="#E8E8E8" stroke-opacity="0.7" stroke-width="2"/>
</g>
<g clip-path="url(#clip7_229_1649)">
<path d="M1122.54 2H1280V126H1122.54V2Z" fill="white"/>
<path d="M1120 1H1280M1121.27 0V126M1174.6 0V126M1227.94 0V126M1120 43H1280M1120 85H1280" stroke="#E8E8E8" stroke-opacity="0.7" stroke-width="2"/>
</g>
<g clip-path="url(#clip8_229_1649)">
<path d="M1282.54 2H1440V126H1282.54V2Z" fill="white"/>
<path d="M1280 1H1440M1281.27 0V126M1334.6 0V126M1387.94 0V126M1280 43H1440M1280 85H1440" stroke="#E8E8E8" stroke-opacity="0.7" stroke-width="2"/>
</g>
<g clip-path="url(#clip9_229_1649)">
<path d="M2.54004 128H160V252H2.54004V128Z" fill="white"/>
<path d="M0 127H160M1.26984 126V252M54.6032 126V252M107.937 126V252M0 169H160M0 211H160" stroke="#E8E8E8" stroke-opacity="0.6" stroke-width="2"/>
</g>
<g clip-path="url(#clip10_229_1649)">
<path d="M162.54 128H320V252H162.54V128Z" fill="white"/>
<path d="M160 127H320M161.27 126V252M214.603 126V252M267.937 126V252M160 169H320M160 211H320" stroke="#E8E8E8" stroke-opacity="0.6" stroke-width="2"/>
</g>
<g clip-path="url(#clip11_229_1649)">
<path d="M322.54 128H480V252H322.54V128Z" fill="white"/>
<path d="M320 127H480M321.27 126V252M374.603 126V252M427.937 126V252M320 169H480M320 211H480" stroke="#E8E8E8" stroke-opacity="0.6" stroke-width="2"/>
</g>
<g clip-path="url(#clip12_229_1649)">
<path d="M482.54 128H640V252H482.54V128Z" fill="white"/>
<path d="M480 127H640M481.27 126V252M534.603 126V252M587.937 126V252M480 169H640M480 211H640" stroke="#E8E8E8" stroke-opacity="0.6" stroke-width="2"/>
</g>
<g clip-path="url(#clip13_229_1649)">
<path d="M642.54 128H800V252H642.54V128Z" fill="white"/>
<path d="M640 127H800M641.27 126V252M694.603 126V252M747.937 126V252M640 169H800M640 211H800" stroke="#E8E8E8" stroke-opacity="0.6" stroke-width="2"/>
</g>
<g clip-path="url(#clip14_229_1649)">
<path d="M802.54 128H960V252H802.54V128Z" fill="white"/>
<path d="M800 127H960M801.27 126V252M854.603 126V252M907.937 126V252M800 169H960M800 211H960" stroke="#E8E8E8" stroke-opacity="0.6" stroke-width="2"/>
</g>
<g clip-path="url(#clip15_229_1649)">
<path d="M962.54 128H1120V252H962.54V128Z" fill="white"/>
<path d="M960 127H1120M961.27 126V252M1014.6 126V252M1067.94 126V252M960 169H1120M960 211H1120" stroke="#E8E8E8" stroke-opacity="0.6" stroke-width="2"/>
</g>
<g clip-path="url(#clip16_229_1649)">
<path d="M1122.54 128H1280V252H1122.54V128Z" fill="white"/>
<path d="M1120 127H1280M1121.27 126V252M1174.6 126V252M1227.94 126V252M1120 169H1280M1120 211H1280" stroke="#E8E8E8" stroke-opacity="0.6" stroke-width="2"/>
</g>
<g clip-path="url(#clip17_229_1649)">
<path d="M1282.54 128H1440V252H1282.54V128Z" fill="white"/>
<path d="M1280 127H1440M1281.27 126V252M1334.6 126V252M1387.94 126V252M1280 169H1440M1280 211H1440" stroke="#E8E8E8" stroke-opacity="0.6" stroke-width="2"/>
</g>
<g clip-path="url(#clip18_229_1649)">
<path d="M2.54004 254H160V378H2.54004V254Z" fill="white"/>
<path d="M0 253H160M1.26984 252V378M54.6032 252V378M107.937 252V378M0 295H160M0 337H160" stroke="#E8E8E8" stroke-opacity="0.5" stroke-width="2"/>
</g>
<g clip-path="url(#clip19_229_1649)">
<path d="M162.54 254H320V378H162.54V254Z" fill="white"/>
<path d="M160 253H320M161.27 252V378M214.603 252V378M267.937 252V378M160 295H320M160 337H320" stroke="#E8E8E8" stroke-opacity="0.5" stroke-width="2"/>
</g>
<g clip-path="url(#clip20_229_1649)">
<path d="M322.54 254H480V378H322.54V254Z" fill="white"/>
<path d="M320 253H480M321.27 252V378M374.603 252V378M427.937 252V378M320 295H480M320 337H480" stroke="#E8E8E8" stroke-opacity="0.5" stroke-width="2"/>
</g>
<g clip-path="url(#clip21_229_1649)">
<path d="M482.54 254H640V378H482.54V254Z" fill="white"/>
<path d="M480 253H640M481.27 252V378M534.603 252V378M587.937 252V378M480 295H640M480 337H640" stroke="#E8E8E8" stroke-opacity="0.5" stroke-width="2"/>
</g>
<g clip-path="url(#clip22_229_1649)">
<path d="M642.54 254H800V378H642.54V254Z" fill="white"/>
<path d="M640 253H800M641.27 252V378M694.603 252V378M747.937 252V378M640 295H800M640 337H800" stroke="#E8E8E8" stroke-opacity="0.5" stroke-width="2"/>
</g>
<g clip-path="url(#clip23_229_1649)">
<path d="M802.54 254H960V378H802.54V254Z" fill="white"/>
<path d="M800 253H960M801.27 252V378M854.603 252V378M907.937 252V378M800 295H960M800 337H960" stroke="#E8E8E8" stroke-opacity="0.5" stroke-width="2"/>
</g>
<g clip-path="url(#clip24_229_1649)">
<path d="M962.54 254H1120V378H962.54V254Z" fill="white"/>
<path d="M960 253H1120M961.27 252V378M1014.6 252V378M1067.94 252V378M960 295H1120M960 337H1120" stroke="#E8E8E8" stroke-opacity="0.5" stroke-width="2"/>
</g>
<g clip-path="url(#clip25_229_1649)">
<path d="M1122.54 254H1280V378H1122.54V254Z" fill="white"/>
<path d="M1120 253H1280M1121.27 252V378M1174.6 252V378M1227.94 252V378M1120 295H1280M1120 337H1280" stroke="#E8E8E8" stroke-opacity="0.5" stroke-width="2"/>
</g>
<g clip-path="url(#clip26_229_1649)">
<path d="M1282.54 254H1440V378H1282.54V254Z" fill="white"/>
<path d="M1280 253H1440M1281.27 252V378M1334.6 252V378M1387.94 252V378M1280 295H1440M1280 337H1440" stroke="#E8E8E8" stroke-opacity="0.5" stroke-width="2"/>
</g>
<g clip-path="url(#clip27_229_1649)">
<path d="M2.54004 380H160V504H2.54004V380Z" fill="white"/>
<path d="M0 379H160M1.26984 378V504M54.6032 378V504M107.937 378V504M0 421H160M0 463H160" stroke="#E8E8E8" stroke-opacity="0.4" stroke-width="2"/>
</g>
<g clip-path="url(#clip28_229_1649)">
<path d="M162.54 380H320V504H162.54V380Z" fill="white"/>
<path d="M160 379H320M161.27 378V504M214.603 378V504M267.937 378V504M160 421H320M160 463H320" stroke="#E8E8E8" stroke-opacity="0.4" stroke-width="2"/>
</g>
<g clip-path="url(#clip29_229_1649)">
<path d="M322.54 380H480V504H322.54V380Z" fill="white"/>
<path d="M320 379H480M321.27 378V504M374.603 378V504M427.937 378V504M320 421H480M320 463H480" stroke="#E8E8E8" stroke-opacity="0.4" stroke-width="2"/>
</g>
<g clip-path="url(#clip30_229_1649)">
<path d="M482.54 380H640V504H482.54V380Z" fill="white"/>
<path d="M480 379H640M481.27 378V504M534.603 378V504M587.937 378V504M480 421H640M480 463H640" stroke="#E8E8E8" stroke-opacity="0.4" stroke-width="2"/>
</g>
<g clip-path="url(#clip31_229_1649)">
<path d="M642.54 380H800V504H642.54V380Z" fill="white"/>
<path d="M640 379H800M641.27 378V504M694.603 378V504M747.937 378V504M640 421H800M640 463H800" stroke="#E8E8E8" stroke-opacity="0.4" stroke-width="2"/>
</g>
<g clip-path="url(#clip32_229_1649)">
<path d="M802.54 380H960V504H802.54V380Z" fill="white"/>
<path d="M800 379H960M801.27 378V504M854.603 378V504M907.937 378V504M800 421H960M800 463H960" stroke="#E8E8E8" stroke-opacity="0.4" stroke-width="2"/>
</g>
<g clip-path="url(#clip33_229_1649)">
<path d="M962.54 380H1120V504H962.54V380Z" fill="white"/>
<path d="M960 379H1120M961.27 378V504M1014.6 378V504M1067.94 378V504M960 421H1120M960 463H1120" stroke="#E8E8E8" stroke-opacity="0.4" stroke-width="2"/>
</g>
<g clip-path="url(#clip34_229_1649)">
<path d="M1122.54 380H1280V504H1122.54V380Z" fill="white"/>
<path d="M1120 379H1280M1121.27 378V504M1174.6 378V504M1227.94 378V504M1120 421H1280M1120 463H1280" stroke="#E8E8E8" stroke-opacity="0.4" stroke-width="2"/>
</g>
<g clip-path="url(#clip35_229_1649)">
<path d="M1282.54 380H1440V504H1282.54V380Z" fill="white"/>
<path d="M1280 379H1440M1281.27 378V504M1334.6 378V504M1387.94 378V504M1280 421H1440M1280 463H1440" stroke="#E8E8E8" stroke-opacity="0.4" stroke-width="2"/>
</g>
<g clip-path="url(#clip36_229_1649)">
<path d="M2.54004 506H160V630H2.54004V506Z" fill="white"/>
<path d="M0 505H160M1.26984 504V630M54.6032 504V630M107.937 504V630M0 547H160M0 589H160" stroke="#E8E8E8" stroke-opacity="0.3" stroke-width="2"/>
</g>
<g clip-path="url(#clip37_229_1649)">
<path d="M162.54 506H320V630H162.54V506Z" fill="white"/>
<path d="M160 505H320M161.27 504V630M214.603 504V630M267.937 504V630M160 547H320M160 589H320" stroke="#E8E8E8" stroke-opacity="0.3" stroke-width="2"/>
</g>
<g clip-path="url(#clip38_229_1649)">
<path d="M322.54 506H480V630H322.54V506Z" fill="white"/>
<path d="M320 505H480M321.27 504V630M374.603 504V630M427.937 504V630M320 547H480M320 589H480" stroke="#E8E8E8" stroke-opacity="0.3" stroke-width="2"/>
</g>
<g clip-path="url(#clip39_229_1649)">
<path d="M482.54 506H640V630H482.54V506Z" fill="white"/>
<path d="M480 505H640M481.27 504V630M534.603 504V630M587.937 504V630M480 547H640M480 589H640" stroke="#E8E8E8" stroke-opacity="0.3" stroke-width="2"/>
</g>
<g clip-path="url(#clip40_229_1649)">
<path d="M642.54 506H800V630H642.54V506Z" fill="white"/>
<path d="M640 505H800M641.27 504V630M694.603 504V630M747.937 504V630M640 547H800M640 589H800" stroke="#E8E8E8" stroke-opacity="0.3" stroke-width="2"/>
</g>
<g clip-path="url(#clip41_229_1649)">
<path d="M802.54 506H960V630H802.54V506Z" fill="white"/>
<path d="M800 505H960M801.27 504V630M854.603 504V630M907.937 504V630M800 547H960M800 589H960" stroke="#E8E8E8" stroke-opacity="0.3" stroke-width="2"/>
</g>
<g clip-path="url(#clip42_229_1649)">
<path d="M962.54 506H1120V630H962.54V506Z" fill="white"/>
<path d="M960 505H1120M961.27 504V630M1014.6 504V630M1067.94 504V630M960 547H1120M960 589H1120" stroke="#E8E8E8" stroke-opacity="0.3" stroke-width="2"/>
</g>
<g clip-path="url(#clip43_229_1649)">
<path d="M1122.54 506H1280V630H1122.54V506Z" fill="white"/>
<path d="M1120 505H1280M1121.27 504V630M1174.6 504V630M1227.94 504V630M1120 547H1280M1120 589H1280" stroke="#E8E8E8" stroke-opacity="0.3" stroke-width="2"/>
</g>
<g clip-path="url(#clip44_229_1649)">
<path d="M1282.54 506H1440V630H1282.54V506Z" fill="white"/>
<path d="M1280 505H1440M1281.27 504V630M1334.6 504V630M1387.94 504V630M1280 547H1440M1280 589H1440" stroke="#E8E8E8" stroke-opacity="0.3" stroke-width="2"/>
</g>
<g clip-path="url(#clip45_229_1649)">
<path d="M2.54004 632H160V756H2.54004V632Z" fill="white"/>
<path d="M0 631H160M1.26984 630V756M54.6032 630V756M107.937 630V756M0 673H160M0 715H160" stroke="#E8E8E8" stroke-opacity="0.2" stroke-width="2"/>
</g>
<g clip-path="url(#clip46_229_1649)">
<path d="M162.54 632H320V756H162.54V632Z" fill="white"/>
<path d="M160 631H320M161.27 630V756M214.603 630V756M267.937 630V756M160 673H320M160 715H320" stroke="#E8E8E8" stroke-opacity="0.2" stroke-width="2"/>
</g>
<g clip-path="url(#clip47_229_1649)">
<path d="M322.54 632H480V756H322.54V632Z" fill="white"/>
<path d="M320 631H480M321.27 630V756M374.603 630V756M427.937 630V756M320 673H480M320 715H480" stroke="#E8E8E8" stroke-opacity="0.2" stroke-width="2"/>
</g>
<g clip-path="url(#clip48_229_1649)">
<path d="M482.54 632H640V756H482.54V632Z" fill="white"/>
<path d="M480 631H640M481.27 630V756M534.603 630V756M587.937 630V756M480 673H640M480 715H640" stroke="#E8E8E8" stroke-opacity="0.2" stroke-width="2"/>
</g>
<g clip-path="url(#clip49_229_1649)">
<path d="M642.54 632H800V756H642.54V632Z" fill="white"/>
<path d="M640 631H800M641.27 630V756M694.603 630V756M747.937 630V756M640 673H800M640 715H800" stroke="#E8E8E8" stroke-opacity="0.2" stroke-width="2"/>
</g>
<g clip-path="url(#clip50_229_1649)">
<path d="M802.54 632H960V756H802.54V632Z" fill="white"/>
<path d="M800 631H960M801.27 630V756M854.603 630V756M907.937 630V756M800 673H960M800 715H960" stroke="#E8E8E8" stroke-opacity="0.2" stroke-width="2"/>
</g>
<g clip-path="url(#clip51_229_1649)">
<path d="M962.54 632H1120V756H962.54V632Z" fill="white"/>
<path d="M960 631H1120M961.27 630V756M1014.6 630V756M1067.94 630V756M960 673H1120M960 715H1120" stroke="#E8E8E8" stroke-opacity="0.2" stroke-width="2"/>
</g>
<g clip-path="url(#clip52_229_1649)">
<path d="M1122.54 632H1280V756H1122.54V632Z" fill="white"/>
<path d="M1120 631H1280M1121.27 630V756M1174.6 630V756M1227.94 630V756M1120 673H1280M1120 715H1280" stroke="#E8E8E8" stroke-opacity="0.2" stroke-width="2"/>
</g>
<g clip-path="url(#clip53_229_1649)">
<path d="M1282.54 632H1440V756H1282.54V632Z" fill="white"/>
<path d="M1280 631H1440M1281.27 630V756M1334.6 630V756M1387.94 630V756M1280 673H1440M1280 715H1440" stroke="#E8E8E8" stroke-opacity="0.2" stroke-width="2"/>
</g>
<g clip-path="url(#clip54_229_1649)">
<path d="M2.54004 758H160V882H2.54004V758Z" fill="white"/>
<path d="M0 757H160M1.26984 756V882M54.6032 756V882M107.937 756V882M0 799H160M0 841H160" stroke="#E8E8E8" stroke-opacity="0.1" stroke-width="2"/>
</g>
<g clip-path="url(#clip55_229_1649)">
<path d="M162.54 758H320V882H162.54V758Z" fill="white"/>
<path d="M160 757H320M161.27 756V882M214.603 756V882M267.937 756V882M160 799H320M160 841H320" stroke="#E8E8E8" stroke-opacity="0.1" stroke-width="2"/>
</g>
<g clip-path="url(#clip56_229_1649)">
<path d="M322.54 758H480V882H322.54V758Z" fill="white"/>
<path d="M320 757H480M321.27 756V882M374.603 756V882M427.937 756V882M320 799H480M320 841H480" stroke="#E8E8E8" stroke-opacity="0.1" stroke-width="2"/>
</g>
<g clip-path="url(#clip57_229_1649)">
<path d="M482.54 758H640V882H482.54V758Z" fill="white"/>
<path d="M480 757H640M481.27 756V882M534.603 756V882M587.937 756V882M480 799H640M480 841H640" stroke="#E8E8E8" stroke-opacity="0.1" stroke-width="2"/>
</g>
<g clip-path="url(#clip58_229_1649)">
<path d="M642.54 758H800V882H642.54V758Z" fill="white"/>
<path d="M640 757H800M641.27 756V882M694.603 756V882M747.937 756V882M640 799H800M640 841H800" stroke="#E8E8E8" stroke-opacity="0.1" stroke-width="2"/>
</g>
<g clip-path="url(#clip59_229_1649)">
<path d="M802.54 758H960V882H802.54V758Z" fill="white"/>
<path d="M800 757H960M801.27 756V882M854.603 756V882M907.937 756V882M800 799H960M800 841H960" stroke="#E8E8E8" stroke-opacity="0.1" stroke-width="2"/>
</g>
<g clip-path="url(#clip60_229_1649)">
<path d="M962.54 758H1120V882H962.54V758Z" fill="white"/>
<path d="M960 757H1120M961.27 756V882M1014.6 756V882M1067.94 756V882M960 799H1120M960 841H1120" stroke="#E8E8E8" stroke-opacity="0.1" stroke-width="2"/>
</g>
<g clip-path="url(#clip61_229_1649)">
<path d="M1122.54 758H1280V882H1122.54V758Z" fill="white"/>
<path d="M1120 757H1280M1121.27 756V882M1174.6 756V882M1227.94 756V882M1120 799H1280M1120 841H1280" stroke="#E8E8E8" stroke-opacity="0.1" stroke-width="2"/>
</g>
<g clip-path="url(#clip62_229_1649)">
<path d="M1282.54 758H1440V882H1282.54V758Z" fill="white"/>
<path d="M1280 757H1440M1281.27 756V882M1334.6 756V882M1387.94 756V882M1280 799H1440M1280 841H1440" stroke="#E8E8E8" stroke-opacity="0.1" stroke-width="2"/>
</g>
</g>
<defs>
<clipPath id="clip0_229_1649">
<rect width="160" height="126" fill="white"/>
</clipPath>
<clipPath id="clip1_229_1649">
<rect width="160" height="126" fill="white" transform="translate(160)"/>
</clipPath>
<clipPath id="clip2_229_1649">
<rect width="160" height="126" fill="white" transform="translate(320)"/>
</clipPath>
<clipPath id="clip3_229_1649">
<rect width="160" height="126" fill="white" transform="translate(480)"/>
</clipPath>
<clipPath id="clip4_229_1649">
<rect width="160" height="126" fill="white" transform="translate(640)"/>
</clipPath>
<clipPath id="clip5_229_1649">
<rect width="160" height="126" fill="white" transform="translate(800)"/>
</clipPath>
<clipPath id="clip6_229_1649">
<rect width="160" height="126" fill="white" transform="translate(960)"/>
</clipPath>
<clipPath id="clip7_229_1649">
<rect width="160" height="126" fill="white" transform="translate(1120)"/>
</clipPath>
<clipPath id="clip8_229_1649">
<rect width="160" height="126" fill="white" transform="translate(1280)"/>
</clipPath>
<clipPath id="clip9_229_1649">
<rect width="160" height="126" fill="white" transform="translate(0 126)"/>
</clipPath>
<clipPath id="clip10_229_1649">
<rect width="160" height="126" fill="white" transform="translate(160 126)"/>
</clipPath>
<clipPath id="clip11_229_1649">
<rect width="160" height="126" fill="white" transform="translate(320 126)"/>
</clipPath>
<clipPath id="clip12_229_1649">
<rect width="160" height="126" fill="white" transform="translate(480 126)"/>
</clipPath>
<clipPath id="clip13_229_1649">
<rect width="160" height="126" fill="white" transform="translate(640 126)"/>
</clipPath>
<clipPath id="clip14_229_1649">
<rect width="160" height="126" fill="white" transform="translate(800 126)"/>
</clipPath>
<clipPath id="clip15_229_1649">
<rect width="160" height="126" fill="white" transform="translate(960 126)"/>
</clipPath>
<clipPath id="clip16_229_1649">
<rect width="160" height="126" fill="white" transform="translate(1120 126)"/>
</clipPath>
<clipPath id="clip17_229_1649">
<rect width="160" height="126" fill="white" transform="translate(1280 126)"/>
</clipPath>
<clipPath id="clip18_229_1649">
<rect width="160" height="126" fill="white" transform="translate(0 252)"/>
</clipPath>
<clipPath id="clip19_229_1649">
<rect width="160" height="126" fill="white" transform="translate(160 252)"/>
</clipPath>
<clipPath id="clip20_229_1649">
<rect width="160" height="126" fill="white" transform="translate(320 252)"/>
</clipPath>
<clipPath id="clip21_229_1649">
<rect width="160" height="126" fill="white" transform="translate(480 252)"/>
</clipPath>
<clipPath id="clip22_229_1649">
<rect width="160" height="126" fill="white" transform="translate(640 252)"/>
</clipPath>
<clipPath id="clip23_229_1649">
<rect width="160" height="126" fill="white" transform="translate(800 252)"/>
</clipPath>
<clipPath id="clip24_229_1649">
<rect width="160" height="126" fill="white" transform="translate(960 252)"/>
</clipPath>
<clipPath id="clip25_229_1649">
<rect width="160" height="126" fill="white" transform="translate(1120 252)"/>
</clipPath>
<clipPath id="clip26_229_1649">
<rect width="160" height="126" fill="white" transform="translate(1280 252)"/>
</clipPath>
<clipPath id="clip27_229_1649">
<rect width="160" height="126" fill="white" transform="translate(0 378)"/>
</clipPath>
<clipPath id="clip28_229_1649">
<rect width="160" height="126" fill="white" transform="translate(160 378)"/>
</clipPath>
<clipPath id="clip29_229_1649">
<rect width="160" height="126" fill="white" transform="translate(320 378)"/>
</clipPath>
<clipPath id="clip30_229_1649">
<rect width="160" height="126" fill="white" transform="translate(480 378)"/>
</clipPath>
<clipPath id="clip31_229_1649">
<rect width="160" height="126" fill="white" transform="translate(640 378)"/>
</clipPath>
<clipPath id="clip32_229_1649">
<rect width="160" height="126" fill="white" transform="translate(800 378)"/>
</clipPath>
<clipPath id="clip33_229_1649">
<rect width="160" height="126" fill="white" transform="translate(960 378)"/>
</clipPath>
<clipPath id="clip34_229_1649">
<rect width="160" height="126" fill="white" transform="translate(1120 378)"/>
</clipPath>
<clipPath id="clip35_229_1649">
<rect width="160" height="126" fill="white" transform="translate(1280 378)"/>
</clipPath>
<clipPath id="clip36_229_1649">
<rect width="160" height="126" fill="white" transform="translate(0 504)"/>
</clipPath>
<clipPath id="clip37_229_1649">
<rect width="160" height="126" fill="white" transform="translate(160 504)"/>
</clipPath>
<clipPath id="clip38_229_1649">
<rect width="160" height="126" fill="white" transform="translate(320 504)"/>
</clipPath>
<clipPath id="clip39_229_1649">
<rect width="160" height="126" fill="white" transform="translate(480 504)"/>
</clipPath>
<clipPath id="clip40_229_1649">
<rect width="160" height="126" fill="white" transform="translate(640 504)"/>
</clipPath>
<clipPath id="clip41_229_1649">
<rect width="160" height="126" fill="white" transform="translate(800 504)"/>
</clipPath>
<clipPath id="clip42_229_1649">
<rect width="160" height="126" fill="white" transform="translate(960 504)"/>
</clipPath>
<clipPath id="clip43_229_1649">
<rect width="160" height="126" fill="white" transform="translate(1120 504)"/>
</clipPath>
<clipPath id="clip44_229_1649">
<rect width="160" height="126" fill="white" transform="translate(1280 504)"/>
</clipPath>
<clipPath id="clip45_229_1649">
<rect width="160" height="126" fill="white" transform="translate(0 630)"/>
</clipPath>
<clipPath id="clip46_229_1649">
<rect width="160" height="126" fill="white" transform="translate(160 630)"/>
</clipPath>
<clipPath id="clip47_229_1649">
<rect width="160" height="126" fill="white" transform="translate(320 630)"/>
</clipPath>
<clipPath id="clip48_229_1649">
<rect width="160" height="126" fill="white" transform="translate(480 630)"/>
</clipPath>
<clipPath id="clip49_229_1649">
<rect width="160" height="126" fill="white" transform="translate(640 630)"/>
</clipPath>
<clipPath id="clip50_229_1649">
<rect width="160" height="126" fill="white" transform="translate(800 630)"/>
</clipPath>
<clipPath id="clip51_229_1649">
<rect width="160" height="126" fill="white" transform="translate(960 630)"/>
</clipPath>
<clipPath id="clip52_229_1649">
<rect width="160" height="126" fill="white" transform="translate(1120 630)"/>
</clipPath>
<clipPath id="clip53_229_1649">
<rect width="160" height="126" fill="white" transform="translate(1280 630)"/>
</clipPath>
<clipPath id="clip54_229_1649">
<rect width="160" height="126" fill="white" transform="translate(0 756)"/>
</clipPath>
<clipPath id="clip55_229_1649">
<rect width="160" height="126" fill="white" transform="translate(160 756)"/>
</clipPath>
<clipPath id="clip56_229_1649">
<rect width="160" height="126" fill="white" transform="translate(320 756)"/>
</clipPath>
<clipPath id="clip57_229_1649">
<rect width="160" height="126" fill="white" transform="translate(480 756)"/>
</clipPath>
<clipPath id="clip58_229_1649">
<rect width="160" height="126" fill="white" transform="translate(640 756)"/>
</clipPath>
<clipPath id="clip59_229_1649">
<rect width="160" height="126" fill="white" transform="translate(800 756)"/>
</clipPath>
<clipPath id="clip60_229_1649">
<rect width="160" height="126" fill="white" transform="translate(960 756)"/>
</clipPath>
<clipPath id="clip61_229_1649">
<rect width="160" height="126" fill="white" transform="translate(1120 756)"/>
</clipPath>
<clipPath id="clip62_229_1649">
<rect width="160" height="126" fill="white" transform="translate(1280 756)"/>
</clipPath>
</defs>
</svg>
